<svg width="48" height="48" viewBox="0 0 48 48" fill="none" xmlns="http://www.w3.org/2000/svg">
<g clip-path="url(#clip0_3080_7352)">
<path opacity="0.3" fill-rule="evenodd" clip-rule="evenodd" d="M19.6919 31.3848C19.0432 31.3848 18.5125 31.9155 18.5125 32.5642V39.641H14.9741C14.3254 39.641 13.7946 40.1717 13.7946 40.8204C13.7946 41.4691 14.3254 41.9999 14.9741 41.9999H26.7687C27.4174 41.9999 27.9481 41.4691 27.9481 40.8204C27.9481 40.1717 27.4174 39.641 26.7687 39.641H23.2303V32.5642C23.2303 31.9155 22.6995 31.3848 22.0508 31.3848H19.6919Z" fill="#00ABEE"/>
<path opacity="0.3" fill-rule="evenodd" clip-rule="evenodd" d="M33.1731 17.2314C32.2414 17.2314 31.4865 17.9273 31.4865 18.7883V39.2755C31.4865 40.1366 32.2414 40.8324 33.1731 40.8324H43.9534C44.8852 40.8324 45.64 40.1366 45.64 39.2755V18.7883C45.64 17.9273 44.8852 17.2314 43.9534 17.2314H33.1731Z" fill="#00ABEE"/>
<path fill-rule="evenodd" clip-rule="evenodd" d="M33.8454 16.0518H43.2811C45.0739 16.0518 46.5246 17.5025 46.5246 19.2953V38.7564C46.5246 40.5491 45.0739 41.9999 43.2811 41.9999H33.8454C32.0527 41.9999 30.6019 40.5491 30.6019 38.7564V19.2953C30.6019 17.5025 32.0527 16.0518 33.8454 16.0518ZM33.8454 17.8209C33.0316 17.8209 32.3711 18.4814 32.3711 19.2953V38.7564C32.3711 39.5702 33.0316 40.2307 33.8454 40.2307H43.2811C44.0949 40.2307 44.7554 39.5702 44.7554 38.7564V19.2953C44.7554 18.4814 44.0949 17.8209 43.2811 17.8209H42.1017V18.3517C42.1017 18.8707 41.6771 19.2953 41.1581 19.2953H35.9685C35.4495 19.2953 35.0249 18.8707 35.0249 18.3517V17.8209H33.8454Z" fill="#00ABEE"/>
<path fill-rule="evenodd" clip-rule="evenodd" d="M28.3491 31.3849H5.53838V10.1546H36.2043V13.6812H39.7427V11.334C39.7427 8.72744 37.6315 6.61621 35.0249 6.61621H6.71784C4.11123 6.61621 2 8.72744 2 11.334V30.2054C2 32.812 4.11123 34.9232 6.71784 34.9232H28.3491V31.3849Z" fill="#00ABEE"/>
<path opacity="0.3" fill-rule="evenodd" clip-rule="evenodd" d="M28.3491 18.611C28.3491 15.9219 30.5311 13.7281 33.2321 13.7281H36.2043V10.1543H5.53839V31.3846H28.3491V18.611Z" fill="#00ABEE"/>
</g>
<path fill-rule="evenodd" clip-rule="evenodd" d="M24.5 15.4H26.6V17.5002H28V15.4C28 14.6268 27.3732 14 26.6 14H24.5V15.4ZM17.5 15.4V14H15.4C14.6268 14 14 14.6268 14 15.4V17.5002H15.4V15.4H17.5ZM15.4 24.5002H14V26.6C14 27.3732 14.6268 28 15.4 28H17.5V26.6H15.4V24.5002ZM24.5 26.6V28H26.6C27.3732 28 28 27.3732 28 26.6V24.5002H26.6V26.6H24.5Z" fill="#00ABEE"/>
<path fill-rule="evenodd" clip-rule="evenodd" d="M18.5495 17.1504H17.1498V18.5501H18.5495V17.1504ZM16.1 16.1006V19.5999H19.5993V16.1006H16.1Z" fill="#00ABEE"/>
<path fill-rule="evenodd" clip-rule="evenodd" d="M18.5495 23.4502H17.1498V24.8499H18.5495V23.4502ZM16.1 22.4004V25.8997H19.5993V22.4004H16.1Z" fill="#00ABEE"/>
<path fill-rule="evenodd" clip-rule="evenodd" d="M24.8495 17.1504H23.4498V18.5501H24.8495V17.1504ZM22.4 16.1006V19.5999H25.8993V16.1006H22.4Z" fill="#00ABEE"/>
<path fill-rule="evenodd" clip-rule="evenodd" d="M24.8495 23.4502H23.4498V24.8499H24.8495V23.4502ZM22.4 22.4004V25.8997H25.8993V22.4004H22.4Z" fill="#00ABEE"/>
<path d="M20.2999 16.8008H21.6997V19.6002H20.2999V16.8008Z" fill="#00ABEE" fill-opacity="0.3"/>
<path d="M20.2999 23.4502H21.6997V25.8997H20.2999V23.4502Z" fill="#00ABEE" fill-opacity="0.3"/>
<path d="M16.1 21.7002L16.1 20.3005L17.4997 20.3005L17.4997 21.7002L16.1 21.7002Z" fill="#00ABEE" fill-opacity="0.3"/>
<path fill-rule="evenodd" clip-rule="evenodd" d="M19.2499 20.3008V21.7005H20.2999V22.4004H21.6996V21.7005L21.6995 21.7005V20.3008H19.2499Z" fill="#00ABEE" fill-opacity="0.3"/>
<path d="M24.4999 21.7002L24.4999 20.3005L25.8997 20.3005L25.8997 21.7002L24.4999 21.7002Z" fill="#00ABEE" fill-opacity="0.3"/>
<path d="M22.4 21.7002L22.4 20.3005L23.4498 20.3005L23.4498 21.7002L22.4 21.7002Z" fill="#00ABEE" fill-opacity="0.3"/>
<path d="M23.45 22.4004L23.45 21.7005L24.4997 21.7005L24.4997 22.4004L23.45 22.4004Z" fill="#00ABEE" fill-opacity="0.3"/>
<path fill-rule="evenodd" clip-rule="evenodd" d="M38 32C37.75 32 37.5 31.9 37.3 31.7L35.3 29.7C34.9 29.3 34.9 28.7 35.3 28.3C35.7 27.9 36.35 27.9 36.7 28.3L38 29.6L41.3 26.3C41.7 25.9 42.3 25.9 42.7 26.3C43.1 26.7 43.1 27.3 42.7 27.7L38.7 31.7C38.5 31.9 38.25 32 38 32Z" fill="#00ABEE"/>
<defs>
<clipPath id="clip0_3080_7352">
<rect width="44.5246" height="35.3838" fill="white" transform="translate(2 6.61621)"/>
</clipPath>
</defs>
</svg>
