<svg width="88" height="79" viewBox="0 0 88 79" fill="none" xmlns="http://www.w3.org/2000/svg">
<path opacity="0.3" d="M62.6001 44.0723H80.6001V50.9454H62.6001V44.0723Z" fill="#00ABEE"/>
<path d="M82.4004 40.6367C83.3943 40.6369 84.2002 41.4425 84.2002 42.4365V73.2002C84.2001 74.1941 83.3943 74.9998 82.4004 75H60.7998C59.8058 74.9999 59.0001 74.1942 59 73.2002V42.4365C59 41.4425 59.8058 40.6368 60.7998 40.6367H82.4004ZM64.3184 68.127C63.3694 68.127 62.6006 68.8968 62.6006 69.8457C62.6008 70.7944 63.3696 71.5635 64.3184 71.5635H71.6816C72.6304 71.5635 73.4002 70.7944 73.4004 69.8457C73.4004 68.8968 72.6306 68.127 71.6816 68.127H64.3184ZM78.7998 68.127C77.8058 68.1271 77 68.8968 77 69.8457C77.0002 70.7944 77.8059 71.5634 78.7998 71.5635C79.7938 71.5635 80.5994 70.7944 80.5996 69.8457C80.5996 68.8968 79.7939 68.127 78.7998 68.127ZM64.4004 61.2539C63.4063 61.2539 62.6006 62.0237 62.6006 62.9727C62.6008 63.9214 63.4064 64.6904 64.4004 64.6904C65.3943 64.6903 66.2 63.9214 66.2002 62.9727C66.2002 62.0238 65.3944 61.2541 64.4004 61.2539ZM71.5996 61.2539C70.6057 61.2541 69.7998 62.0239 69.7998 62.9727C69.8 63.9213 70.6058 64.6902 71.5996 64.6904C72.5936 64.6904 73.4002 63.9214 73.4004 62.9727C73.4004 62.0237 72.5937 61.2539 71.5996 61.2539ZM78.7998 61.2539C77.8058 61.254 77 62.0238 77 62.9727C77.0002 63.9214 77.8059 64.6903 78.7998 64.6904C79.7938 64.6904 80.5994 63.9214 80.5996 62.9727C80.5996 62.0237 79.7939 61.2539 78.7998 61.2539ZM64.4004 54.3818C63.4063 54.3818 62.6006 55.1517 62.6006 56.1006C62.6007 57.0494 63.4064 57.8184 64.4004 57.8184C65.3943 57.8182 66.2001 57.0493 66.2002 56.1006C66.2002 55.1518 65.3944 54.382 64.4004 54.3818ZM71.5996 54.3818C70.6057 54.3821 69.7998 55.1518 69.7998 56.1006C69.7999 57.0493 70.6058 57.8181 71.5996 57.8184C72.5936 57.8184 73.4003 57.0494 73.4004 56.1006C73.4004 55.1517 72.5937 54.3818 71.5996 54.3818ZM78.7998 54.3818C77.8058 54.3819 77 55.1517 77 56.1006C77.0001 57.0494 77.8059 57.8183 78.7998 57.8184C79.7938 57.8184 80.5995 57.0494 80.5996 56.1006C80.5996 55.1517 79.7939 54.3818 78.7998 54.3818ZM62.6006 44.0723V50.9453H80.6006V44.0723H62.6006Z" fill="#00ABEE"/>
<rect width="1.8" height="27.4909" rx="0.899999" transform="matrix(1 8.3449e-08 9.15858e-08 -1 86 71.5645)" fill="#00ABEE"/>
<path opacity="0.3" d="M75.9712 33L78.2573 33C78.8883 33.0002 79.3998 33.5116 79.3999 34.1426L79.3999 42.3574C79.3998 42.9884 78.8883 43.4998 78.2573 43.5L75.9712 43.5L75.9712 33ZM64.5425 43.5C63.9115 43.4998 63.4001 42.9884 63.3999 42.3574L63.3999 34.1426C63.4001 33.5116 63.9115 33.0002 64.5425 33L72.5425 33L72.5425 43.5L64.5425 43.5Z" fill="#00ABEE"/>
<path d="M33 34C34.5 34 36 35.5 36 37V55C36 56.5 34.5 58 33 58H15C13.5 58 12 56.5 12 55V37C12 35.5 13.5 34 15 34H33ZM15 55H33V37H15V55Z" fill="#00ABEE"/>
<path opacity="0.3" fill-rule="evenodd" clip-rule="evenodd" d="M15 37V55H33V37H15Z" fill="#00ABEE"/>
<path opacity="0.3" fill-rule="evenodd" clip-rule="evenodd" d="M12 55V69C12 70.1046 12.8954 71 14 71H34C35.1046 71 36 70.1046 36 69V55H12Z" fill="#00ABEE"/>
<path opacity="0.3" fill-rule="evenodd" clip-rule="evenodd" d="M13.5 73C12.6716 73 12 73.6716 12 74.5C12 75.3284 12.6716 76 13.5 76H34.5C35.3284 76 36 75.3284 36 74.5C36 73.6716 35.3284 73 34.5 73H13.5Z" fill="#00ABEE"/>
<path d="M17 62.5C17 61.6716 17.6716 61 18.5 61H29.5C30.3284 61 31 61.6716 31 62.5C31 63.3284 30.3284 64 29.5 64H18.5C17.6716 64 17 63.3284 17 62.5Z" fill="#00ABEE"/>
<path d="M44.25 7.5C47.7447 7.5 50.6811 9.8902 51.5137 13.125H54.5625C57.1513 13.125 59.25 15.2237 59.25 17.8125C59.25 20.4013 57.1513 22.5 54.5625 22.5H43.3125C42.106 22.5 41.0065 22.0437 40.1758 21.2949C38.1148 19.9583 36.75 17.6394 36.75 15C36.75 10.8579 40.1079 7.5 44.25 7.5Z" fill="#00ABEE"/>
<path d="M32.858 23.4822C33.3317 23.5621 33.7806 24.0111 33.8606 24.4848L34.4752 28.1239C34.5552 28.5977 34.2356 28.9172 33.7619 28.8373C33.2882 28.7572 32.8392 28.3083 32.7592 27.8346L32.4947 26.265L29.2513 29.5085C28.8608 29.899 28.2255 29.8969 27.835 29.5064C27.4448 29.1158 27.4432 28.4812 27.8336 28.0908L31.0764 24.848L29.5082 24.5836C29.0345 24.5036 28.5856 24.0546 28.5055 23.5809C28.4256 23.1071 28.7451 22.7876 29.2189 22.8676L32.858 23.4822Z" fill="#00ABEE"/>
<path d="M68.8604 27.8577C68.7804 28.3315 68.3315 28.7804 67.8577 28.8604L64.2186 29.475C63.7449 29.5548 63.4253 29.2353 63.5053 28.7616C63.5852 28.288 64.0343 27.8391 64.5079 27.759L66.0775 27.4945L62.8341 24.2511C62.4436 23.8606 62.4457 23.2253 62.8361 22.8348C63.2267 22.4445 63.8613 22.4429 64.2517 22.8334L67.4952 26.0768L67.759 24.5079C67.8389 24.0344 68.2881 23.5855 68.7616 23.5053C69.2354 23.4253 69.5549 23.7448 69.4749 24.2186L68.8604 27.8577Z" fill="#00ABEE"/>
<path d="M43.2084 55.7194C42.9301 55.328 42.9303 54.693 43.2084 54.3014L45.3481 51.2936C45.6265 50.902 46.0774 50.902 46.3559 51.2936C46.6342 51.6851 46.6342 52.3191 46.3559 52.7106L45.434 54.0075L50.0209 54.0075C50.5731 54.0075 51.0207 54.4583 51.0209 55.0104C51.0208 55.5625 50.5731 56.0123 50.0209 56.0123L45.433 56.0123L46.3559 57.3092C46.6343 57.7008 46.6344 58.3356 46.3559 58.7272C46.0775 59.1182 45.6265 59.1183 45.3481 58.7272L43.2084 55.7194Z" fill="#00ABEE"/>
</svg>
