<svg width="48" height="48" viewBox="0 0 48 48" fill="none" xmlns="http://www.w3.org/2000/svg">
<path opacity="0.3" fill-rule="evenodd" clip-rule="evenodd" d="M29.6219 13C28.2898 7.82432 23.5915 4 18 4C11.3726 4 6 9.37258 6 16C6 19.1438 7.20895 22.0053 9.1873 24.1448C9.79822 26.3673 11.8334 28 14.25 28H18H36.75C39.6495 28 42 25.6495 42 22.75V18.25C42 15.3505 39.6495 13 36.75 13H29.6219Z" fill="#00ABEE"/>
<path d="M24.2351 36.4849C24.5102 36.16 24.2793 35.6618 23.8535 35.6618H18.8621V31.1465C18.8621 30.8703 18.6383 30.6465 18.3621 30.6465H15.3155C15.0394 30.6465 14.8155 30.8703 14.8155 31.1465L14.8155 35.6618H9.82409C9.39834 35.6618 9.16739 36.16 9.44249 36.4849L16.4572 44.77C16.6569 45.0059 17.0207 45.0059 17.2204 44.77L24.2351 36.4849Z" fill="#00ABEE"/>
<path d="M27.6037 39.4545C27.3286 39.7795 27.5596 40.2776 27.9853 40.2776L32.9768 40.2776L32.9768 44.793C32.9768 45.0691 33.2006 45.293 33.4768 45.293L36.5234 45.293C36.7995 45.293 37.0234 45.0691 37.0234 44.793L37.0234 40.2776L42.0148 40.2776C42.4405 40.2776 42.6715 39.7795 42.3964 39.4545L35.3817 31.1694C35.1819 30.9335 34.8182 30.9335 34.6185 31.1694L27.6037 39.4545Z" fill="#00ABEE"/>
</svg>
