<svg width="76" height="76" viewBox="0 0 76 76" fill="none" xmlns="http://www.w3.org/2000/svg">
<path opacity="0.3" d="M50.6001 44.0723H68.6001V50.9454H50.6001V44.0723Z" fill="#00ABEE"/>
<path d="M70.4004 40.6367C71.3943 40.6369 72.2001 41.4426 72.2002 42.4365V73.2002C72.2002 74.1942 71.3943 74.9998 70.4004 75H48.7998C47.8058 74.9999 47 74.1942 47 73.2002V42.4365C47.0001 41.4426 47.8058 40.6368 48.7998 40.6367H70.4004ZM52.3184 68.127C51.3694 68.127 50.6006 68.8968 50.6006 69.8457C50.6008 70.7944 51.3696 71.5635 52.3184 71.5635H59.6816C60.6304 71.5635 61.4002 70.7944 61.4004 69.8457C61.4004 68.8968 60.6306 68.127 59.6816 68.127H52.3184ZM66.7998 68.127C65.8058 68.1271 65 68.8968 65 69.8457C65.0002 70.7944 65.8059 71.5634 66.7998 71.5635C67.7938 71.5635 68.5994 70.7944 68.5996 69.8457C68.5996 68.8968 67.7939 68.127 66.7998 68.127ZM52.4004 61.2539C51.4064 61.2539 50.6008 62.0229 50.6006 62.9717C50.6006 63.9206 51.4063 64.6904 52.4004 64.6904C53.3944 64.6903 54.2002 63.9205 54.2002 62.9717C54.2 62.023 53.3942 61.2541 52.4004 61.2539ZM59.5996 61.2539C58.6058 61.2541 57.8 62.0231 57.7998 62.9717C57.7998 63.9205 58.6057 64.6902 59.5996 64.6904C60.5937 64.6904 61.4004 63.9206 61.4004 62.9717C61.4002 62.0229 60.5936 61.2539 59.5996 61.2539ZM66.7998 61.2539C65.8059 61.254 65.0002 62.023 65 62.9717C65 63.9205 65.8058 64.6903 66.7998 64.6904C67.7939 64.6904 68.5996 63.9206 68.5996 62.9717C68.5994 62.0229 67.7938 61.2539 66.7998 61.2539ZM52.4004 54.3818C51.4064 54.3818 50.6008 55.1509 50.6006 56.0996C50.6006 57.0485 51.4063 57.8184 52.4004 57.8184C53.3944 57.8182 54.2002 57.0484 54.2002 56.0996C54.2 55.151 53.3942 54.382 52.4004 54.3818ZM59.5996 54.3818C58.6058 54.3821 57.8 55.151 57.7998 56.0996C57.7998 57.0484 58.6057 57.8181 59.5996 57.8184C60.5937 57.8184 61.4004 57.0485 61.4004 56.0996C61.4002 55.1509 60.5936 54.3818 59.5996 54.3818ZM66.7998 54.3818C65.8059 54.3819 65.0002 55.1509 65 56.0996C65 57.0485 65.8058 57.8183 66.7998 57.8184C67.7939 57.8184 68.5996 57.0485 68.5996 56.0996C68.5994 55.1509 67.7938 54.3818 66.7998 54.3818ZM50.6006 44.0723V50.9453H68.6006V44.0723H50.6006Z" fill="#00ABEE"/>
<rect width="1.8" height="27.4909" rx="0.899999" transform="matrix(1 8.3449e-08 9.15858e-08 -1 74 71.5645)" fill="#00ABEE"/>
<path opacity="0.3" d="M63.9712 33L66.2573 33C66.8883 33.0002 67.3998 33.5116 67.3999 34.1426L67.3999 42.3574C67.3998 42.9884 66.8883 43.4998 66.2573 43.5L63.9712 43.5L63.9712 33ZM52.5425 43.5C51.9115 43.4998 51.4001 42.9884 51.3999 42.3574L51.3999 34.1426C51.4001 33.5116 51.9115 33.0002 52.5425 33L60.5425 33L60.5425 43.5L52.5425 43.5Z" fill="#00ABEE"/>
<path d="M21 34C22.5 34 24 35.5 24 37V55C24 56.5 22.5 58 21 58H3C1.5 58 0 56.5 0 55V37C0 35.5 1.5 34 3 34H21ZM3 55H21V37H3V55Z" fill="#00ABEE"/>
<path opacity="0.3" fill-rule="evenodd" clip-rule="evenodd" d="M3 37V55H21V37H3Z" fill="#00ABEE"/>
<path opacity="0.3" fill-rule="evenodd" clip-rule="evenodd" d="M0 55V69C0 70.1046 0.895431 71 2 71H22C23.1046 71 24 70.1046 24 69V55H0Z" fill="#00ABEE"/>
<path opacity="0.3" fill-rule="evenodd" clip-rule="evenodd" d="M1.5 73C0.671573 73 0 73.6716 0 74.5C0 75.3284 0.671573 76 1.5 76H22.5C23.3284 76 24 75.3284 24 74.5C24 73.6716 23.3284 73 22.5 73H1.5Z" fill="#00ABEE"/>
<path d="M5 62.5C5 61.6716 5.67157 61 6.5 61H17.5C18.3284 61 19 61.6716 19 62.5C19 63.3284 18.3284 64 17.5 64H6.5C5.67157 64 5 63.3284 5 62.5Z" fill="#00ABEE"/>
<path d="M32.25 7.5C35.7447 7.5 38.6811 9.8902 39.5137 13.125H42.5625C45.1513 13.125 47.25 15.2237 47.25 17.8125C47.25 20.4013 45.1513 22.5 42.5625 22.5H31.3125C30.106 22.5 29.0065 22.0437 28.1758 21.2949C26.1148 19.9583 24.75 17.6394 24.75 15C24.75 10.8579 28.1079 7.5 32.25 7.5Z" fill="#00ABEE"/>
<path d="M21.6129 22.7263C22.1493 22.7437 22.5982 23.1926 22.6156 23.729L22.7488 27.8494C22.7662 28.3858 22.3454 28.8065 21.809 28.7892C21.2727 28.7718 20.8237 28.3229 20.8064 27.7866L20.7497 26.0119L17.2515 29.5101C16.861 29.9006 16.2257 29.8984 15.8352 29.5081C15.4449 29.1175 15.4434 28.4829 15.8338 28.0925L19.3341 24.5922L17.5553 24.5355C17.019 24.5181 16.57 24.0692 16.5527 23.5329C16.5354 22.9966 16.9562 22.5759 17.4925 22.5931L21.6129 22.7263Z" fill="#00ABEE"/>
<path d="M57.8469 28.8452C57.8487 29.4008 57.3998 29.8497 56.8442 29.8479L52.5767 29.8341C52.0212 29.8322 51.569 29.38 51.5672 28.8245C51.5656 28.2692 52.0144 27.8201 52.5698 27.8218L54.4108 27.8287L50.8345 24.2525C50.444 23.8619 50.446 23.2267 50.8366 22.8362C51.2271 22.4459 51.8617 22.4444 52.2522 22.8348L55.8277 26.4104L55.8208 24.5708C55.8192 24.0155 56.2681 23.5664 56.8235 23.5681C57.3791 23.57 57.8312 24.0222 57.8331 24.5777L57.8469 28.8452Z" fill="#00ABEE"/>
<path d="M29.8578 55.7179C29.4673 55.3275 29.4674 54.6944 29.8578 54.3039L32.8578 51.3039C33.2483 50.9133 33.8813 50.9134 34.2718 51.3039C34.6623 51.6944 34.6623 52.3274 34.2718 52.7179L32.9808 54.0089L38.0208 54.0089C38.5731 54.0089 39.0208 54.4596 39.0208 55.0119C39.0207 55.564 38.573 56.0138 38.0208 56.0138L32.9818 56.0138L34.2718 57.3039C34.6623 57.6944 34.6623 58.3274 34.2718 58.7179C33.8813 59.1083 33.2482 59.1084 32.8578 58.7179L29.8578 55.7179Z" fill="#00ABEE"/>
</svg>
