<svg width="48" height="48" viewBox="0 0 48 48" fill="none" xmlns="http://www.w3.org/2000/svg">
<path d="M12 10.1481C12 7.71136 12.0003 7.99357 14.625 8.0241H30.375C32.8749 8.02436 33 7.98629 33 10.4235V42.1491C33 44.5863 31.6875 47.024 30.375 47.0241H14.625C13.3125 47.0241 12 44.5863 12 42.1491V10.1481ZM14.5 42.8356H30.25V13.5856H14.5V42.8356Z" fill="#00ABEE"/>
<path opacity="0.3" fill-rule="evenodd" clip-rule="evenodd" d="M13 11V28H22H31V11H13Z" fill="#00ABEE"/>
<path opacity="0.3" fill-rule="evenodd" clip-rule="evenodd" d="M12 28V42.1814C12 43.2125 12.7839 44.0747 13.8104 44.1724L22.5 45L31.1896 44.1724C32.2161 44.0747 33 43.2125 33 42.1814V28H12Z" fill="#00ABEE"/>
<path d="M12 4.90128C12 4.4644 12.2588 4.06902 12.6593 3.89428L16.6175 2.16694C16.8698 2.05683 17.1421 2 17.4174 2H22.5H27.5826C27.8579 2 28.1302 2.05683 28.3825 2.16694L32.3407 3.89428C32.7412 4.06902 33 4.4644 33 4.90128C33 5.50809 32.5081 6 31.9013 6H13.0987C12.4919 6 12 5.50809 12 4.90128Z" fill="#00ABEE"/>
</svg>
