<svg width="48" height="48" viewBox="0 0 48 48" fill="none" xmlns="http://www.w3.org/2000/svg">
<mask id="path-1-outside-1_2490_7306" maskUnits="userSpaceOnUse" x="0" y="0" width="48" height="48" fill="black">
<rect fill="white" width="48" height="48"/>
<path fill-rule="evenodd" clip-rule="evenodd" d="M44 24C44 35.0457 35.0457 44 24 44C12.9543 44 4 35.0457 4 24C4 12.9543 12.9543 4 24 4C35.0457 4 44 12.9543 44 24ZM16.5167 19.011C15.8279 18.3222 15.8279 17.2054 16.5167 16.5166C17.2055 15.8278 18.3223 15.8278 19.0111 16.5166L24.0002 21.5055L28.9889 16.5169C29.6777 15.8281 30.7945 15.8281 31.4834 16.5169C32.1722 17.2057 32.1722 18.3225 31.4834 19.0113L26.4946 23.9999L31.4834 28.9887C32.1723 29.6775 32.1723 30.7943 31.4834 31.4831C30.7946 32.1719 29.6778 32.1719 28.989 31.4831L24.0002 26.4944L19.0111 31.4833C18.3223 32.1722 17.2054 32.1722 16.5166 31.4833C15.8278 30.7945 15.8278 29.6777 16.5166 28.9889L21.5057 23.9999L16.5167 19.011Z"/>
</mask>
<path fill-rule="evenodd" clip-rule="evenodd" d="M44 24C44 35.0457 35.0457 44 24 44C12.9543 44 4 35.0457 4 24C4 12.9543 12.9543 4 24 4C35.0457 4 44 12.9543 44 24ZM16.5167 19.011C15.8279 18.3222 15.8279 17.2054 16.5167 16.5166C17.2055 15.8278 18.3223 15.8278 19.0111 16.5166L24.0002 21.5055L28.9889 16.5169C29.6777 15.8281 30.7945 15.8281 31.4834 16.5169C32.1722 17.2057 32.1722 18.3225 31.4834 19.0113L26.4946 23.9999L31.4834 28.9887C32.1723 29.6775 32.1723 30.7943 31.4834 31.4831C30.7946 32.1719 29.6778 32.1719 28.989 31.4831L24.0002 26.4944L19.0111 31.4833C18.3223 32.1722 17.2054 32.1722 16.5166 31.4833C15.8278 30.7945 15.8278 29.6777 16.5166 28.9889L21.5057 23.9999L16.5167 19.011Z" fill="#CD6060"/>
<path d="M16.5167 16.5166L13.6883 13.6882L13.6883 13.6882L16.5167 16.5166ZM16.5167 19.011L19.3451 16.1826L19.3451 16.1826L16.5167 19.011ZM19.0111 16.5166L16.1827 19.3451L16.1827 19.3451L19.0111 16.5166ZM24.0002 21.5055L21.1718 24.334L24.0002 27.1623L26.8286 24.334L24.0002 21.5055ZM28.9889 16.5169L26.1605 13.6884L26.1605 13.6884L28.9889 16.5169ZM31.4834 16.5169L34.3118 13.6884L34.3118 13.6884L31.4834 16.5169ZM31.4834 19.0113L28.655 16.1828L28.655 16.1828L31.4834 19.0113ZM26.4946 23.9999L23.6662 21.1715L20.8377 23.9999L23.6662 26.8284L26.4946 23.9999ZM31.4834 28.9887L28.655 31.8171L28.655 31.8171L31.4834 28.9887ZM31.4834 31.4831L28.655 28.6546L28.655 28.6546L31.4834 31.4831ZM28.989 31.4831L26.1606 34.3115L26.1606 34.3115L28.989 31.4831ZM24.0002 26.4944L26.8286 23.6659L24.0002 20.8376L21.1718 23.6659L24.0002 26.4944ZM19.0111 31.4833L21.8395 34.3118V34.3118L19.0111 31.4833ZM16.5166 31.4833L13.6882 34.3118L13.6882 34.3118L16.5166 31.4833ZM16.5166 28.9889L19.345 31.8174L19.345 31.8174L16.5166 28.9889ZM21.5057 23.9999L24.3341 26.8284L27.1626 23.9999L24.3341 21.1715L21.5057 23.9999ZM24 48C37.2548 48 48 37.2548 48 24H40C40 32.8366 32.8366 40 24 40V48ZM0 24C0 37.2548 10.7452 48 24 48V40C15.1634 40 8 32.8366 8 24H0ZM24 0C10.7452 0 0 10.7452 0 24H8C8 15.1634 15.1634 8 24 8V0ZM48 24C48 10.7452 37.2548 0 24 0V8C32.8366 8 40 15.1634 40 24H48ZM13.6883 13.6882C11.4373 15.9391 11.4373 19.5886 13.6883 21.8395L19.3451 16.1826C20.2184 17.0559 20.2184 18.4718 19.3451 19.3451L13.6883 13.6882ZM21.8396 13.6882C19.5886 11.4373 15.9392 11.4373 13.6883 13.6882L19.3451 19.3451C18.4718 20.2183 17.056 20.2183 16.1827 19.3451L21.8396 13.6882ZM26.8286 18.6771L21.8395 13.6882L16.1827 19.3451L21.1718 24.334L26.8286 18.6771ZM26.1605 13.6884L21.1718 18.6771L26.8286 24.334L31.8173 19.3453L26.1605 13.6884ZM34.3118 13.6884C32.0608 11.4376 28.4114 11.4376 26.1605 13.6884L31.8173 19.3453C30.944 20.2186 29.5282 20.2186 28.655 19.3453L34.3118 13.6884ZM34.3118 21.8397C36.5627 19.5888 36.5627 15.9393 34.3118 13.6884L28.655 19.3453C27.7817 18.472 27.7817 17.0561 28.655 16.1828L34.3118 21.8397ZM29.323 26.8284L34.3118 21.8397L28.655 16.1828L23.6662 21.1715L29.323 26.8284ZM34.3118 26.1602L29.323 21.1715L23.6662 26.8284L28.655 31.8171L34.3118 26.1602ZM34.3118 34.3115C36.5628 32.0606 36.5628 28.4111 34.3118 26.1602L28.655 31.8171C27.7817 30.9438 27.7817 29.5279 28.655 28.6546L34.3118 34.3115ZM26.1606 34.3115C28.4115 36.5624 32.0609 36.5624 34.3118 34.3115L28.655 28.6546C29.5283 27.7814 30.9441 27.7814 31.8174 28.6546L26.1606 34.3115ZM21.1718 29.3228L26.1606 34.3115L31.8174 28.6546L26.8286 23.6659L21.1718 29.3228ZM21.8395 34.3118L26.8286 29.3228L21.1718 23.6659L16.1827 28.6549L21.8395 34.3118ZM13.6882 34.3118C15.9391 36.5627 19.5886 36.5627 21.8395 34.3118L16.1827 28.6549C17.0559 27.7816 18.4717 27.7816 19.345 28.6549L13.6882 34.3118ZM13.6882 26.1605C11.4373 28.4114 11.4373 32.0609 13.6882 34.3118L19.345 28.6549C20.2183 29.5282 20.2183 30.9441 19.345 31.8174L13.6882 26.1605ZM18.6773 21.1715L13.6882 26.1605L19.345 31.8174L24.3341 26.8284L18.6773 21.1715ZM13.6883 21.8395L18.6773 26.8284L24.3341 21.1715L19.3451 16.1826L13.6883 21.8395Z" fill="white" mask="url(#path-1-outside-1_2490_7306)"/>
</svg>
