<svg width="48" height="48" viewBox="0 0 48 48" fill="none" xmlns="http://www.w3.org/2000/svg">
<path opacity="0.3" fill-rule="evenodd" clip-rule="evenodd" d="M4.06068 22.4244C3.47489 23.0102 3.47489 23.9599 4.06068 24.5457L10.4246 30.9097C11.0104 31.4955 11.9602 31.4955 12.546 30.9097L18.9099 24.5457C19.4957 23.9599 19.4957 23.0102 18.9099 22.4244L12.546 16.0604C11.9602 15.4746 11.0104 15.4746 10.4246 16.0604L4.06068 22.4244ZM28.0607 22.4244C27.4749 23.0102 27.4749 23.9599 28.0607 24.5457L34.4246 30.9097C35.0104 31.4955 35.9602 31.4955 36.546 30.9097L42.9099 24.5457C43.4957 23.9599 43.4957 23.0102 42.9099 22.4244L36.546 16.0604C35.9602 15.4746 35.0104 15.4746 34.4246 16.0604L28.0607 22.4244Z" fill="#00ABEE"/>
<path fill-rule="evenodd" clip-rule="evenodd" d="M16.0607 10.4244C15.4749 11.0102 15.4749 11.9599 16.0607 12.5457L22.4246 18.9097C23.0104 19.4955 23.9602 19.4955 24.546 18.9097L30.9099 12.5457C31.4957 11.9599 31.4957 11.0102 30.9099 10.4244L24.546 4.06043C23.9602 3.47465 23.0104 3.47465 22.4246 4.06043L16.0607 10.4244ZM16.0607 34.4244C15.4749 35.0102 15.4749 35.9599 16.0607 36.5457L22.4246 42.9097C23.0104 43.4955 23.9602 43.4955 24.546 42.9097L30.9099 36.5457C31.4957 35.9599 31.4957 35.0102 30.9099 34.4244L24.546 28.0604C23.9602 27.4746 23.0104 27.4746 22.4246 28.0604L16.0607 34.4244Z" fill="#00ABEE"/>
</svg>
