<svg width="40" height="53" viewBox="0 0 40 53" fill="none" xmlns="http://www.w3.org/2000/svg">
<path opacity="0.3" d="M3.6001 20.5996H21.6001V27.8H3.6001V20.5996Z" fill="#00ABEE"/>
<path d="M23.4004 17C24.3943 17.0002 25.2001 17.8059 25.2002 18.7998V51.2002C25.2001 52.1941 24.3943 52.9998 23.4004 53H1.7998C0.805846 52.9999 0.000105481 52.1942 0 51.2002V18.7998C0.000104612 17.8058 0.805846 17.0001 1.7998 17H23.4004ZM5.40039 45.7998C4.40641 45.7998 3.59982 46.6057 3.59961 47.5996C3.59961 48.5937 4.40628 49.4004 5.40039 49.4004H12.5996C13.5937 49.4004 14.4004 48.5937 14.4004 47.5996C14.4002 46.6057 13.5936 45.7998 12.5996 45.7998H5.40039ZM19.7998 45.7998C18.8059 45.7999 18.0002 46.6057 18 47.5996C18 48.5936 18.8058 49.4003 19.7998 49.4004C20.7939 49.4004 21.5996 48.5937 21.5996 47.5996C21.5994 46.6057 20.7938 45.7998 19.7998 45.7998ZM5.40039 38.5996C4.40634 38.5996 3.59971 39.4054 3.59961 40.3994C3.59961 41.3935 4.40628 42.1992 5.40039 42.1992C6.39431 42.199 7.2002 41.3934 7.2002 40.3994C7.20009 39.4055 6.39425 38.5998 5.40039 38.5996ZM12.5996 38.5996C11.6058 38.5998 10.7999 39.4055 10.7998 40.3994C10.7998 41.3934 11.6057 42.199 12.5996 42.1992C13.5937 42.1992 14.4004 41.3935 14.4004 40.3994C14.4003 39.4054 13.5937 38.5996 12.5996 38.5996ZM19.7998 38.5996C18.8058 38.5997 18.0001 39.4055 18 40.3994C18 41.3935 18.8058 42.1991 19.7998 42.1992C20.7939 42.1992 21.5996 41.3935 21.5996 40.3994C21.5995 39.4054 20.7939 38.5996 19.7998 38.5996ZM5.40039 31.4004C4.40634 31.4004 3.59971 32.2062 3.59961 33.2002C3.59961 34.1943 4.40628 35 5.40039 35C6.39431 34.9998 7.2002 34.1942 7.2002 33.2002C7.20009 32.2063 6.39425 31.4006 5.40039 31.4004ZM12.5996 31.4004C11.6058 31.4006 10.7999 32.2063 10.7998 33.2002C10.7998 34.1942 11.6057 34.9998 12.5996 35C13.5937 35 14.4004 34.1943 14.4004 33.2002C14.4003 32.2062 13.5937 31.4004 12.5996 31.4004ZM19.7998 31.4004C18.8058 31.4005 18.0001 32.2062 18 33.2002C18 34.1942 18.8058 34.9999 19.7998 35C20.7939 35 21.5996 34.1943 21.5996 33.2002C21.5995 32.2062 20.7939 31.4004 19.7998 31.4004ZM3.59961 20.5996V27.7998H21.5996V20.5996H3.59961Z" fill="#00ABEE"/>
<rect width="1.8" height="28.8" rx="0.899999" transform="matrix(1 8.74228e-08 8.74228e-08 -1 27 49.4004)" fill="#00ABEE"/>
<path opacity="0.3" d="M16.9712 9L19.2573 9C19.8883 9.00015 20.3998 9.51162 20.3999 10.1426L20.3999 18.8574C20.3997 19.4884 19.8883 19.9998 19.2573 20L16.9712 20L16.9712 9ZM5.54248 20C4.91152 19.9998 4.40005 19.4884 4.3999 18.8574L4.3999 10.1426C4.40005 9.51162 4.91152 9.00015 5.54248 9L13.5425 9L13.5425 20L5.54248 20Z" fill="#00ABEE"/>
<path d="M34.7817 5.29361C35.0798 4.94294 35.6057 4.9003 35.9564 5.19837C36.307 5.49644 36.3497 6.02235 36.0516 6.37303L28.9683 14.7064C28.6655 15.0625 28.1291 15.1001 27.7797 14.7895L24.0297 11.4562C23.6857 11.1504 23.6547 10.6237 23.9605 10.2797C24.2662 9.9357 24.793 9.90471 25.137 10.2105L28.2502 12.9778L34.7817 5.29361Z" fill="#00ABEE"/>
</svg>
