<svg width="49" height="53" viewBox="0 0 49 53" fill="none" xmlns="http://www.w3.org/2000/svg">
<path opacity="0.3" d="M12.6001 20.5996H30.6001V27.8H12.6001V20.5996Z" fill="#00ABEE"/>
<path d="M32.4004 17C33.3943 17.0002 34.2001 17.8059 34.2002 18.7998V51.2002C34.2001 52.1941 33.3943 52.9998 32.4004 53H10.7998C9.80585 52.9999 9.00011 52.1942 9 51.2002V18.7998C9.0001 17.8058 9.80585 17.0001 10.7998 17H32.4004ZM14.4004 45.7998C13.4064 45.7998 12.5998 46.6057 12.5996 47.5996C12.5996 48.5937 13.4063 49.4004 14.4004 49.4004H21.5996C22.5937 49.4004 23.4004 48.5937 23.4004 47.5996C23.4002 46.6057 22.5936 45.7998 21.5996 45.7998H14.4004ZM28.7998 45.7998C27.8059 45.7999 27.0002 46.6057 27 47.5996C27 48.5936 27.8058 49.4003 28.7998 49.4004C29.7939 49.4004 30.5996 48.5937 30.5996 47.5996C30.5994 46.6057 29.7938 45.7998 28.7998 45.7998ZM14.4004 38.5996C13.4063 38.5996 12.5997 39.4054 12.5996 40.3994C12.5996 41.3935 13.4063 42.1992 14.4004 42.1992C15.3943 42.199 16.2002 41.3934 16.2002 40.3994C16.2001 39.4055 15.3942 38.5998 14.4004 38.5996ZM21.5996 38.5996C20.6058 38.5998 19.7999 39.4055 19.7998 40.3994C19.7998 41.3934 20.6057 42.199 21.5996 42.1992C22.5937 42.1992 23.4004 41.3935 23.4004 40.3994C23.4003 39.4054 22.5937 38.5996 21.5996 38.5996ZM28.7998 38.5996C27.8058 38.5997 27.0001 39.4055 27 40.3994C27 41.3935 27.8058 42.1991 28.7998 42.1992C29.7939 42.1992 30.5996 41.3935 30.5996 40.3994C30.5995 39.4054 29.7939 38.5996 28.7998 38.5996ZM14.4004 31.4004C13.4063 31.4004 12.5997 32.2062 12.5996 33.2002C12.5996 34.1943 13.4063 35 14.4004 35C15.3943 34.9998 16.2002 34.1942 16.2002 33.2002C16.2001 32.2063 15.3942 31.4006 14.4004 31.4004ZM21.5996 31.4004C20.6058 31.4006 19.7999 32.2063 19.7998 33.2002C19.7998 34.1942 20.6057 34.9998 21.5996 35C22.5937 35 23.4004 34.1943 23.4004 33.2002C23.4003 32.2062 22.5937 31.4004 21.5996 31.4004ZM28.7998 31.4004C27.8058 31.4005 27.0001 32.2062 27 33.2002C27 34.1942 27.8058 34.9999 28.7998 35C29.7939 35 30.5996 34.1943 30.5996 33.2002C30.5995 32.2062 29.7939 31.4004 28.7998 31.4004ZM12.5996 20.5996V27.7998H30.5996V20.5996H12.5996Z" fill="#00ABEE"/>
<rect width="1.8" height="28.8" rx="0.899999" transform="matrix(1 8.74228e-08 8.74228e-08 -1 36 49.4004)" fill="#00ABEE"/>
<path opacity="0.3" d="M25.9712 9L28.2573 9C28.8883 9.00015 29.3998 9.51162 29.3999 10.1426L29.3999 18.8574C29.3997 19.4884 28.8883 19.9998 28.2573 20L25.9712 20L25.9712 9ZM14.5425 20C13.9115 19.9998 13.4001 19.4884 13.3999 18.8574L13.3999 10.1426C13.4001 9.51162 13.9115 9.00015 14.5425 9L22.5425 9L22.5425 20L14.5425 20Z" fill="#00ABEE"/>
<path d="M43.7817 5.29361C44.0798 4.94294 44.6057 4.9003 44.9564 5.19837C45.307 5.49644 45.3497 6.02235 45.0516 6.37303L37.9683 14.7064C37.6655 15.0625 37.1291 15.1001 36.7797 14.7895L33.0297 11.4562C32.6857 11.1504 32.6547 10.6237 32.9605 10.2797C33.2662 9.9357 33.793 9.90471 34.137 10.2105L37.2502 12.9778L43.7817 5.29361Z" fill="#00ABEE"/>
</svg>
