<svg width="48" height="48" viewBox="0 0 48 48" fill="none" xmlns="http://www.w3.org/2000/svg">
<path opacity="0.3" d="M28.5 5C29.8807 5 31 6.11929 31 7.5V15H20.5C19.3954 15 18.5 15.8954 18.5 17V31C18.5 32.1046 19.3954 33 20.5 33H31V40.5C31 41.8807 29.8807 43 28.5 43H12.5C11.1193 43 10 41.8807 10 40.5V7.5C10 6.11929 11.1193 5 12.5 5H28.5Z" fill="#00ABEE"/>
<path d="M28.5 2C31.5376 2 34 4.46243 34 7.5V15H31V7.5C31 6.11929 29.8807 5 28.5 5H26.5V6.7002C26.4999 7.14187 26.1419 7.49989 25.7002 7.5H15.2998C14.8581 7.49989 14.5001 7.14187 14.5 6.7002V5H12.5C11.1193 5 10 6.11929 10 7.5V40.5C10 41.8807 11.1193 43 12.5 43H28.5C29.8807 43 31 41.8807 31 40.5V33H34V40.5C34 43.5376 31.5376 46 28.5 46H12.5C9.46243 46 7 43.5376 7 40.5V7.5C7 4.46243 9.46243 2 12.5 2H28.5Z" fill="#00ABEE"/>
<path opacity="0.3" d="M20.5 18.05C20.5 17.4701 20.9701 17 21.55 17H39.95C40.5299 17 41 17.4701 41 18.05V29.95C41 30.5299 40.5299 31 39.95 31H21.55C20.9701 31 20.5 30.5299 20.5 29.95V18.05Z" fill="#00ABEE"/>
<path d="M20.5 20.001H41V23.001L20.5 23L20.5 20.001Z" fill="#00ABEE"/>
<path opacity="0.3" d="M35 26.525C35 26.2351 35.2351 26 35.525 26L38.475 26C38.7649 26 39 26.2351 39 26.525V27.475C39 27.7649 38.7649 28 38.475 28H35.525C35.2351 28 35 27.7649 35 27.475V26.525Z" fill="#00ABEE"/>
</svg>
