<svg width="48" height="48" viewBox="0 0 48 48" fill="none" xmlns="http://www.w3.org/2000/svg">
<path fill-rule="evenodd" clip-rule="evenodd" d="M30.2376 34.7092L26.0782 38.2378L23.9236 40.0002L21.8661 38.2973L17.6095 34.8865C19.1508 32.9631 21.4825 31.8184 23.9967 31.8184C26.4299 31.8184 28.6946 32.8904 30.2376 34.7092Z" fill="#00ABEE"/>
<path fill-rule="evenodd" clip-rule="evenodd" d="M38.4212 40.077L6.42158 8.07741L9.24997 5.24902L41.2496 37.2486L38.4212 40.077Z" fill="#00ABEE"/>
<path opacity="0.3" fill-rule="evenodd" clip-rule="evenodd" d="M24.9768 26.3984C28.726 26.6651 32.1519 28.4548 34.5239 31.3314L38.7322 27.8612C35.1296 23.4922 29.7715 20.9091 23.9969 20.9091C22.6091 20.9091 21.2452 21.0583 19.924 21.3457L24.9768 26.3984ZM15.5316 16.9533C18.1972 15.975 21.0541 15.4545 23.9969 15.4545C31.3988 15.4545 38.2569 18.7472 42.8947 24.3351L47.0919 20.8515C41.4287 14.028 33.0388 10 23.9969 10C19.5445 10 15.2501 10.9767 11.3614 12.7831L15.5316 16.9533ZM9.46892 13.7454L13.5193 17.7957C10.3054 19.3133 7.43543 21.5269 5.11782 24.3126L0.924683 20.8241C3.33418 17.928 6.2353 15.5369 9.46892 13.7454ZM17.6975 21.9739L22.2042 26.4806C18.788 26.9296 15.6929 28.6508 13.4945 31.3017L9.29592 27.8197C11.5321 25.1233 14.4383 23.1119 17.6975 21.9739Z" fill="#00ABEE"/>
</svg>
