<svg width="90" height="55" viewBox="0 0 90 55" fill="none" xmlns="http://www.w3.org/2000/svg">
<path opacity="0.3" fill-rule="evenodd" clip-rule="evenodd" d="M18.3333 5.72949C16.7513 5.72949 15.4688 7.01201 15.4688 8.59408V46.4066C15.4688 47.9886 16.7513 49.2712 18.3333 49.2712H36.6667C38.2487 49.2712 39.5312 47.9886 39.5312 46.4066V8.59408C39.5312 7.01201 38.2487 5.72949 36.6667 5.72949H18.3333Z" fill="#00ABEE" fill-opacity="0.2"/>
<path d="M36.667 2.29199C40.1473 2.29217 42.9686 5.11346 42.9688 8.59375V46.4062C42.9688 49.8867 40.1474 52.7088 36.667 52.709H18.333C14.8526 52.7088 12.0312 49.8867 12.0312 46.4062V8.59375C12.0314 5.11346 14.8527 2.29217 18.333 2.29199H36.667ZM20.625 5.72949H18.333C16.7512 5.72967 15.4689 7.01194 15.4688 8.59375V46.4062C15.4688 47.9882 16.7511 49.2713 18.333 49.2715H36.667C38.2489 49.2713 39.5312 47.9882 39.5312 46.4062V8.59375C39.5311 7.01194 38.2488 5.72967 36.667 5.72949H34.375V7.79395C34.375 8.23571 34.0169 8.59364 33.5752 8.59375H21.4248C20.9831 8.59364 20.625 8.23571 20.625 7.79395V5.72949Z" fill="#00ABEE"/>
<path opacity="0.3" fill-rule="evenodd" clip-rule="evenodd" d="M27 21.5C29.4853 21.5 31.5 19.4853 31.5 17C31.5 14.5147 29.4853 12.5 27 12.5C24.5147 12.5 22.5 14.5147 22.5 17C22.5 19.4853 24.5147 21.5 27 21.5Z" fill="#00ABEE"/>
<path opacity="0.3" fill-rule="evenodd" clip-rule="evenodd" d="M26.8679 21.4981C24.4437 21.4282 22.5 19.4411 22.5 17C22.5 16.9584 22.5006 16.917 22.5017 16.8757C22.8312 16.9072 23.4282 16.9787 23.4563 17.2102C23.4952 17.5305 23.4563 17.9308 23.729 18.0509C24.0017 18.171 24.0797 17.5705 24.3134 17.7306C24.5471 17.8908 25.1704 18.045 25.1704 18.3281C25.1704 18.6112 25.0536 19.0517 25.1704 19.1318C25.2873 19.2119 25.7545 19.7723 25.7546 19.8524C25.7548 19.9325 25.9193 20.3397 25.8702 20.4953C25.8295 20.6244 25.6243 21.0251 25.4253 21.2073C25.8766 21.381 26.3618 21.4829 26.8679 21.498L26.8679 21.4981ZM25.1414 12.9006C25.7079 12.6433 26.3372 12.5 27 12.5C28.7557 12.5 30.2766 13.5055 31.0182 14.972C31.0348 15.3621 31.0319 15.6957 31.1181 15.8164C31.5566 16.43 30.0498 16.8522 30.2787 17.7803C30.3795 18.1897 29.2764 18.0598 29.007 18.4432C28.7374 18.8264 28.0787 18.5689 27.926 18.4952C27.7733 18.4216 27.1883 18.6671 27.2395 18.2498C27.2903 17.8323 27.6461 17.8078 28.0278 17.636C28.4092 17.4643 28.9595 16.8936 28.6891 16.819C27.4162 16.4681 26.9819 15.2393 26.9819 15.2393C26.9055 15.2245 26.9247 14.3705 26.5942 14.346C26.2634 14.3214 26.0852 14.4442 25.6022 14.346C25.1188 14.2479 25.2207 13.9287 25.1444 13.2413C25.1273 13.0871 25.1281 12.9786 25.1414 12.9006ZM31.4996 16.9385C31.4999 16.959 31.5 16.9795 31.5 17C31.5 19.4703 29.5094 21.4758 27.0448 21.4998C29.4851 21.4752 31.4669 19.4442 31.4996 16.9385Z" fill="#00ABEE"/>
<path opacity="0.3" d="M23.9998 38.1631H28.9998V40.1268H23.9998V38.1631Z" fill="#00ABEE"/>
<path d="M28.2002 37.1816C29.1942 37.1817 29.9999 37.9875 30 38.9814V45.1992C30 46.1933 29.1942 46.9989 28.2002 46.999H24.7998C23.8058 46.9989 23 46.1933 23 45.1992V38.9814C23.0001 37.9875 23.8058 37.1817 24.7998 37.1816H28.2002ZM24.4902 45.0371C24.2194 45.0373 24.0001 45.2565 24 45.5273C24 45.7983 24.2193 46.0183 24.4902 46.0186H26.5088C26.7799 46.0186 27 45.7985 27 45.5273C26.9999 45.2563 26.7798 45.0371 26.5088 45.0371H24.4902ZM28.5 45.0371C28.2239 45.0371 28.0001 45.2563 28 45.5273C28 45.7985 28.2239 46.0186 28.5 46.0186C28.7761 46.0186 29 45.7985 29 45.5273C28.9999 45.2563 28.7761 45.0371 28.5 45.0371ZM24.5 43.0732C24.2239 43.0732 24 43.2933 24 43.5645C24.0002 43.8354 24.224 44.0547 24.5 44.0547C24.7759 44.0546 24.9998 43.8353 25 43.5645C25 43.2934 24.776 43.0734 24.5 43.0732ZM26.5 43.0732C26.2239 43.0732 26 43.2933 26 43.5645C26.0002 43.8354 26.224 44.0547 26.5 44.0547C26.776 44.0547 26.9998 43.8354 27 43.5645C27 43.2933 26.7761 43.0732 26.5 43.0732ZM28.5 43.0732C28.2239 43.0732 28 43.2933 28 43.5645C28.0002 43.8354 28.224 44.0547 28.5 44.0547C28.776 44.0547 28.9998 43.8354 29 43.5645C29 43.2933 28.7761 43.0732 28.5 43.0732ZM24.5 41.1084C24.2239 41.1084 24 41.3285 24 41.5996C24 41.8707 24.2239 42.0908 24.5 42.0908C24.776 42.0907 25 41.8706 25 41.5996C25 41.3286 24.776 41.1085 24.5 41.1084ZM26.5 41.1084C26.2239 41.1084 26 41.3285 26 41.5996C26 41.8707 26.2239 42.0908 26.5 42.0908C26.7761 42.0908 27 41.8707 27 41.5996C27 41.3285 26.7761 41.1084 26.5 41.1084ZM28.5 41.1084C28.2239 41.1084 28 41.3285 28 41.5996C28 41.8707 28.2239 42.0908 28.5 42.0908C28.7761 42.0908 29 41.8707 29 41.5996C29 41.3285 28.7761 41.1084 28.5 41.1084ZM24 38.1641V40.1279H29V38.1641H24Z" fill="#00ABEE"/>
<rect width="0.499999" height="7.85429" rx="0.25" transform="matrix(1 8.58305e-08 8.90446e-08 -1 30.5 46.0186)" fill="#00ABEE"/>
<path opacity="0.3" d="M25.3647 38C24.7338 37.9999 24.2224 37.4884 24.2222 36.8574L24.2222 36.1426C24.2223 35.5116 24.7337 35.0001 25.3647 35L26.7612 35L26.7612 38L25.3647 38ZM27.7144 35.0176C28.2545 35.1085 28.6664 35.5766 28.6665 36.1426L28.6665 36.8574C28.6663 37.4234 28.2546 37.8926 27.7144 37.9834L27.7144 35.0176Z" fill="#00ABEE"/>
<path d="M29.0723 24.1563C29.3169 23.948 29.7136 23.9478 29.9581 24.1563L31.837 25.7598C32.081 25.9684 32.081 26.3062 31.837 26.5147C31.5924 26.7233 31.1958 26.7232 30.9512 26.5147L30.1407 25.8233L30.1407 29.3838C30.1405 29.7295 29.8604 30.0096 29.5147 30.0098C29.1691 30.0097 28.8879 29.7295 28.8878 29.3838L28.8878 25.8243L28.0792 26.5147C27.8346 26.7233 27.438 26.7233 27.1934 26.5147C26.9489 26.3061 26.9489 25.9684 27.1934 25.7598L29.0723 24.1563Z" fill="#00ABEE"/>
<path d="M24.9477 29.8534C24.7031 30.0618 24.3064 30.062 24.0619 29.8534L22.184 28.2508C21.9394 28.0422 21.9394 27.7036 22.184 27.495C22.4285 27.2867 22.8243 27.2868 23.0688 27.495L23.8793 28.1874L23.8793 24.6258C23.8796 24.2803 24.1597 24 24.5053 23.9999C24.8509 23.9999 25.1319 24.2803 25.1322 24.6258L25.1322 28.1854L25.9408 27.495C26.1853 27.2864 26.582 27.2866 26.8266 27.495C27.0712 27.7036 27.0712 28.0422 26.8266 28.2508L24.9477 29.8534Z" fill="#00ABEE"/>
<path opacity="0.3" fill-rule="evenodd" clip-rule="evenodd" d="M53.3333 5.72949C51.7513 5.72949 50.4688 7.01201 50.4688 8.59408V46.4066C50.4688 47.9886 51.7513 49.2712 53.3333 49.2712H71.6667C73.2487 49.2712 74.5312 47.9886 74.5312 46.4066V8.59408C74.5312 7.01201 73.2487 5.72949 71.6667 5.72949H53.3333Z" fill="#00ABEE" fill-opacity="0.2"/>
<path d="M71.667 2.29199C75.1473 2.29217 77.9686 5.11346 77.9688 8.59375V46.4062C77.9688 49.8867 75.1474 52.7088 71.667 52.709H53.333C49.8526 52.7088 47.0312 49.8867 47.0312 46.4062V8.59375C47.0314 5.11346 49.8527 2.29217 53.333 2.29199H71.667ZM55.625 5.72949H53.333C51.7512 5.72967 50.4689 7.01194 50.4688 8.59375V46.4062C50.4688 47.9882 51.7511 49.2713 53.333 49.2715H71.667C73.2489 49.2713 74.5312 47.9882 74.5312 46.4062V8.59375C74.5311 7.01194 73.2488 5.72967 71.667 5.72949H69.375V7.79395C69.375 8.23571 69.0169 8.59364 68.5752 8.59375H56.4248C55.9831 8.59364 55.625 8.23571 55.625 7.79395V5.72949Z" fill="#00ABEE"/>
<path d="M64.0721 24.1563C64.3167 23.9479 64.7133 23.9479 64.9579 24.1563L66.8368 25.7599C67.081 25.9685 67.0811 26.3062 66.8368 26.5147C66.5922 26.7234 66.1956 26.7234 65.951 26.5147L65.1415 25.8233L65.1415 29.3839C65.1413 29.7294 64.861 30.0095 64.5155 30.0099C64.1697 30.0099 63.8887 29.7296 63.8885 29.3839L63.8885 25.8243L63.079 26.5147C62.8344 26.7234 62.4378 26.7234 62.1932 26.5147C61.9489 26.3062 61.949 25.9685 62.1932 25.7599L64.0721 24.1563Z" fill="#00ABEE"/>
<path d="M59.9477 29.8534C59.7031 30.0618 59.3064 30.062 59.0619 29.8534L57.184 28.2508C56.9394 28.0422 56.9394 27.7036 57.184 27.495C57.4285 27.2867 57.8243 27.2868 58.0688 27.495L58.8793 28.1874L58.8793 24.6258C58.8796 24.2803 59.1597 24 59.5053 23.9999C59.8509 23.9999 60.1319 24.2803 60.1322 24.6258L60.1322 28.1854L60.9408 27.495C61.1853 27.2864 61.582 27.2866 61.8266 27.495C62.0712 27.7036 62.0712 28.0422 61.8266 28.2508L59.9477 29.8534Z" fill="#00ABEE"/>
<path opacity="0.3" d="M58.948 37.6982H64.1043V39.7609H58.948V37.6982Z" fill="#00ABEE"/>
<path d="M63.3357 36.667C64.3297 36.6671 65.1354 37.4728 65.1355 38.4668V45.1797C65.1354 46.1736 64.3297 46.9794 63.3357 46.9795H59.7166C58.7226 46.9794 57.9169 46.1736 57.9167 45.1797V38.4668C57.9169 37.4728 58.7226 36.6671 59.7166 36.667H63.3357ZM59.4636 44.917C59.1789 44.917 58.9481 45.1479 58.948 45.4326C58.948 45.7174 59.1789 45.9482 59.4636 45.9482H61.5261C61.8108 45.9482 62.0417 45.7174 62.0417 45.4326C62.0416 45.148 61.8108 44.9171 61.5261 44.917H59.4636ZM63.5886 44.917C63.3039 44.917 63.0731 45.1479 63.073 45.4326C63.073 45.7174 63.3039 45.9482 63.5886 45.9482C63.8734 45.9482 64.1042 45.7174 64.1042 45.4326C64.1041 45.1479 63.8733 44.917 63.5886 44.917ZM59.4636 42.8545C59.1789 42.8545 58.948 43.0853 58.948 43.3701C58.9481 43.6548 59.1789 43.8857 59.4636 43.8857C59.7483 43.8857 59.9792 43.6548 59.9792 43.3701C59.9792 43.0854 59.7483 42.8546 59.4636 42.8545ZM61.5261 42.8545C61.2414 42.8545 61.0105 43.0853 61.0105 43.3701C61.0106 43.6548 61.2414 43.8857 61.5261 43.8857C61.8108 43.8857 62.0417 43.6548 62.0417 43.3701C62.0417 43.0854 61.8109 42.8545 61.5261 42.8545ZM63.5886 42.8545C63.3039 42.8545 63.073 43.0853 63.073 43.3701C63.0731 43.6548 63.3039 43.8857 63.5886 43.8857C63.8734 43.8857 64.1042 43.6548 64.1042 43.3701C64.1042 43.0853 63.8734 42.8545 63.5886 42.8545ZM59.4636 40.792C59.1789 40.792 58.9481 41.0229 58.948 41.3076C58.948 41.5924 59.1789 41.8232 59.4636 41.8232C59.7483 41.8232 59.9792 41.5924 59.9792 41.3076C59.9792 41.0229 59.7483 40.7921 59.4636 40.792ZM61.5261 40.792C61.2414 40.792 61.0106 41.0229 61.0105 41.3076C61.0105 41.5924 61.2414 41.8232 61.5261 41.8232C61.8109 41.8232 62.0417 41.5924 62.0417 41.3076C62.0417 41.0229 61.8108 40.792 61.5261 40.792ZM63.5886 40.792C63.3039 40.792 63.0731 41.0229 63.073 41.3076C63.073 41.5924 63.3039 41.8232 63.5886 41.8232C63.8734 41.8232 64.1042 41.5924 64.1042 41.3076C64.1042 41.0229 63.8734 40.792 63.5886 40.792ZM58.948 37.6982V39.7607H64.1042V37.6982H58.948Z" fill="#00ABEE"/>
<rect width="0.515624" height="8.25" rx="0.257812" transform="matrix(1 8.74228e-08 8.74228e-08 -1 65.6511 45.9482)" fill="#00ABEE"/>
<path opacity="0.3" d="M60.3201 37.5264C59.689 37.5264 59.1776 37.0148 59.1775 36.3838L59.1775 35.5186C59.1775 34.8874 59.6889 34.375 60.3201 34.375L61.7957 34.375L61.7957 37.5264L60.3201 37.5264ZM62.7781 34.3877C63.3332 34.4658 63.7605 34.9419 63.7605 35.5186L63.7605 36.3838C63.7604 36.9604 63.3332 37.4366 62.7781 37.5146L62.7781 34.3877Z" fill="#00ABEE"/>
<path d="M64.8024 16.5438C64.5566 16.5438 64.3573 16.3426 64.3573 16.0944C64.3572 15.8461 64.5564 15.6448 64.8022 15.6448C65.048 15.6447 65.2473 15.8459 65.2473 16.0942C65.2471 16.3423 65.0481 16.5434 64.8024 16.5438ZM59.884 16.5438C59.6382 16.5438 59.4389 16.3426 59.4388 16.0944C59.4388 15.8461 59.638 15.6448 59.8838 15.6448C60.1296 15.6447 60.3288 15.8459 60.3289 16.0942C60.3287 16.3423 60.1296 16.5434 59.884 16.5438ZM64.962 13.8364L65.8513 12.2806C65.9024 12.1912 65.8722 12.0769 65.7837 12.0252C65.6952 11.9736 65.582 12.0041 65.5309 12.0935L64.6303 13.6689C63.9417 13.3515 63.1683 13.1747 62.3431 13.1747C61.5179 13.1747 60.7446 13.3517 60.0559 13.6689L59.1555 12.0935C59.1044 12.0041 58.9913 11.9735 58.9028 12.0251C58.8143 12.0767 58.7839 12.191 58.835 12.2803L59.7244 13.8364C58.1973 14.6753 57.1528 16.2368 57 18.0817H67.6864C67.5334 16.2368 66.489 14.6753 64.962 13.8364Z" fill="#00ABEE"/>
</svg>
