<svg width="48" height="48" viewBox="0 0 48 48" fill="none" xmlns="http://www.w3.org/2000/svg">
<path opacity="0.3" d="M26.3232 4C27.4278 4 28.3232 4.89543 28.3232 6V9.5791C29.1254 9.83823 29.8998 10.159 30.6396 10.5381L31.0635 10.1133C31.9508 13.4339 34.5643 16.0468 37.8848 16.9346L37.46 17.3604C37.8392 18.1006 38.1608 18.8751 38.4199 19.6777H42C43.1045 19.6778 44 20.5732 44 21.6777V27.3252C43.9998 28.4295 43.1044 29.3251 42 29.3252H38.418C38.1591 30.1258 37.8383 30.8983 37.46 31.6367L39.9922 34.1689C40.7732 34.9499 40.7731 36.216 39.9922 36.9971L35.999 40.9902C35.218 41.7713 33.9519 41.7713 33.1709 40.9902L30.6387 38.458C29.899 38.837 29.1253 39.1589 28.3232 39.418V43C28.323 44.1044 27.4277 45 26.3232 45H20.6768C19.5723 45 18.677 44.1044 18.6768 43V39.418C17.8744 39.1588 17.1003 38.8372 16.3604 38.458L13.8291 40.9902C13.0481 41.7713 11.782 41.7713 11.001 40.9902L7.00781 36.9971C6.22691 36.216 6.22681 34.9499 7.00781 34.1689L9.53906 31.6367C9.16081 30.8984 8.84081 30.1256 8.58203 29.3252H5C3.89556 29.3252 3.00022 28.4296 3 27.3252V21.6777C3 20.5732 3.89543 19.6777 5 19.6777H8.58008C8.8392 18.8752 9.15987 18.1005 9.53906 17.3604L7.00781 14.8291C6.22691 14.048 6.22681 12.782 7.00781 12.001L11.001 8.00781C11.782 7.22696 13.0481 7.22697 13.8291 8.00781L16.3594 10.5381C17.0994 10.1588 17.8743 9.83833 18.6768 9.5791V6C18.6768 4.89543 19.5722 4 20.6768 4H26.3232ZM23.5 14.8525C18.1721 14.8525 13.8525 19.1721 13.8525 24.5C13.8527 29.8277 18.1722 34.1465 23.5 34.1465C28.8277 34.1464 33.1463 29.8277 33.1465 24.5C33.1465 19.1721 28.8279 14.8526 23.5 14.8525Z" fill="#00ABEE"/>
<path d="M38 2C42.4183 2 46 5.58172 46 10C46 14.4183 42.4183 18 38 18C33.5817 18 30 14.4183 30 10C30 5.58172 33.5817 2 38 2ZM42.9463 6.61523C42.6234 6.31386 42.1169 6.33157 41.8154 6.6543L36.7383 12.0938L34.5205 10.1934C34.1851 9.9059 33.6802 9.94409 33.3926 10.2793C33.105 10.6148 33.144 11.1207 33.4795 11.4082L36.2793 13.8076C36.6048 14.0866 37.0923 14.0595 37.3848 13.7461L42.9844 7.74609C43.2858 7.42312 43.2692 6.91671 42.9463 6.61523Z" fill="#00ABEE"/>
</svg>
