<svg width="48" height="48" viewBox="0 0 48 48" fill="none" xmlns="http://www.w3.org/2000/svg">
<path opacity="0.3" fill-rule="evenodd" clip-rule="evenodd" d="M21.2938 4C20.1893 4 19.2938 4.89543 19.2938 6V9.4424C18.5111 9.69526 17.756 10.0095 17.0341 10.3795L14.5993 7.94473C13.8183 7.16368 12.552 7.16368 11.7709 7.94472L7.94415 11.7715C7.1631 12.5525 7.1631 13.8189 7.94415 14.5999L10.3794 17.0351C10.0095 17.7572 9.69527 18.5126 9.4425 19.2955H5.99963C4.89506 19.2955 3.99963 20.1909 3.99963 21.2955V26.7074C3.99963 27.8119 4.89506 28.7074 5.99963 28.7074H9.44409C9.69667 29.4888 10.0104 30.2427 10.3797 30.9634L7.94415 33.399C7.1631 34.18 7.1631 35.4464 7.94415 36.2274L11.7709 40.0542C12.552 40.8352 13.8183 40.8352 14.5993 40.0542L17.0347 37.6188C17.7564 37.9886 18.5113 38.3027 19.2938 38.5555V42C19.2938 43.1046 20.1893 44 21.2938 44H26.7057C27.8103 44 28.7057 43.1046 28.7057 42V38.5556C29.4883 38.3028 30.2432 37.9887 30.965 37.6188L33.4003 40.0542C34.1814 40.8352 35.4477 40.8352 36.2287 40.0542L40.0555 36.2274C40.8366 35.4464 40.8366 34.18 40.0555 33.399L37.62 30.9635C37.9894 30.2427 38.3031 29.4888 38.5557 28.7074H41.9999C43.1044 28.7074 43.9999 27.8119 43.9999 26.7074V21.2955C43.9999 20.1909 43.1044 19.2955 41.9999 19.2955H38.5573C38.3045 18.5125 37.9903 17.7571 37.6204 17.035L40.0555 14.5999C40.8366 13.8189 40.8366 12.5525 40.0555 11.7715L36.2287 7.94473C35.4477 7.16368 34.1814 7.16368 33.4003 7.94472L30.9656 10.3794C30.2437 10.0094 29.4885 9.69517 28.7057 9.4423V6C28.7057 4.89543 27.8103 4 26.7057 4H21.2938ZM33.4115 23.9998C33.4115 29.1978 29.1977 33.4117 23.9996 33.4117C18.8016 33.4117 14.5878 29.1978 14.5878 23.9998C14.5878 18.8018 18.8016 14.5879 23.9996 14.5879C29.1977 14.5879 33.4115 18.8018 33.4115 23.9998Z" fill="#00ABEE"/>
</svg>