<svg width="29" height="44" viewBox="0 0 29 44" fill="none" xmlns="http://www.w3.org/2000/svg">
<path opacity="0.3" d="M3.6001 11.5996H21.6001V18.8H3.6001V11.5996Z" fill="#00ABEE"/>
<path d="M23.4004 8C24.3943 8.00021 25.2001 8.80591 25.2002 9.7998V42.2002C25.2001 43.1941 24.3943 43.9998 23.4004 44H1.7998C0.805846 43.9999 0.000105481 43.1942 0 42.2002V9.7998C0.000104612 8.80585 0.805846 8.00011 1.7998 8H23.4004ZM5.40039 36.7998C4.40641 36.7998 3.59982 37.6057 3.59961 38.5996C3.59961 39.5937 4.40628 40.4004 5.40039 40.4004H12.5996C13.5937 40.4004 14.4004 39.5937 14.4004 38.5996C14.4002 37.6057 13.5936 36.7998 12.5996 36.7998H5.40039ZM19.7998 36.7998C18.8059 36.7999 18.0002 37.6057 18 38.5996C18 39.5936 18.8058 40.4003 19.7998 40.4004C20.7939 40.4004 21.5996 39.5937 21.5996 38.5996C21.5994 37.6057 20.7938 36.7998 19.7998 36.7998ZM5.40039 29.5996C4.40634 29.5996 3.59971 30.4054 3.59961 31.3994C3.59961 32.3935 4.40628 33.1992 5.40039 33.1992C6.39431 33.199 7.2002 32.3934 7.2002 31.3994C7.20009 30.4055 6.39425 29.5998 5.40039 29.5996ZM12.5996 29.5996C11.6058 29.5998 10.7999 30.4055 10.7998 31.3994C10.7998 32.3934 11.6057 33.199 12.5996 33.1992C13.5937 33.1992 14.4004 32.3935 14.4004 31.3994C14.4003 30.4054 13.5937 29.5996 12.5996 29.5996ZM19.7998 29.5996C18.8058 29.5997 18.0001 30.4055 18 31.3994C18 32.3935 18.8058 33.1991 19.7998 33.1992C20.7939 33.1992 21.5996 32.3935 21.5996 31.3994C21.5995 30.4054 20.7939 29.5996 19.7998 29.5996ZM5.40039 22.4004C4.40634 22.4004 3.59971 23.2062 3.59961 24.2002C3.59961 25.1943 4.40628 26 5.40039 26C6.39431 25.9998 7.2002 25.1942 7.2002 24.2002C7.20009 23.2063 6.39425 22.4006 5.40039 22.4004ZM12.5996 22.4004C11.6058 22.4006 10.7999 23.2063 10.7998 24.2002C10.7998 25.1942 11.6057 25.9998 12.5996 26C13.5937 26 14.4004 25.1943 14.4004 24.2002C14.4003 23.2062 13.5937 22.4004 12.5996 22.4004ZM19.7998 22.4004C18.8058 22.4005 18.0001 23.2062 18 24.2002C18 25.1942 18.8058 25.9999 19.7998 26C20.7939 26 21.5996 25.1943 21.5996 24.2002C21.5995 23.2062 20.7939 22.4004 19.7998 22.4004ZM3.59961 11.5996V18.7998H21.5996V11.5996H3.59961Z" fill="#00ABEE"/>
<rect width="1.8" height="28.8" rx="0.899999" transform="matrix(1 8.74228e-08 8.74228e-08 -1 27 40.4004)" fill="#00ABEE"/>
<path opacity="0.3" d="M16.9712 2.99747e-07L19.2573 9.98874e-08C19.8883 0.000150725 20.3998 0.511617 20.3999 1.14258L20.3999 9.85742C20.3997 10.4884 19.8883 10.9998 19.2573 11L16.9712 11L16.9712 2.99747e-07ZM5.54248 11C4.91152 10.9998 4.40005 10.4884 4.3999 9.85742L4.3999 1.14258C4.40005 0.511618 4.91152 0.000152988 5.54248 1.29888e-06L13.5425 5.99495e-07L13.5425 11L5.54248 11Z" fill="#00ABEE"/>
</svg>
