<svg width="48" height="48" viewBox="0 0 48 48" fill="none" xmlns="http://www.w3.org/2000/svg">
<path fill-rule="evenodd" clip-rule="evenodd" d="M15.8239 33.3658C11.4744 35.0215 8.44606 38.1767 8.00116 42.7989C7.96362 43.1888 8.84749 44.0001 9.29334 44.0001H38.6608C39.9963 44.0001 40.017 43.0933 39.9963 42.8001C39.6602 38.052 36.6307 34.9354 32.2376 33.3213C29.9262 35.006 27.0792 36.0001 24 36.0001C20.9481 36.0001 18.1242 35.0235 15.8239 33.3658Z" fill="#00ABEE"/>
<path opacity="0.3" fill-rule="evenodd" clip-rule="evenodd" d="M14.4007 27.3756C16.2843 30.732 19.8773 33 24 33C28.1227 33 31.7157 30.732 33.5993 27.3756C33.217 26.6689 33 25.8598 33 25V19C33 18.1393 33.2175 17.3305 33.5994 16.6247C32.4258 14.5332 30.5884 12.8643 28.3727 11.9034C27.0319 11.3221 25.5532 11 24 11C23.9993 11 23.9986 11 23.9979 11C19.876 11.0008 16.2838 13.2687 14.4005 16.6247C14.7825 17.3305 15 18.1393 15 19V25C15 25.8598 14.783 26.6689 14.4007 27.3756Z" fill="#00ABEE"/>
<path opacity="0.3" fill-rule="evenodd" clip-rule="evenodd" d="M38 22H42C42 12.0589 33.9411 4 24 4C14.0589 4 6 12.0589 6 22H10C10 14.268 16.268 8 24 8C31.732 8 38 14.268 38 22Z" fill="#00ABEE"/>
<path fill-rule="evenodd" clip-rule="evenodd" d="M5 19C5 17.8954 5.89543 17 7 17H10C11.1046 17 12 17.8954 12 19V25C12 26.1046 11.1046 27 10 27H7C5.89543 27 5 26.1046 5 25V19ZM36 19C36 17.8954 36.8954 17 38 17H41C42.1046 17 43 17.8954 43 19V25C43 26.1046 42.1046 27 41 27H39.4207C37.0742 29.28 31.4712 32.2364 24.8271 28.8215C24.575 28.9362 24.295 29 24 29C22.8954 29 22 28.1046 22 27C22 25.8954 22.8954 25 24 25C25.1046 25 26 25.8954 26 27C26 27.0566 25.9976 27.1126 25.993 27.168C30.5682 29.3965 34.481 28.1181 36.7707 26.5777C36.3016 26.2117 36 25.6411 36 25V19Z" fill="#00ABEE"/>
</svg>
