<svg width="48" height="48" viewBox="0 0 48 48" fill="none" xmlns="http://www.w3.org/2000/svg">
<path opacity="0.3" fill-rule="evenodd" clip-rule="evenodd" d="M16 5C14.6193 5 13.5 6.11929 13.5 7.5V40.5C13.5 41.8807 14.6193 43 16 43H32C33.3807 43 34.5 41.8807 34.5 40.5V7.5C34.5 6.11929 33.3807 5 32 5H16Z" fill="#00ABEE"/>
<path fill-rule="evenodd" clip-rule="evenodd" d="M16 2H32C35.0376 2 37.5 4.46243 37.5 7.5V40.5C37.5 43.5376 35.0376 46 32 46H16C12.9624 46 10.5 43.5376 10.5 40.5V7.5C10.5 4.46243 12.9624 2 16 2ZM16 5C14.6193 5 13.5 6.11929 13.5 7.5V40.5C13.5 41.8807 14.6193 43 16 43H32C33.3807 43 34.5 41.8807 34.5 40.5V7.5C34.5 6.11929 33.3807 5 32 5H30V6.7C30 7.14183 29.6418 7.5 29.2 7.5H18.8C18.3582 7.5 18 7.14183 18 6.7V5H16Z" fill="#00ABEE"/>
<path fill-rule="evenodd" clip-rule="evenodd" d="M22.8577 24.108C23.3437 23.6464 23.3437 22.8981 22.8577 22.4366L21.248 20.9079L30 20.9079C30.5523 20.9079 31 20.4602 31 19.9079L31 19.5443C31 19.0568 30.6512 18.6508 30.1895 18.5622C30.0465 18.5505 29.9018 18.5445 29.7555 18.5445L21.2494 18.5445L22.8577 17.017C23.3437 16.5555 23.3437 15.8072 22.8577 15.3457C22.3718 14.8842 21.5838 14.8842 21.0978 15.3457L17.3645 18.8912C16.8785 19.3527 16.8785 20.101 17.3645 20.5625L21.0978 24.108C21.5838 24.5695 22.3718 24.5695 22.8577 24.108Z" fill="#00ABEE"/>
<path fill-rule="evenodd" clip-rule="evenodd" d="M25.1423 25.3461C24.6563 25.8077 24.6563 26.556 25.1423 27.0175L26.752 28.5462L18 28.5462C17.4477 28.5462 17 28.9939 17 29.5462L17 29.9098C17 30.3973 17.3488 30.8033 17.8105 30.8919C17.9535 30.9036 18.0982 30.9096 18.2445 30.9096L26.7506 30.9096L25.1423 32.4371C24.6563 32.8986 24.6563 33.6469 25.1423 34.1084C25.6282 34.5699 26.4162 34.5699 26.9022 34.1084L30.6355 30.5629C31.1215 30.1014 31.1215 29.3531 30.6355 28.8916L26.9022 25.3461C26.4162 24.8846 25.6282 24.8846 25.1423 25.3461Z" fill="#00ABEE"/>
</svg>
