<?xml version="1.0" encoding="UTF-8"?>
<svg xmlns="http://www.w3.org/2000/svg" version="1.1" viewBox="0 0 339.9 308.1">
  <defs>
    <style>
      .cls-1 {
        fill: #009cde;
      }
    </style>
  </defs>
  <!-- Generator: Adobe Illustrator 28.7.1, SVG Export Plug-In . SVG Version: 1.2.0 Build 142)  -->
  <g>
    <g id="Layer_1">
      <g id="Livello_2">
        <g id="Livello_1-2">
          <g>
            <path class="cls-1" d="M158.5,69.5c-19.8-19.8-38.8-38.7-44.4-60.1-5.6,21.3-24.6,40.2-44.4,60.1-29.8,29.7-63.5,63.4-63.5,114s48.3,107.9,107.9,107.9,107.9-48.3,107.9-107.9-33.7-84.2-63.5-114M52,208.6c-6.6-.2-31-42.3,14.3-87.1l30,32.7c1,1,1,2.6,0,3.6,0,0-.1.1-.2.2-7.2,7.3-37.6,37.9-41.4,48.5-.8,2.2-1.9,2.1-2.6,2.1M114.1,264.1c-20.5,0-37.1-16.6-37.1-37.1h0c0-9.4,3.7-17.8,9.2-24.5,6.7-8.2,27.9-31.2,27.9-31.2,0,0,20.8,23.4,27.8,31.1,6.1,6.7,9.4,15.5,9.3,24.6,0,20.5-16.6,37.1-37.1,37.1M185.1,203.9c-.8,1.7-2.6,4.7-5.1,4.8-4.4.2-4.8-2.1-8.1-6.9-7.1-10.5-68.9-75.1-80.5-87.6-10.2-11-1.4-18.7,2.6-22.8,5.1-5.1,19.9-19.9,19.9-19.9,0,0,44.3,42,62.7,70.7s12.1,53.5,8.3,61.7"/>
            <g>
              <path class="cls-1" d="M215.5,255.1c1.3-.5,2.6-1.1,3.9-1.8,1.4-.7,2.7-1.4,4-2.2,1.3-.8,2.5-1.6,3.7-2.5,1.2-.9,2.3-1.8,3.2-2.8h6.8v45h-9.7v-32.4c-1.3.9-2.8,1.7-4.4,2.4-1.6.7-3.2,1.3-4.7,1.9l-2.9-7.5Z"/>
              <path class="cls-1" d="M282.6,268.2c0,7.6-1.4,13.4-4.3,17.5-2.9,4.1-6.9,6.1-11.9,6.1s-9-2-11.9-6.1-4.3-9.9-4.3-17.5.4-7.1,1.1-10c.8-2.9,1.9-5.4,3.3-7.3s3.1-3.5,5.1-4.5,4.2-1.6,6.7-1.6c5.1,0,9,2,11.9,6.1,2.9,4.1,4.3,9.8,4.3,17.4ZM272.7,268.2c0-2.3-.1-4.3-.3-6.1-.2-1.8-.6-3.4-1-4.8-.5-1.3-1.1-2.4-2-3.1-.8-.7-1.8-1.1-3.1-1.1s-2.2.4-3,1.1c-.8.7-1.5,1.8-2,3.1-.5,1.3-.9,2.9-1.1,4.8-.2,1.8-.3,3.9-.3,6.1s.1,4.3.3,6.2c.2,1.9.6,3.5,1.1,4.8.5,1.3,1.1,2.4,2,3.1.8.7,1.8,1.1,3,1.1s2.2-.4,3.1-1.1c.8-.7,1.5-1.8,2-3.1.5-1.3.8-2.9,1-4.8s.3-3.9.3-6.2Z"/>
              <path class="cls-1" d="M298.9,285.6c0,2-.6,3.4-1.9,4.5s-2.6,1.5-4.2,1.5-3-.5-4.2-1.5c-1.2-1-1.9-2.5-1.9-4.5s.6-3.4,1.9-4.5c1.2-1,2.6-1.5,4.2-1.5s3,.5,4.2,1.5c1.2,1,1.9,2.5,1.9,4.5Z"/>
              <path class="cls-1" d="M335.5,268.2c0,7.6-1.4,13.4-4.3,17.5-2.9,4.1-6.9,6.1-11.9,6.1s-9-2-11.9-6.1-4.3-9.9-4.3-17.5.4-7.1,1.1-10c.8-2.9,1.9-5.4,3.3-7.3s3.1-3.5,5.1-4.5,4.2-1.6,6.7-1.6c5.1,0,9,2,11.9,6.1,2.9,4.1,4.3,9.8,4.3,17.4ZM325.6,268.2c0-2.3-.1-4.3-.3-6.1-.2-1.8-.6-3.4-1-4.8-.5-1.3-1.1-2.4-2-3.1-.8-.7-1.8-1.1-3.1-1.1s-2.2.4-3,1.1c-.8.7-1.5,1.8-2,3.1-.5,1.3-.9,2.9-1.1,4.8-.2,1.8-.3,3.9-.3,6.1s.1,4.3.3,6.2c.2,1.9.6,3.5,1.1,4.8.5,1.3,1.1,2.4,2,3.1.8.7,1.8,1.1,3,1.1s2.2-.4,3.1-1.1c.8-.7,1.5-1.8,2-3.1.5-1.3.8-2.9,1-4.8s.3-3.9.3-6.2Z"/>
            </g>
          </g>
        </g>
      </g>
    </g>
  </g>
</svg>