<svg width="119" height="119" viewBox="0 0 119 119" fill="none" xmlns="http://www.w3.org/2000/svg">
<g clip-path="url(#clip0_5976_5986)">
<rect width="119" height="119" rx="20" fill="#A3DBE8"/>
<path d="M58.9756 22C63.9752 22 68.4447 22.8335 72.3838 24.5C76.3985 26.0908 79.5804 28.212 81.9287 30.8633C84.2768 33.4387 86.0566 36.2792 87.2686 39.3848C88.5563 42.4906 89.2002 45.6724 89.2002 48.9297C89.2002 52.187 88.5563 55.3688 87.2686 58.4746C86.0566 61.5803 84.2769 64.4591 81.9287 67.1104C79.5804 69.6859 76.3986 71.8071 72.3838 73.4736C68.4447 75.0644 63.9752 75.8603 58.9756 75.8604H49.8848V97.5635H30V22H58.9756ZM49.5928 58.9922L51.085 64.1035H65.1514C65.8449 64.1035 66.4336 63.8623 66.916 63.3799C67.4285 62.8673 67.6846 62.2638 67.6846 61.5703C67.6845 60.8469 67.4284 60.244 66.916 59.7617C66.4336 59.2491 65.8449 58.9922 65.1514 58.9922H49.5928ZM62.0762 52.751L63.5684 57.8623H68.7705C69.4941 57.8623 70.0967 57.6201 70.5791 57.1377C71.0917 56.6251 71.3486 56.0226 71.3486 55.3291C71.3486 54.6054 71.0917 54.002 70.5791 53.5195C70.0967 53.0072 69.494 52.751 68.7705 52.751H62.0762ZM49.502 46.5088L50.9941 51.6201H64.8809C65.5742 51.62 66.1622 51.3788 66.6445 50.8965C67.1571 50.3839 67.4131 49.7805 67.4131 49.0869C67.413 48.3634 67.1569 47.7607 66.6445 47.2783C66.1622 46.7658 65.5742 46.5089 64.8809 46.5088H49.502ZM47.3311 40.2666L45.8379 45.3779H51.9893C52.6828 45.3779 53.2714 45.1368 53.7539 44.6543C54.2664 44.1417 54.5225 43.5382 54.5225 42.8447C54.5223 42.1213 54.2663 41.5185 53.7539 41.0361C53.2714 40.5235 52.6828 40.2666 51.9893 40.2666H47.3311ZM51.085 34.0254L49.5928 39.1367H65.1514C65.8449 39.1367 66.4336 38.8946 66.916 38.4121C67.4284 37.8996 67.6845 37.2968 67.6846 36.6035C67.6846 35.8798 67.4286 35.2764 66.916 34.7939C66.4336 34.2813 65.8449 34.0254 65.1514 34.0254H51.085Z" fill="black"/>
</g>
<defs>
<clipPath id="clip0_5976_5986">
<rect width="119" height="119" fill="white"/>
</clipPath>
</defs>
</svg>
