<?xml version="1.0" encoding="utf-8"?>
<!-- Generator: Adobe Illustrator 27.0.1, SVG Export Plug-In . SVG Version: 6.00 Build 0)  -->
<svg version="1.1" id="Layer_1" xmlns="http://www.w3.org/2000/svg" xmlns:xlink="http://www.w3.org/1999/xlink" x="0px" y="0px"
	 viewBox="0 0 447.98389 218.04733" style="enable-background:new 0 0 447.98389 218.04733;" xml:space="preserve">
<style type="text/css">
	.st0{fill:#FFFFFF;}
	.st1{fill:url(#SVGID_1_);}
</style>
<g>
	<g id="_x23_ffffffff">
		<path class="st0" d="M224.02139,51.00158c16.08-1.45,33.13998,2.62,45.43997,13.44001
			c3.21002,3.17999,3.82001,8.59,1.21002,12.31999c-3.01001,4.83-10.36002,5.8-14.62,2.08
			c-7.34999-5.95999-16.56999-9.98-26.16-9.73999c-10.67999-0.31001-21.22,4.67-28.01999,12.84999
			c-11.08,13.16-12.31001,33.23-4.02,48.12c5.12,9.25,14.38,16.17999,24.81999,18.10999
			c9.62001,1.66,19.96001,0.11002,28.27-5.17999c3.09-1.76001,5.62999-4.32001,8.61998-6.20999
			c4.58002-2.64001,10.78-0.06,12.77002,4.66998c1.62997,3.34,0.60999,7.5-1.95001,10.09
			c-22.00999,21.42001-61.50998,21.07001-82.64998-1.42999c-19.24001-19.51001-21.41-52.71999-5.76001-75.01998
			C191.36139,61.19158,207.35139,52.29157,224.02139,51.00158z"/>
		<path class="st0" d="M95.63139,54.75158c5.95-5.71001,17.36-4.02,20.85001,3.67999c14.36,31.67002,28.47,63.46003,42.76999,95.16
			c2.48001,4.45001-0.12,10.42001-4.70999,12.25c-4.66,2.01001-10.61-0.26999-12.53-5.03
			c-12.43001-28.35001-24.67-56.77999-37.12-85.13c-6.65,15.36-13.29,30.72-20.01,46.05002c6.68-0.04001,13.37-0.08002,20.06,0
			c2.54,5.89999,5.14,11.76998,7.62,17.69997c-11.76999-0.10999-23.53999,0.02002-35.3-0.07999c-3.21,7.19-6.17,14.48999-9.49,21.63
			c-1.92,3.94-6.48,6.32999-10.82,5.41998c-5.69-0.91-9.45-7.87-6.74-13.04999c13.27-29.43999,26.44-58.93,39.68-88.38
			C91.5714,61.46158,92.72139,57.50158,95.63139,54.75158z"/>
		<path class="st0" d="M331.03137,59.07158c3.03-7.62001,13.54001-9.93001,19.95999-5.25c3.25,2.35999,4.64001,6.26999,6.24002,9.78
			c13.41998,29.95,26.84,59.88999,40.28,89.82999c2.82001,5.45001-1.57001,12.80002-7.67999,13
			c-4.65002,0.61002-8.86002-2.67999-10.45001-6.88998c-12.17001-27.96002-24.29999-55.95-36.5-83.9
			c-6.76001,15.35001-13.53,30.71999-20.04999,46.18001c6.72998-0.16,13.47,0.07001,20.20999-0.14001
			c2.87,5.75,5.07999,11.80001,7.82999,17.61999c-11.89999,0.03-23.79999,0.03-35.69,0.01001
			c-3.29999,7.13-6.23999,14.42001-9.48999,21.57001c-1.57999,3.75-5.72,6.07999-9.73999,5.59
			c-5.71002-0.29001-10.14999-7.01001-7.60001-12.29001C302.53137,122.46157,316.76138,90.76157,331.03137,59.07158z"/>
	</g>
	<linearGradient id="SVGID_1_" gradientUnits="userSpaceOnUse" x1="0.2415" y1="9.37539" x2="447.65588" y2="208.57712">
		<stop  offset="0" style="stop-color:#00A7E7"/>
		<stop  offset="1" style="stop-color:#1575BA"/>
	</linearGradient>
	<path class="st1" d="M9.25139,0.48157c1.17-0.3,2.36-0.44,3.57-0.42c141.06,0.03,282.12-0.09999,423.17999-0.05
		c6.60001,0.24001,12.17999,6.44,11.97,13.02c0.01999,64,0.01001,127.99999,0.01001,192c0.07999,4.91-2.91,9.67001-7.34,11.76999
		c-3.30002,1.79001-7.18002,1.09003-10.76001,1.20001c-139.35999,0-278.71997,0.01001-418.06998-0.07999
		c-6.11-0.26001-11.7-5.69-11.77-11.87003c-0.05-64.37,0.02-128.72998-0.02-193.09999
		C-0.33861,7.27158,3.89139,2.00158,9.25139,0.48157 M224.02139,51.00158c-16.67,1.28999-32.66,10.19-42.05,24.10001
		c-15.64999,22.29999-13.48,55.50997,5.76001,75.01998c21.14,22.5,60.63998,22.85001,82.64998,1.42999
		c2.56-2.59,3.57999-6.75,1.95001-10.09c-1.99002-4.72998-8.19-7.31-12.77002-4.66998
		c-2.98999,1.88998-5.52998,4.44998-8.61998,6.20999c-8.31,5.29001-18.64999,6.84-28.27,5.17999
		c-10.43999-1.92999-19.7-8.85999-24.81999-18.10999c-8.29001-14.89001-7.06-34.96,4.02-48.12
		c6.79999-8.17999,17.34-13.16,28.01999-12.84999c9.59001-0.24001,18.81001,3.78,26.16,9.73999
		c4.25998,3.72,11.60999,2.75,14.62-2.08c2.60999-3.73,2-9.14-1.21002-12.31999
		C257.16138,53.62157,240.10139,49.55158,224.02139,51.00158 M95.63139,54.75158c-2.91,2.75-4.06,6.71001-5.74,10.22001
		c-13.24001,29.45-26.41001,58.94-39.68,88.38c-2.71,5.17999,1.05,12.13998,6.74,13.04999c4.34,0.91,8.90001-1.47998,10.82-5.41998
		c3.32-7.14001,6.28-14.44,9.49-21.63c11.76,0.10001,23.53001-0.03,35.3,0.07999c-2.48-5.92999-5.07999-11.79998-7.62-17.69997
		c-6.68999-0.08002-13.38-0.04001-20.06,0c6.72-15.33002,13.36-30.69002,20.01-46.05002
		c12.45,28.35001,24.68999,56.77999,37.12,85.13c1.92,4.76001,7.87,7.04001,12.53,5.03c4.59-1.82999,7.19-7.79999,4.70999-12.25
		c-14.29999-31.69997-28.40999-63.48998-42.76999-95.16C112.99139,50.73157,101.58139,49.04157,95.63139,54.75158
		 M331.03137,59.07158c-14.26999,31.68999-28.5,63.38999-42.67999,95.10999c-2.54999,5.28,1.88998,12,7.60001,12.29001
		c4.01999,0.48999,8.16-1.84,9.73999-5.59c3.25-7.14999,6.19-14.44,9.48999-21.57001
		c11.89001,0.01999,23.79001,0.01999,35.69-0.01001c-2.75-5.81998-4.95999-11.86999-7.82999-17.61999
		c-6.73999,0.21002-13.48001-0.01999-20.20999,0.14001c6.51999-15.46002,13.28998-30.83,20.04999-46.18001
		c12.20001,27.95,24.32999,55.93998,36.5,83.9c1.59,4.20999,5.79999,7.5,10.45001,6.88998c6.10999-0.19998,10.5-7.54999,7.67999-13
		c-13.44-29.93999-26.86002-59.87998-40.28-89.82999c-1.60001-3.51001-2.99002-7.42001-6.24002-9.78
		C344.57138,49.14157,334.06137,51.45157,331.03137,59.07158z"/>
</g>
</svg>
