<svg width="48" height="48" viewBox="0 0 48 48" fill="none" xmlns="http://www.w3.org/2000/svg">
<path opacity="0.3" fill-rule="evenodd" clip-rule="evenodd" d="M18.1637 2C18.1637 0.895432 19.0592 0 20.1637 0H27.3415C28.4461 0 29.3415 0.895431 29.3415 2V6.53161C30.2708 6.83495 31.1675 7.2119 32.0246 7.65568L35.1896 4.45766C35.9666 3.67257 37.2263 3.67257 38.0033 4.45766L43.0935 9.60083C43.8705 10.3859 43.8705 11.6588 43.0935 12.4439L40.5637 15H30.5075C28.6311 13.5598 26.2906 12.7051 23.7525 12.7051C17.5792 12.7051 12.5747 17.7617 12.5747 23.9993C12.5747 30.2369 17.5792 35.2935 23.7525 35.2935C26.2897 35.2935 28.6296 34.4393 30.5056 33H40.5649L43.0935 35.5549C43.8705 36.34 43.8705 37.6129 43.0935 38.398L38.0033 43.5412C37.2263 44.3262 35.9666 44.3262 35.1896 43.5412L32.0248 40.3434C31.1676 40.7872 30.2709 41.1642 29.3415 41.4676V45.9993C29.3415 47.1039 28.4461 47.9993 27.3415 47.9993H20.1637C19.0592 47.9993 18.1637 47.1039 18.1637 45.9993V41.4675C17.2344 41.1641 16.3378 40.7871 15.4806 40.3433L12.3158 43.5412C11.5388 44.3262 10.279 44.3262 9.50204 43.5412L4.41191 38.398C3.63492 37.6129 3.63492 36.34 4.41191 35.5549L7.57706 32.3568C7.13852 31.492 6.76593 30.5873 6.46598 29.6497H2C0.895433 29.6497 0 28.7543 0 27.6497V20.3555C0 19.2509 0.89543 18.3555 2 18.3555H6.46408C6.76438 17.4156 7.13767 16.5089 7.57719 15.6422L4.41191 12.4439C3.63492 11.6588 3.63492 10.3859 4.41191 9.60083L9.50204 4.45766C10.279 3.67257 11.5388 3.67257 12.3158 4.45766L15.4809 7.65576C16.3379 7.21201 17.2345 6.83507 18.1637 6.53173V2Z" fill="#00ABEE"/>
<path d="M48 31.0005H44.4636V17.0205H48V31.0005Z" fill="#00ABEE"/>
<path d="M32.0119 31.0005V17.0205H37.7192C38.7146 17.0205 39.5856 17.2228 40.3322 17.6275C41.0853 18.0321 41.6649 18.5926 42.0709 19.3091C42.4835 20.0188 42.6898 20.8215 42.6898 21.717C42.6898 22.6855 42.4933 23.5379 42.1004 24.2742C41.7074 25.0105 41.1377 25.5843 40.3911 25.9956C39.6511 26.4002 38.7736 26.6025 37.7585 26.6025H35.5483V31.0005H32.0119ZM37.4736 23.3687C37.788 23.3687 38.0728 23.2991 38.3282 23.1598C38.5836 23.0205 38.7834 22.8281 38.9275 22.5827C39.0781 22.3306 39.1534 22.052 39.1534 21.7468C39.1534 21.455 39.0781 21.1963 38.9275 20.9707C38.7834 20.7452 38.5836 20.5694 38.3282 20.4434C38.0794 20.3173 37.7978 20.2543 37.4834 20.2543H35.5483V23.3687H37.4736Z" fill="#00ABEE"/>
<path d="M30.5382 30.9999H26.8938L26.1571 28.8109H21.2062L20.4694 30.9999H16.825L22.1492 17H25.2435L30.5382 30.9999ZM23.5245 21.9054L22.2081 25.8258H25.1649L23.8486 21.9054L23.6914 21.2686H23.6718L23.5245 21.9054Z" fill="#00ABEE"/>
</svg>
