<svg width="48" height="48" viewBox="0 0 48 48" fill="none" xmlns="http://www.w3.org/2000/svg">
<path opacity="0.3" fill-rule="evenodd" clip-rule="evenodd" d="M32.1154 10.2311L36.358 14.4737L31.4083 23.6661L40.6006 18.7164L44.1362 22.2519C44.5267 22.6424 44.5267 23.2756 44.1362 23.6661L33.5296 34.2727L13.7306 14.4737L24.3372 3.86711C24.7277 3.47659 25.3609 3.47659 25.7514 3.86711L29.2869 7.40265L27.8727 11.6453L32.1154 10.2311Z" fill="#00ABEE"/>
<path fill-rule="evenodd" clip-rule="evenodd" d="M20.3198 32.3767L13.7367 41.7811C12.4698 43.5909 9.9757 44.031 8.16591 42.7641C7.97499 42.6305 7.79612 42.4804 7.63134 42.3157L5.7154 40.3997C4.1533 38.8376 4.1533 36.305 5.7154 34.7429C5.88784 34.5704 6.07569 34.4141 6.2766 34.2759L15.7212 27.7781L9.4879 21.5448C8.70685 20.7637 8.70685 19.4974 9.4879 18.7164L12.3163 15.8879L32.1153 35.6869L29.2869 38.5154C28.5058 39.2964 27.2395 39.2964 26.4585 38.5154L20.3198 32.3767ZM9.4879 38.5154C10.2689 39.2964 11.5353 39.2964 12.3163 38.5154C13.0974 37.7343 13.0974 36.468 12.3163 35.6869C11.5353 34.9059 10.2689 34.9059 9.4879 35.6869C8.70685 36.468 8.70685 37.7343 9.4879 38.5154Z" fill="#00ABEE"/>
</svg>
