<svg width="75" height="75" viewBox="0 0 75 75" fill="none" xmlns="http://www.w3.org/2000/svg">
<g clip-path="url(#clip0_3060_7342)">
<path d="M15.5761 7.91016H7.55215C3.38789 7.91016 0 11.298 0 15.4622V54.8502C0 57.7797 1.71768 60.4696 4.37563 61.7033C4.57515 61.796 4.78491 61.8398 4.99131 61.8398C5.54385 61.8398 6.0731 61.5256 6.32095 60.9914C6.66152 60.2575 6.34277 59.3865 5.60903 59.0461C3.98145 58.2905 2.92969 56.6437 2.92969 54.85V15.4622C2.92969 12.9133 5.00332 10.8397 7.55215 10.8397H15.5761C16.385 10.8397 17.041 10.1837 17.041 9.37485C17.041 8.56597 16.385 7.91016 15.5761 7.91016Z" fill="#00ABEE"/>
<path d="M67.4479 7.91016H54.8974C54.7929 3.53086 51.2007 0 46.7969 0H28.2031C23.7337 0 20.0977 3.63604 20.0977 8.10542V16.504H10.0587C9.24978 16.504 8.59382 17.1599 8.59382 17.9688C8.59382 18.7777 9.24978 19.4336 10.0587 19.4336H20.0977V24.1211H10.0587C9.24978 24.1211 8.59382 24.7771 8.59382 25.586C8.59382 26.3949 9.24978 27.0508 10.0587 27.0508H20.0977V31.7383H10.0587C9.24978 31.7383 8.59382 32.3943 8.59382 33.2032C8.59382 34.0121 9.24978 34.668 10.0587 34.668H20.0977V39.3555H10.0587C9.24978 39.3555 8.59382 40.0115 8.59382 40.8204C8.59382 41.6292 9.24978 42.2852 10.0587 42.2852H20.0977V50.2118C15.8663 50.6583 12.558 54.2454 12.558 58.5907C12.558 58.8199 12.5675 59.0499 12.5865 59.2794C9.99773 60.7708 8.37952 63.5224 8.37952 66.5735C8.37952 71.2198 12.1616 74.9999 16.8104 74.9999H55.4345C61.6023 74.9999 66.6202 69.9848 66.6202 63.8203C66.6202 57.6558 61.6023 52.6408 55.4345 52.6408C54.8164 52.6408 54.2028 52.691 53.5985 52.7908C52.2432 48.462 49.0938 44.8121 44.9529 42.8531C44.2212 42.507 43.3483 42.8196 43.0023 43.551C42.6564 44.2822 42.9687 45.1556 43.7001 45.5016C47.0969 47.1085 49.6806 50.0997 50.7958 53.647C49.8217 54.092 48.9087 54.6768 48.0996 55.3796C47.1034 56.245 46.2755 57.2679 45.6385 58.4196C45.2471 59.1277 45.5038 60.0189 46.2117 60.4105C46.4364 60.5347 46.6795 60.5936 46.9193 60.5936C47.435 60.5936 47.9354 60.3205 48.2026 59.8373C48.6728 58.9866 49.2847 58.2311 50.0209 57.5914C50.9608 56.775 52.0891 56.1738 53.2842 55.8527C53.9816 55.6654 54.7034 55.5705 55.4345 55.5705C59.987 55.5705 63.6906 59.2714 63.6906 63.8203C63.6906 68.3692 59.9871 72.0703 55.4347 72.0703H16.8106C13.7772 72.0703 11.3094 69.6045 11.3094 66.5736C11.3094 64.3249 12.6576 62.3253 14.7444 61.4793C15.4084 61.21 15.7802 60.4998 15.6232 59.8006C15.5334 59.4007 15.4877 58.9935 15.4877 58.5908C15.4877 55.5599 17.9555 53.0941 20.9889 53.0941C21.8263 53.0941 22.63 53.277 23.3775 53.6377C23.7463 53.8157 24.1727 53.831 24.5533 53.6804C24.9342 53.5296 25.2342 53.2263 25.3812 52.8441C26.6593 49.5207 29.2636 46.7899 32.5264 45.3523C33.2668 45.0261 33.6025 44.1615 33.2763 43.421C32.9501 42.6809 32.0858 42.345 31.345 42.6712C27.8171 44.2255 24.9213 47.0222 23.2276 50.464C23.1611 50.4457 23.0942 50.4291 23.0272 50.4124V8.10542C23.0274 5.25161 25.3493 2.92969 28.2031 2.92969H46.7969C49.6508 2.92969 51.9727 5.25161 51.9727 8.10542V44.0936C51.9727 44.9024 52.6286 45.5584 53.4375 45.5584C54.2464 45.5584 54.9024 44.9024 54.9024 44.0936V42.2852H64.9414C65.7503 42.2852 66.4062 41.6292 66.4062 40.8204C66.4062 40.0115 65.7503 39.3555 64.9414 39.3555H54.9024V34.668H64.9414C65.7503 34.668 66.4062 34.0121 66.4062 33.2032C66.4062 32.3943 65.7503 31.7383 64.9414 31.7383H54.9024V27.0508H64.9414C65.7503 27.0508 66.4062 26.3949 66.4062 25.586C66.4062 24.7771 65.7503 24.1211 64.9414 24.1211H54.9024V19.4336H64.9414C65.7503 19.4336 66.4062 18.7777 66.4062 17.9688C66.4062 17.1599 65.7503 16.504 64.9414 16.504H54.9024V10.8398H67.448C69.9967 10.8398 72.0703 12.9135 72.0703 15.4623V54.8503C72.0703 55.9789 71.6593 57.0653 70.9131 57.9098C70.3774 58.516 70.4344 59.4417 71.0407 59.9774C71.3193 60.2237 71.6655 60.3447 72.0101 60.3447C72.4155 60.3447 72.8189 60.1774 73.1083 59.8499C74.3282 58.4695 75 56.694 75 54.8503V15.4622C75 11.298 71.6121 7.91016 67.4479 7.91016Z" fill="#00ABEE"/>
<path d="M43.9453 9.375H31.0547C30.2458 9.375 29.5898 10.031 29.5898 10.8398C29.5898 11.6487 30.2458 12.3047 31.0547 12.3047H43.9453C44.7542 12.3047 45.4102 11.6487 45.4102 10.8398C45.4102 10.0308 44.7542 9.375 43.9453 9.375Z" fill="#00ABEE"/>
<path d="M43.9453 24.6094H31.0547C30.2458 24.6094 29.5898 25.2653 29.5898 26.0742C29.5898 26.8831 30.2458 27.5391 31.0547 27.5391H43.9453C44.7542 27.5391 45.4102 26.8831 45.4102 26.0742C45.4102 25.2652 44.7542 24.6094 43.9453 24.6094Z" fill="#00ABEE"/>
<path d="M43.9453 16.9922H31.0547C30.2458 16.9922 29.5898 17.6481 29.5898 18.457C29.5898 19.2659 30.2458 19.9219 31.0547 19.9219H43.9453C44.7542 19.9219 45.4102 19.2659 45.4102 18.457C45.4102 17.648 44.7542 16.9922 43.9453 16.9922Z" fill="#00ABEE"/>
<path d="M43.9453 32.2266H31.0547C30.2458 32.2266 29.5898 32.8825 29.5898 33.6914C29.5898 34.5003 30.2458 35.1562 31.0547 35.1562H43.9453C44.7542 35.1562 45.4102 34.5003 45.4102 33.6914C45.4102 32.8824 44.7542 32.2266 43.9453 32.2266Z" fill="#00ABEE"/>
<path d="M38.0043 41.2861C37.9898 41.2861 37.975 41.2863 37.9607 41.2866L37.9497 41.2863C37.1408 41.2863 36.4849 41.9422 36.4849 42.7511C36.4849 43.56 37.1408 44.216 37.9497 44.216C37.9567 44.216 37.9638 44.216 37.9707 44.2158L37.9862 44.216C37.9893 44.216 37.9923 44.216 37.9954 44.216C38.8 44.216 39.455 43.5662 39.4601 42.7602C39.4651 41.9513 38.8135 41.2914 38.0043 41.2861Z" fill="#00ABEE"/>
<path d="M45.1704 63.4053C44.3615 63.4053 43.7056 64.0612 43.7056 64.8701V64.893C43.7056 65.7019 44.3615 66.3578 45.1704 66.3578C45.9793 66.3578 46.6353 65.7019 46.6353 64.893V64.8701C46.6353 64.0611 45.9793 63.4053 45.1704 63.4053Z" fill="#00ABEE"/>
<path d="M16.0349 45.6484C13.7493 45.6484 11.89 47.5078 11.89 49.7934C11.89 50.6022 12.546 51.2582 13.3549 51.2582C14.1637 51.2582 14.8197 50.6022 14.8197 49.7934C14.8197 49.1233 15.3649 48.5781 16.0349 48.5781C16.8438 48.5781 17.4998 47.9222 17.4998 47.1133C17.4998 46.3042 16.8438 45.6484 16.0349 45.6484Z" fill="#00ABEE"/>
<path d="M58.9034 45.6484C58.0946 45.6484 57.4386 46.3042 57.4386 47.1133C57.4386 47.9222 58.0946 48.5781 58.9034 48.5781C59.5735 48.5781 60.1187 49.1233 60.1187 49.7934C60.1187 50.6022 60.7746 51.2582 61.5835 51.2582C62.3924 51.2582 63.0484 50.6022 63.0484 49.7934C63.0484 47.5078 61.189 45.6484 58.9034 45.6484Z" fill="#00ABEE"/>
</g>
<defs>
<clipPath id="clip0_3060_7342">
<rect width="75" height="75" fill="white"/>
</clipPath>
</defs>
</svg>
