<svg width="48" height="48" viewBox="0 0 48 48" fill="none" xmlns="http://www.w3.org/2000/svg">
<path opacity="0.3" d="M9.59985 16.7773C12.2508 16.7773 14.3997 18.867 14.3997 21.4443C14.3995 24.0215 12.2507 26.1104 9.59985 26.1104C6.94908 26.1102 4.80021 24.0215 4.80005 21.4443C4.80005 18.8671 6.94898 16.7774 9.59985 16.7773ZM38.3997 16.7773C41.0506 16.7773 43.2004 18.867 43.2004 21.4443C43.2003 24.0215 41.0505 26.1104 38.3997 26.1104C35.749 26.1101 33.6 24.0214 33.5999 21.4443C33.5999 18.8671 35.7489 16.7776 38.3997 16.7773ZM24.0002 9C27.5348 9.00009 30.3997 11.7863 30.3997 15.2227C30.3994 18.6589 27.5347 21.4442 24.0002 21.4443C20.4658 21.4443 17.6001 18.6589 17.5999 15.2227C17.5999 11.7862 20.4656 9 24.0002 9Z" fill="#00ABEE"/>
<path d="M17.0676 25.7959C15.1776 27.6151 14.0002 30.1695 14.0002 33C14.0003 34.4225 14.2988 35.7749 14.8342 37H10.7639C10.3626 36.9999 9.56706 36.1583 9.60083 35.7539C10.0157 30.789 12.9263 27.459 17.0676 25.7959ZM30.8254 25.6943C35.0948 27.2908 38.0795 30.5916 38.3967 35.7559C38.4154 36.0603 38.3961 37 37.1946 37H33.1653C33.7008 35.7748 34.0002 34.4226 34.0002 33C34.0002 30.1165 32.778 27.5194 30.8254 25.6943ZM10.8 27.6719C8.69951 30.262 7.38842 33.4854 7.21899 36.999H0.841064C0.551399 36.999 -0.0226035 36.3689 0.0012207 36.0654C0.449122 30.4973 4.92523 27.666 10.3811 27.666C10.5214 27.666 10.6611 27.6684 10.8 27.6719ZM37.5803 27.666C43.113 27.666 47.6587 30.3418 47.9973 36.0664C48.0108 36.295 47.9965 36.999 47.1292 36.999H40.7805C40.6111 33.4849 39.2996 30.2612 37.1985 27.6709C37.3251 27.6678 37.4526 27.666 37.5803 27.666Z" fill="#00ABEE"/>
<path d="M9.60114 35.6987C10.2213 27.9431 16.4192 24 23.9734 24C31.634 24 37.9279 27.7264 38.3968 35.7C38.4154 36.0176 38.3968 37 37.1948 37C31.2659 37 22.4556 37 10.7641 37C10.3628 37 9.56736 36.1212 9.60114 35.6987Z" fill="#00ABEE"/>
</svg>
