<svg width="96" height="96" viewBox="0 0 96 96" fill="none" xmlns="http://www.w3.org/2000/svg">
<path d="M9.5595 69.4894H30.513V75.1864H25.782C22.23 75.1864 19.3395 78.0754 19.3395 81.6274V84.6844C19.3395 85.5124 20.01 86.1844 20.8395 86.1844H85.551C88.8045 86.1844 91.452 83.5309 91.452 80.2699V30.0544C91.452 26.7934 88.8045 24.1399 85.551 24.1399H82.425V16.3759C82.425 12.7594 79.482 9.81641 75.8655 9.81641H9.5595C5.943 9.81641 3 12.7594 3 16.3759V62.9299C3 66.5479 5.943 69.4894 9.5595 69.4894ZM6 62.9284V59.9089H51.912V66.4879H9.5595C7.596 66.4879 6 64.8919 6 62.9284ZM33.513 69.4894H51.9135V75.1864H33.513V69.4894ZM22.3395 83.1844V81.6274C22.3395 79.7299 23.883 78.1864 25.782 78.1864H51.9135V80.2699C51.9135 80.6344 51.957 80.9869 52.0215 81.3319C52.0365 81.4129 52.0515 81.4939 52.0695 81.5734C52.146 81.9094 52.242 82.2364 52.3725 82.5469C52.386 82.5799 52.404 82.6084 52.419 82.6414C52.5 82.8259 52.584 83.0089 52.683 83.1844H22.3395ZM88.452 30.0544V80.2699C88.452 81.8764 87.1515 83.1844 85.551 83.1844H57.8265C56.22 83.1844 54.9135 81.8764 54.9135 80.2699V30.0544C54.9135 28.4479 56.22 27.1399 57.8265 27.1399H85.551C87.15 27.1399 88.452 28.4479 88.452 30.0544ZM9.5595 12.8164H75.8655C77.829 12.8164 79.425 14.4124 79.425 16.3759V24.1399H57.8265C54.5655 24.1399 51.9135 26.7934 51.9135 30.0544V56.9104H6V16.3759C6 14.4124 7.596 12.8164 9.5595 12.8164Z" fill="#00ABEE"/>
<path d="M13.3845 61.5049H12.363C11.5335 61.5049 10.863 62.1769 10.863 63.0049C10.863 63.8329 11.5335 64.5049 12.363 64.5049H13.3845C14.214 64.5049 14.8845 63.8329 14.8845 63.0049C14.8845 62.1769 14.214 61.5049 13.3845 61.5049Z" fill="#00ABEE"/>
<path d="M19.3771 61.5049H18.3571C17.5276 61.5049 16.8571 62.1769 16.8571 63.0049C16.8571 63.8329 17.5276 64.5049 18.3571 64.5049H19.3771C20.2066 64.5049 20.8771 63.8329 20.8771 63.0049C20.8771 62.1769 20.2066 61.5049 19.3771 61.5049Z" fill="#00ABEE"/>
<path d="M25.371 61.5049H24.3495C23.52 61.5049 22.8495 62.1769 22.8495 63.0049C22.8495 63.8329 23.52 64.5049 24.3495 64.5049H25.371C26.2005 64.5049 26.871 63.8329 26.871 63.0049C26.871 62.1769 26.2005 61.5049 25.371 61.5049Z" fill="#00ABEE"/>
<path d="M56.7975 32.785V73.4245C56.7975 75.535 58.515 77.2525 60.6255 77.2525H82.7445C84.855 77.2525 86.5725 75.535 86.5725 73.4245V32.785C86.5725 30.6745 84.855 28.957 82.7445 28.957H60.6255C58.515 28.957 56.7975 30.6745 56.7975 32.785ZM83.5725 32.785V73.4245C83.5725 73.8805 83.202 74.2525 82.7445 74.2525H60.6255C60.168 74.2525 59.7975 73.8805 59.7975 73.4245V32.785C59.7975 32.329 60.168 31.957 60.6255 31.957H82.7445C83.202 31.957 83.5725 32.329 83.5725 32.785Z" fill="#00ABEE"/>
<path d="M77.7045 78.4395H65.667C64.8375 78.4395 64.167 79.1115 64.167 79.9395C64.167 80.7675 64.8375 81.4395 65.667 81.4395H77.7045C78.534 81.4395 79.2045 80.7675 79.2045 79.9395C79.2045 79.1115 78.534 78.4395 77.7045 78.4395Z" fill="#00ABEE"/>
</svg>
