<svg width="40" height="40" viewBox="0 0 40 40" fill="none" xmlns="http://www.w3.org/2000/svg">
<path d="M12.2387 30.0661L9.82476 27.6522C9.16073 26.9882 8.92637 26.0274 9.22323 25.1368C9.45759 24.4415 9.77007 23.5354 10.1451 22.4964H1.87986C1.20802 22.4964 0.583053 22.137 0.247133 21.5511C-0.0887868 20.9652 -0.0809747 20.2465 0.262757 19.6685L4.36411 12.7549C5.37968 11.0441 7.21552 9.99733 9.19979 9.99733H15.6291C15.8166 9.68485 16.0041 9.39581 16.1916 9.11458C22.5897 -0.322197 32.1205 -0.634672 37.8077 0.412123C38.7139 0.576173 39.417 1.28706 39.5888 2.19324C40.6357 7.88811 40.3154 17.4108 30.8862 23.8088C30.6127 23.9963 30.3159 24.1837 30.0034 24.3712V30.8004C30.0034 32.7847 28.9566 34.6283 27.2457 35.636L20.332 39.7372C19.7539 40.081 19.0352 40.0888 18.4493 39.7529C17.8634 39.417 17.504 38.7998 17.504 38.1202V29.7458C16.4025 30.1286 15.4417 30.4411 14.7151 30.6754C13.8402 30.9567 12.8871 30.7145 12.2309 30.0661H12.2387ZM30.0034 13.1221C30.8322 13.1221 31.627 12.7929 32.213 12.2069C32.799 11.6209 33.1282 10.8261 33.1282 9.99733C33.1282 9.16859 32.799 8.37379 32.213 7.78779C31.627 7.20178 30.8322 6.87257 30.0034 6.87257C29.1746 6.87257 28.3798 7.20178 27.7938 7.78779C27.2078 8.37379 26.8786 9.16859 26.8786 9.99733C26.8786 10.8261 27.2078 11.6209 27.7938 12.2069C28.3798 12.7929 29.1746 13.1221 30.0034 13.1221Z" fill="#F75481" fill-opacity="0.3"/>
<path d="M28.828 16.5269C30.232 16.5269 31.5785 15.9692 32.5713 14.9764C33.5641 13.9836 34.1219 12.6371 34.1219 11.2332C34.1219 9.82919 33.5641 8.48271 32.5713 7.48995C31.5785 6.49718 30.232 5.93945 28.828 5.93945C27.424 5.93945 26.0775 6.49718 25.0847 7.48995C24.0919 8.48271 23.5342 9.82919 23.5342 11.2332C23.5342 12.6371 24.0919 13.9836 25.0847 14.9764C26.0775 15.9692 27.424 16.5269 28.828 16.5269Z" fill="#F75481"/>
</svg>
