<svg width="81" height="90" viewBox="0 0 81 90" fill="none" xmlns="http://www.w3.org/2000/svg">
<path d="M16.4131 17.9005C11.4814 17.9005 7.46289 13.882 7.46289 8.95024C7.46289 4.01848 11.4814 0 16.4131 0C21.3449 0 25.3634 4.01848 25.3634 8.95024C25.3634 13.882 21.3449 17.9005 16.4131 17.9005ZM16.4131 3.00081C13.1253 3.00081 10.4637 5.6624 10.4637 8.95024C10.4637 12.2381 13.1253 14.8997 16.4131 14.8997C19.701 14.8997 22.3626 12.2381 22.3626 8.95024C22.3887 5.6624 19.701 3.00081 16.4131 3.00081Z" fill="#00ABEE"/>
<path d="M16.4131 89.4496C15.5781 89.4496 14.9258 88.7711 14.9258 87.9622V58.1368C14.9258 57.3018 15.6042 56.6494 16.4131 56.6494C17.2221 56.6494 17.9005 57.3279 17.9005 58.1368V87.9622C17.9005 88.7711 17.2481 89.4496 16.4131 89.4496Z" fill="#00ABEE"/>
<path d="M25.3634 89.451C24.5284 89.451 23.876 88.7726 23.876 87.9637V34.2883C23.876 33.4533 24.5545 32.8009 25.3634 32.8009C26.1723 32.8009 26.8507 33.4794 26.8507 34.2883V37.5761C26.9812 39.8724 28.9383 41.7512 31.3128 41.7512H40.263C41.072 41.7512 41.7504 41.0727 41.7504 40.2638C41.7504 39.4549 41.072 38.7765 40.263 38.7765H31.3128C30.4778 38.7765 29.8254 38.098 29.8254 37.2891V31.3397C29.8254 27.2429 26.4854 23.8768 22.3626 23.8768H10.4376C6.31475 23.8768 2.97471 27.2168 2.97471 31.3397V52.2149C2.97471 53.0499 3.65316 53.7022 4.46208 53.7022C5.27099 53.7022 5.94943 53.0238 5.94943 52.2149C5.94943 51.3799 6.62788 50.7275 7.43679 50.7275C8.2718 50.7275 8.92415 51.406 8.92415 52.2149V87.9637C8.92415 88.7987 8.24571 89.451 7.43679 89.451C6.60178 89.451 5.94943 88.7726 5.94943 87.9637V56.3899C5.47974 56.5465 4.98396 56.6509 4.46208 56.6509C2.00924 56.6509 0 54.6416 0 52.1888V31.3136C0 25.5729 4.67083 20.876 10.4376 20.876H22.3626C28.1032 20.876 32.8002 25.5468 32.8002 31.3136V35.7757H40.263C42.7159 35.7757 44.7251 37.7849 44.7251 40.2377C44.7251 42.6906 42.7159 44.6998 40.263 44.6998H31.3128C29.6428 44.6998 28.1032 44.1518 26.8507 43.2124V87.9637C26.8507 88.7726 26.1723 89.451 25.3634 89.451Z" fill="#00ABEE"/>
<path d="M16.4131 89.4496C15.5781 89.4496 14.9258 88.7711 14.9258 87.9622V58.1368C14.9258 57.3018 15.6042 56.6494 16.4131 56.6494C17.2221 56.6494 17.9005 57.3279 17.9005 58.1368V87.9622C17.9005 88.7711 17.2481 89.4496 16.4131 89.4496Z" fill="#00ABEE"/>
<path d="M7.46295 53.6753C6.62794 53.6753 5.97559 52.9968 5.97559 52.1879V34.3135C5.97559 33.4785 6.65403 32.8262 7.46295 32.8262C8.29796 32.8262 8.9503 33.5046 8.9503 34.3135V52.1879C8.9764 52.9968 8.29796 53.6753 7.46295 53.6753Z" fill="#00ABEE"/>
<path d="M76.0379 62.5998H40.263C37.8101 62.5998 35.8009 60.5906 35.8009 58.1377V43.238C35.8009 42.403 36.4793 41.7507 37.2883 41.7507C38.0972 41.7507 38.7756 42.4291 38.7756 43.238V58.1377C38.7756 58.9727 39.4541 59.6251 40.263 59.6251H76.0379C76.8468 59.6251 77.5252 58.9466 77.5252 58.1377V4.48844C77.5252 3.65344 76.8468 3.00108 76.0379 3.00108H40.263C39.4541 3.00108 38.7756 3.67953 38.7756 4.48844V31.3131C38.7756 32.1481 38.0972 32.8004 37.2883 32.8004C36.4793 32.8004 35.8009 32.122 35.8009 31.3131V4.48844C35.8009 2.03561 37.8101 0.0263672 40.263 0.0263672H76.0379C78.4907 0.0263672 80.4999 2.03561 80.4999 4.48844V58.1377C80.4999 60.6166 78.5168 62.5998 76.0379 62.5998Z" fill="#00ABEE"/>
<path d="M67.0878 89.4497C66.2528 89.4497 65.6004 88.7713 65.6004 87.9624V62.6251H50.7007V87.9624C50.7007 88.7974 50.0223 89.4497 49.2134 89.4497H25.3635C24.5284 89.4497 23.8761 88.7713 23.8761 87.9624C23.8761 87.1274 24.5545 86.475 25.3635 86.475H47.726V61.1378C47.726 60.3027 48.4045 59.6504 49.2134 59.6504H67.0878C67.9228 59.6504 68.5751 60.3288 68.5751 61.1378V87.9624C68.5751 88.7713 67.9228 89.4497 67.0878 89.4497Z" fill="#00ABEE"/>
<path d="M52.188 56.6505H49.2133C48.3783 56.6505 47.726 55.972 47.726 55.1631C47.726 54.3281 48.4044 53.6758 49.2133 53.6758H52.188C53.023 53.6758 53.6754 54.3542 53.6754 55.1631C53.6754 55.972 53.023 56.6505 52.188 56.6505Z" fill="#00ABEE"/>
<path d="M67.0877 56.6505H64.113C63.278 56.6505 62.6256 55.972 62.6256 55.1631C62.6256 54.3281 63.3041 53.6758 64.113 53.6758H67.0877C67.9227 53.6758 68.575 54.3542 68.575 55.1631C68.575 55.972 67.9227 56.6505 67.0877 56.6505Z" fill="#00ABEE"/>
<path d="M79.0127 50.6739H43.2378C42.4028 50.6739 41.7505 49.9955 41.7505 49.1866C41.7505 48.3516 42.4289 47.6992 43.2378 47.6992H79.0127C79.8477 47.6992 80.5001 48.3777 80.5001 49.1866C80.5001 50.0216 79.8477 50.6739 79.0127 50.6739Z" fill="#00ABEE"/>
</svg>
