<svg width="48" height="48" viewBox="0 0 48 48" fill="none" xmlns="http://www.w3.org/2000/svg">
<path fill-rule="evenodd" clip-rule="evenodd" d="M4 23.9996C4 18.4764 8.29807 13.999 13.6 13.999H20H23.2C28.5019 13.999 32.8 18.4764 32.8 23.9996C32.8 25.4865 32.4885 26.8976 31.9298 28.1659H28.1968C29.0748 27.0246 29.6 25.576 29.6 23.9996C29.6 20.3175 26.7346 17.3326 23.2 17.3326H20H13.6C10.0654 17.3326 7.2 20.3175 7.2 23.9996C7.2 27.6817 10.0654 30.6667 13.6 30.6667H14.6476C15.4298 31.9563 16.4321 33.0866 17.5996 34.0002H13.6C8.29807 34.0002 4 29.5228 4 23.9996Z" fill="#00ABEE"/>
<path opacity="0.3" fill-rule="evenodd" clip-rule="evenodd" d="M33.3532 17.3326H34.4001C37.9347 17.3326 40.8001 20.3175 40.8001 23.9996C40.8001 27.6817 37.9347 30.6667 34.4001 30.6667H31.2001H24.8001C21.2655 30.6667 18.4001 27.6817 18.4001 23.9996C18.4001 22.4227 18.9256 20.9736 19.8042 19.8321H16.0708C15.5118 21.1008 15.2001 22.5123 15.2001 23.9996C15.2001 29.5228 19.4981 34.0002 24.8001 34.0002H31.2001H34.4001C39.702 34.0002 44.0001 29.5228 44.0001 23.9996C44.0001 18.4764 39.702 13.999 34.4001 13.999H31.2001H30.402C31.5692 14.9127 32.5713 16.043 33.3532 17.3326Z" fill="#00ABEE"/>
</svg>
