<svg width="48" height="48" viewBox="0 0 48 48" fill="none" xmlns="http://www.w3.org/2000/svg">
<path opacity="0.3" fill-rule="evenodd" clip-rule="evenodd" d="M30.5 40C31.3284 40 32 39.3284 32 38.5V30H28V38.5C28 39.3284 28.6716 40 29.5 40H30.5ZM18.5 40C19.3284 40 20 39.3284 20 38.5V30H16V38.5C16 39.3284 16.6716 40 17.5 40H18.5Z" fill="#00ABEE"/>
<path fill-rule="evenodd" clip-rule="evenodd" d="M10 30H38V22C38 17.5817 34.4183 14 30 14H26V4H22V14H18C13.5817 14 10 17.5817 10 22V30Z" fill="#00ABEE"/>
</svg>
