<svg width="45" height="35" viewBox="0 0 45 35" fill="none" xmlns="http://www.w3.org/2000/svg">
<path fill-rule="evenodd" clip-rule="evenodd" d="M24.3422 13.2721L20.707 16.9365C18.4922 19.1789 15.2789 18.5955 13.6195 15.6421C12.0586 12.8619 12.4523 8.97873 14.5125 6.81836L20.3625 0.683659C19.5469 0.237002 18.668 0.00911532 17.775 0.00911532C16.4531 0 15.1664 0.510466 14.0625 1.45847L9 5.83389V26.2525H10.9828L17.4094 33.8548C18.7875 35.4865 20.918 35.3589 22.1766 33.5722C22.5633 33.0162 22.8234 32.369 22.957 31.6945L24.1523 33.1165C25.5234 34.7481 27.6609 34.6296 28.9195 32.8521C29.2359 32.4055 29.468 31.8859 29.6156 31.3481C30.9797 32.5331 32.8359 32.287 33.982 30.6644C35.2406 28.8869 35.1492 26.1158 33.7781 24.4841L24.3422 13.2721ZM1.125 5.83389C0.50625 5.83389 0 6.49021 0 7.29237V26.2525C0 27.866 1.00547 29.1695 2.25 29.1695H4.5C5.74453 29.1695 6.75 27.866 6.75 26.2525V5.83389H1.125ZM3.375 23.3356C3.67337 23.3356 3.95952 23.4892 4.1705 23.7628C4.38147 24.0363 4.5 24.4072 4.5 24.7941C4.5 25.1809 4.38147 25.5518 4.1705 25.8253C3.95952 26.0989 3.67337 26.2525 3.375 26.2525C3.07663 26.2525 2.79048 26.0989 2.5795 25.8253C2.36853 25.5518 2.25 25.1809 2.25 24.7941C2.25 24.4072 2.36853 24.0363 2.5795 23.7628C2.79048 23.4892 3.07663 23.3356 3.375 23.3356Z" fill="#00ABEE"/>
<path fill-rule="evenodd" clip-rule="evenodd" d="M24.3422 13.2721L20.707 16.9365C18.4922 19.1789 15.2789 18.5955 13.6195 15.6421C12.0586 12.8619 12.4523 8.97873 14.5125 6.81836L20.3625 0.683659C19.5469 0.237002 18.668 0.00911532 17.775 0.00911532C16.4531 0 15.1664 0.510466 14.0625 1.45847L9 5.83389V26.2525H10.9828L17.4094 33.8548C18.7875 35.4865 20.918 35.3589 22.1766 33.5722C22.5633 33.0162 22.8234 32.369 22.957 31.6945L24.1523 33.1165C25.5234 34.7481 27.6609 34.6296 28.9195 32.8521C29.2359 32.4055 29.468 31.8859 29.6156 31.3481C30.9797 32.5331 32.8359 32.287 33.982 30.6644C35.2406 28.8869 35.1492 26.1158 33.7781 24.4841L24.3422 13.2721ZM1.125 5.83389C0.50625 5.83389 0 6.49021 0 7.29237V26.2525C0 27.866 1.00547 29.1695 2.25 29.1695H4.5C5.74453 29.1695 6.75 27.866 6.75 26.2525V5.83389H1.125ZM3.375 23.3356C3.67337 23.3356 3.95952 23.4892 4.1705 23.7628C4.38147 24.0363 4.5 24.4072 4.5 24.7941C4.5 25.1809 4.38147 25.5518 4.1705 25.8253C3.95952 26.0989 3.67337 26.2525 3.375 26.2525C3.07663 26.2525 2.79048 26.0989 2.5795 25.8253C2.36853 25.5518 2.25 25.1809 2.25 24.7941C2.25 24.4072 2.36853 24.0363 2.5795 23.7628C2.79048 23.4892 3.07663 23.3356 3.375 23.3356Z" fill="#00ABEE" fill-opacity="0.21"/>
<path fill-rule="evenodd" clip-rule="evenodd" d="M38.25 5.83389V26.2525C38.25 27.866 39.2555 29.1695 40.5 29.1695H42.75C43.9945 29.1695 45 27.866 45 26.2525V7.29237C45 6.49021 44.4938 5.83389 43.875 5.83389H38.25ZM40.5 24.7941C40.5 24.4072 40.6185 24.0363 40.8295 23.7628C41.0405 23.4892 41.3266 23.3356 41.625 23.3356C41.9234 23.3356 42.2095 23.4892 42.4205 23.7628C42.6315 24.0363 42.75 24.4072 42.75 24.7941C42.75 25.1809 42.6315 25.5518 42.4205 25.8253C42.2095 26.0989 41.9234 26.2525 41.625 26.2525C41.3266 26.2525 41.0405 26.0989 40.8295 25.8253C40.6185 25.5518 40.5 25.1809 40.5 24.7941Z" fill="#00ABEE" fill-opacity="0.3"/>
<path d="M22.7391 1.93248L15.9328 9.079C14.8008 10.264 14.5828 12.397 15.4406 13.9193C16.3477 15.5419 18.1125 15.8609 19.3289 14.6303L26.3109 7.59318C26.8031 7.10094 27.5063 7.21033 27.893 7.84841C28.2797 8.48649 28.1883 9.39804 27.6961 9.89939L26.2266 11.3761L36 23.0439V5.83389H35.9508L35.6766 5.60601L30.5719 1.36732C29.4961 0.474004 28.2375 0 26.9578 0C25.425 0 23.9344 0.683659 22.7391 1.93248Z" fill="#00ABEE" fill-opacity="0.3"/>
</svg>
