<svg width="52" height="52" viewBox="0 0 52 52" fill="none" xmlns="http://www.w3.org/2000/svg">
<path d="M46.667 34.667C47.2191 34.6672 47.667 35.1148 47.667 35.667V42.334C47.6668 42.886 47.219 43.3338 46.667 43.334H20.5C19.9478 43.334 19.5002 42.8861 19.5 42.334V35.667C19.5 35.1147 19.9477 34.667 20.5 34.667H46.667ZM46.667 21.667C47.2191 21.6672 47.667 22.1148 47.667 22.667V29.334C47.6668 29.886 47.219 30.3338 46.667 30.334H20.5C19.9478 30.334 19.5002 29.8861 19.5 29.334V22.667C19.5 22.1147 19.9477 21.667 20.5 21.667H46.667ZM46.667 8.66699C47.2191 8.66717 47.667 9.11482 47.667 9.66699V16.334C47.6668 16.886 47.219 17.3338 46.667 17.334H20.5C19.9478 17.334 19.5002 16.8861 19.5 16.334V9.66699C19.5 9.11471 19.9477 8.66699 20.5 8.66699H46.667Z" fill="#00ABEE"/>
<rect opacity="0.3" x="4.33325" y="8.66699" width="10.8333" height="34.6667" rx="1" fill="#00ABEE"/>
</svg>
