<svg width="48" height="48" viewBox="0 0 48 48" fill="none" xmlns="http://www.w3.org/2000/svg">
<path opacity="0.3" d="M13.6 13.5996H31.6V20.8H13.6V13.5996Z" fill="#00ABEE"/>
<path d="M33.4004 10C34.3943 10.0002 35.2001 10.8059 35.2002 11.7998V44.2002C35.2001 45.1941 34.3943 45.9998 33.4004 46H11.7998C10.8058 45.9999 10.0001 45.1942 10 44.2002V11.7998C10.0001 10.8058 10.8058 10.0001 11.7998 10H33.4004ZM15.4004 38.7998C14.4064 38.7998 13.5998 39.6057 13.5996 40.5996C13.5996 41.5937 14.4063 42.4004 15.4004 42.4004H22.5996C23.5937 42.4004 24.4004 41.5937 24.4004 40.5996C24.4002 39.6057 23.5936 38.7998 22.5996 38.7998H15.4004ZM29.7998 38.7998C28.8059 38.7999 28.0002 39.6057 28 40.5996C28 41.5936 28.8058 42.4003 29.7998 42.4004C30.7939 42.4004 31.5996 41.5937 31.5996 40.5996C31.5994 39.6057 30.7938 38.7998 29.7998 38.7998ZM15.4004 31.5996C14.4063 31.5996 13.5997 32.4054 13.5996 33.3994C13.5996 34.3935 14.4063 35.1992 15.4004 35.1992C16.3943 35.199 17.2002 34.3934 17.2002 33.3994C17.2001 32.4055 16.3942 31.5998 15.4004 31.5996ZM22.5996 31.5996C21.6058 31.5998 20.7999 32.4055 20.7998 33.3994C20.7998 34.3934 21.6057 35.199 22.5996 35.1992C23.5937 35.1992 24.4004 34.3935 24.4004 33.3994C24.4003 32.4054 23.5937 31.5996 22.5996 31.5996ZM29.7998 31.5996C28.8058 31.5997 28.0001 32.4055 28 33.3994C28 34.3935 28.8058 35.1991 29.7998 35.1992C30.7939 35.1992 31.5996 34.3935 31.5996 33.3994C31.5995 32.4054 30.7939 31.5996 29.7998 31.5996ZM15.4004 24.4004C14.4063 24.4004 13.5997 25.2062 13.5996 26.2002C13.5996 27.1943 14.4063 28 15.4004 28C16.3943 27.9998 17.2002 27.1942 17.2002 26.2002C17.2001 25.2063 16.3942 24.4006 15.4004 24.4004ZM22.5996 24.4004C21.6058 24.4006 20.7999 25.2063 20.7998 26.2002C20.7998 27.1942 21.6057 27.9998 22.5996 28C23.5937 28 24.4004 27.1943 24.4004 26.2002C24.4003 25.2062 23.5937 24.4004 22.5996 24.4004ZM29.7998 24.4004C28.8058 24.4005 28.0001 25.2062 28 26.2002C28 27.1942 28.8058 27.9999 29.7998 28C30.7939 28 31.5996 27.1943 31.5996 26.2002C31.5995 25.2062 30.7939 24.4004 29.7998 24.4004ZM13.5996 13.5996V20.7998H31.5996V13.5996H13.5996Z" fill="#00ABEE"/>
<rect width="1.8" height="28.8" rx="0.899999" transform="matrix(1 8.74228e-08 8.74228e-08 -1 37 42.4004)" fill="#00ABEE"/>
<path opacity="0.3" d="M26.9713 2L29.2574 2C29.8884 2.00015 30.3999 2.51162 30.4 3.14258L30.4 11.8574C30.3999 12.4884 29.8884 12.9998 29.2574 13L26.9713 13L26.9713 2ZM15.5426 13C14.9116 12.9998 14.4002 12.4884 14.4 11.8574L14.4 3.14258C14.4002 2.51162 14.9116 2.00015 15.5426 2L23.5426 2L23.5426 13L15.5426 13Z" fill="#00ABEE"/>
</svg>
