<svg width="59" height="87" viewBox="0 0 59 87" fill="none" xmlns="http://www.w3.org/2000/svg">
<g clip-path="url(#clip0_3060_7402)">
<path d="M53.6482 71.2561C53.3152 71.3574 53.5865 71.9756 53.5949 72.2424C53.6856 75.2996 53.7968 79.1496 53.5949 82.1622C53.4234 84.7205 52.2133 86.4324 49.6254 86.9683L3.93821 86.9993C1.87385 86.6463 0.207274 85.0863 0 82.9784V3.91879C0.377209 1.71415 2.04302 0.198027 4.29027 0.013614C17.7608 0.0944837 31.2603 -0.134521 44.7133 0.139075C48.1638 0.209364 53.0874 -0.733865 53.4768 4.15233C53.7587 7.68566 53.0607 11.9226 53.4668 15.3554C53.4806 15.4726 53.5202 15.7575 53.649 15.7575H55.9991C57.4073 15.7575 58.9947 17.6961 59.0008 19.0755L58.9962 68.1664C58.792 69.1165 58.3302 70.0922 57.5056 70.6515C57.3525 70.755 56.31 71.2553 56.2346 71.2553C55.7027 71.2553 54.0026 71.148 53.649 71.2553L53.6482 71.2561ZM4.32533 3.07986C3.72027 3.12219 3.41545 3.51898 3.12435 3.98681L3.05425 82.5129C3.15255 83.5219 3.77894 83.9519 4.75969 83.9685H48.7178C49.5309 84.0245 50.4035 83.4931 50.4225 82.6293C50.3501 56.3489 50.5391 30.0412 50.328 3.77822C50.0567 3.28468 49.5004 3.06853 48.9533 3.04359L4.32609 3.07911L4.32533 3.07986ZM53.5895 68.2246H55.6463C55.6973 68.2246 55.8581 67.9684 55.8871 67.8807L55.8795 19.0241C55.8535 18.9689 55.6668 18.789 55.6463 18.789H53.4722L53.5895 68.2246Z" fill="#00ABEE"/>
<path d="M6.6716 10.188L46.2503 10.1562C47.1267 10.1631 47.9199 10.844 47.955 11.7291L47.894 41.7612C47.6212 42.4626 47.0223 42.9085 46.2503 42.9282H7.22712C6.25857 42.8866 5.51101 42.2162 5.52397 41.2367V11.8477C5.54226 11.1085 5.93928 10.4011 6.6716 10.188ZM44.8939 13.1923H8.58355V39.7758H44.8939V13.1923Z" fill="#00ABEE"/>
<path d="M6.90711 47.616C9.65882 47.808 13.0148 47.2646 15.6957 47.585C16.5758 47.6901 17.1992 48.2796 17.2845 49.1563C17.4316 50.6649 17.4606 54.4529 17.2815 55.9274C17.1839 56.7286 16.4615 57.2954 15.6926 57.3823C12.9714 57.1911 9.90572 57.6363 7.22716 57.3869C6.17021 57.2886 5.6124 56.7309 5.52401 55.6962C5.38227 54.0448 5.37998 50.9286 5.5301 49.2818C5.61926 48.303 5.96751 47.9115 6.90711 47.6168V47.616ZM14.2234 50.7359H8.58283V54.2337H14.2234V50.7359Z" fill="#00ABEE"/>
<path d="M21.1945 48.2077C21.5275 47.8146 22.2347 47.6272 22.7391 47.5834C24.7921 47.4073 28.6838 47.4095 30.7383 47.5834C31.5902 47.6559 32.3743 47.8925 32.5603 48.807L32.4909 56.4443C32.1457 57.0051 31.6359 57.3082 30.9684 57.3822C28.3432 57.6755 25.1899 57.1623 22.5067 57.3822C21.0261 57.2167 20.8607 56.278 20.7982 54.9962C20.7655 54.3235 20.9209 53.7227 20.9255 53.1309C20.9354 51.8362 20.7784 50.1591 20.9179 48.9264C20.9438 48.6982 21.0467 48.3815 21.1937 48.2077H21.1945ZM29.6173 50.7358H23.9767V54.2336H29.6173V50.7358Z" fill="#00ABEE"/>
<path d="M37.8146 47.6178C39.6557 47.3691 43.9772 47.4341 45.8968 47.5838C46.9804 47.6676 47.8369 47.9473 47.955 49.1558C48.1021 50.6644 48.131 54.4524 47.952 55.9269C47.8453 56.8052 47.0779 57.3093 46.2496 57.3864C43.571 57.6365 40.5053 57.1906 37.7841 57.3818C37.1135 57.2896 36.3972 56.8732 36.3126 56.1605C36.0398 53.8682 36.5161 51.0521 36.3218 48.7023C36.4795 47.9979 37.1448 47.7085 37.8146 47.6185V47.6178ZM44.8939 50.7354H39.2533V54.2332H44.8939V50.7354Z" fill="#00ABEE"/>
<path d="M6.55576 70.3523L15.9304 70.3213C16.7114 70.412 17.2106 71.0348 17.2868 71.7732C17.4384 73.2409 17.4567 77.1038 17.2814 78.5458C17.1824 79.3583 16.4874 79.9304 15.6979 80.0068C12.9523 80.2698 9.78528 79.7959 6.99394 80.0037C6.12064 79.8329 5.61769 79.2933 5.5293 78.4257C5.36775 76.8423 5.38604 73.612 5.5232 72.0105C5.59102 71.2214 5.79373 70.6969 6.555 70.3523H6.55576ZM14.2234 73.355H8.58278V76.8528H14.2234V73.355Z" fill="#00ABEE"/>
<path d="M21.949 70.3525L31.6216 70.376C32.0407 70.6284 32.5261 71.0244 32.5581 71.5459C32.3539 73.8299 32.8225 76.5515 32.5581 78.7796C32.475 79.4787 31.761 79.9413 31.0942 80.0093C28.3303 80.2897 25.0856 79.7803 22.2683 80.0063C21.6457 79.8559 21.1969 79.5672 20.9812 78.9512C20.649 78.0027 20.7023 73.4415 20.806 72.2496C20.8822 71.3721 21.107 70.7478 21.949 70.3525ZM29.6174 73.3553H23.9768V76.8531H29.6174V73.3553Z" fill="#00ABEE"/>
<path d="M37.3413 70.3508L46.6001 70.3213C47.4109 70.4468 47.8772 70.9871 47.955 71.7754C48.099 73.2477 48.1417 77.2466 47.9542 78.6652C47.8414 79.5155 47.1685 79.9282 46.3692 80.0075C43.6327 80.2773 40.4497 79.7914 37.6644 80.0037C37.0205 79.907 36.391 79.4339 36.3133 78.7794C36.042 76.515 36.5259 73.7458 36.3095 71.4247C36.369 70.9856 36.8909 70.4407 37.3421 70.3508H37.3413ZM44.8939 73.355H39.2533V76.8528H44.8939V73.355Z" fill="#00ABEE"/>
<path d="M6.55206 59.0391C9.56211 59.2024 12.9699 58.7376 15.9335 59.0089C16.7359 59.0822 17.2092 59.6801 17.2854 60.4661C17.4324 61.9769 17.4614 65.7612 17.2823 67.2372C17.2053 67.8706 16.6894 68.5024 16.0486 68.578C13.1544 68.9189 9.60478 68.3127 6.63893 68.5818C5.9531 68.4034 5.60028 67.798 5.53017 67.1163C5.36481 65.4997 5.39529 62.345 5.52407 60.7011C5.58656 59.9045 5.76411 59.3626 6.55206 59.0391ZM14.2235 65.6599V62.2203C14.2235 62.2082 14.0597 62.0457 14.0475 62.0457H8.58289V65.6599H14.2235Z" fill="#00ABEE"/>
<path d="M32.1633 59.403C32.3531 59.5912 32.5253 59.9607 32.5588 60.2351C32.8294 62.4564 32.3447 65.1946 32.5619 67.4733C32.3523 68.0923 32.033 68.5163 31.3274 68.5798C28.3745 68.8451 25.0284 68.3651 22.032 68.5806C21.5954 68.5224 21.1168 68.0598 20.9797 67.6426C20.6383 66.6072 20.7084 62.3158 20.8006 61.0491C20.8707 60.0786 21.1305 59.1112 22.2683 59.0077C25.1053 58.75 28.3303 59.2163 31.21 59.0077C31.5171 58.9888 31.9507 59.1921 32.1633 59.403ZM29.6174 62.0452H23.9768V65.6594H29.6174V62.0452Z" fill="#00ABEE"/>
<path d="M37.3391 59.0388C40.3111 59.1998 43.677 58.7411 46.6032 59.0086C47.4056 59.0819 47.8789 59.6798 47.9551 60.4658C48.1662 62.6402 47.7813 65.1441 47.9551 67.3556C47.8918 67.8128 47.302 68.5271 46.8394 68.5807C43.8477 68.3623 40.4917 68.8498 37.5441 68.5807C36.8971 68.5218 36.4064 68.1288 36.3134 67.4705C36.5184 65.1464 36.0482 62.3893 36.3134 60.1196C36.3866 59.4931 36.824 59.2928 37.3391 59.0388ZM44.894 62.0454H39.2534V65.6596H44.894V62.0454Z" fill="#00ABEE"/>
<path d="M20.1848 4.94175L33.1943 4.92285C35.0354 5.45569 34.8358 7.74725 32.8484 7.94527C28.9345 8.33525 24.3829 7.6626 20.4012 7.93922C18.6828 7.62254 18.5167 5.48818 20.1856 4.94175H20.1848Z" fill="#00ABEE"/>
</g>
<defs>
<clipPath id="clip0_3060_7402">
<rect width="59" height="87" fill="white"/>
</clipPath>
</defs>
</svg>
