<svg width="48" height="48" viewBox="0 0 48 48" fill="none" xmlns="http://www.w3.org/2000/svg">
<path fill-rule="evenodd" clip-rule="evenodd" d="M14.8053 23.5C14.4336 23.5 14.1919 23.1088 14.3581 22.7764L14.8581 21.7764C14.9428 21.607 15.1159 21.5 15.3053 21.5H25.1873C25.559 21.5 25.8007 21.8912 25.6345 22.2236L25.1345 23.2236C25.0498 23.393 24.8767 23.5 24.6873 23.5H14.8053ZM24.1873 25.5C24.559 25.5 24.8007 25.8912 24.6345 26.2236L24.1345 27.2236C24.0498 27.393 23.8767 27.5 23.6873 27.5H14.8053C14.4336 27.5 14.1919 27.1088 14.3581 26.7764L14.8581 25.7764C14.9428 25.607 15.1159 25.5 15.3053 25.5H24.1873Z" fill="#00ABEE"/>
<path d="M23.9863 16.2539C24.4621 16.2539 24.9588 16.2997 25.4766 16.3906C25.9946 16.4816 26.4918 16.6216 26.9678 16.8105C27.4436 16.9995 27.8916 17.2338 28.3115 17.5137C28.7314 17.7936 29.0889 18.1296 29.3828 18.5215L27.3672 20.1182C26.9752 19.5862 26.464 19.1971 25.834 18.9521C25.2041 18.7072 24.5882 18.585 23.9863 18.585C23.2163 18.585 22.5157 18.7249 21.8857 19.0049C21.2558 19.2849 20.7138 19.6702 20.2588 20.1602C19.8038 20.6502 19.453 21.2238 19.208 21.8818C18.9631 22.5397 18.8409 23.2536 18.8408 24.0234C18.8408 24.8354 18.9602 25.578 19.1982 26.25C19.4362 26.9219 19.7758 27.4995 20.2168 27.9824C20.6577 28.4653 21.186 28.8395 21.8018 29.1055C22.4178 29.3715 23.1109 29.5049 23.8809 29.5049C24.6789 29.5049 25.386 29.3472 26.002 29.0322C26.6179 28.7172 27.1152 28.3011 27.4932 27.7832L29.6143 29.2734C28.9563 30.0994 28.1511 30.7403 27.1992 31.1953C26.2473 31.6503 25.1342 31.8779 23.8604 31.8779C22.6983 31.8779 21.6302 31.6858 20.6572 31.3008C19.6842 30.9158 18.8475 30.3766 18.1475 29.6836C17.4475 28.9906 16.9017 28.164 16.5098 27.2051C16.1179 26.2462 15.9219 25.1853 15.9219 24.0234C15.9219 22.8338 16.1282 21.7595 16.541 20.8008C16.954 19.8418 17.5212 19.0255 18.2422 18.3535C18.9632 17.6816 19.814 17.1638 20.7939 16.7998C21.7739 16.4358 22.8384 16.2539 23.9863 16.2539Z" fill="#00ABEE"/>
<path opacity="0.3" d="M34.1274 2.17773C34.3895 1.86569 34.8959 1.98466 34.9907 2.38086L37.6138 13.3779C37.6907 13.7008 37.4344 14.0067 37.103 13.9883L25.7905 13.3477C25.3828 13.3246 25.1765 12.846 25.439 12.5332L28.438 8.95898C26.7037 8.36614 24.8644 8.05569 22.9761 8.05566L22.5405 8.06152C13.4256 8.29261 6.10791 15.7542 6.10791 24.9248C6.10791 25.7973 6.17354 26.6544 6.30127 27.4912L2.45947 28.5889C2.24845 27.3993 2.13819 26.1749 2.13818 24.9248C2.13818 13.5964 11.1784 4.37922 22.438 4.09375L22.9761 4.08691C25.8712 4.08695 28.6278 4.68002 31.1333 5.74707L34.1274 2.17773Z" fill="#00ABEE"/>
<path opacity="0.3" d="M43.6694 19.166C43.8865 20.3767 43.9995 21.6233 43.9995 22.8965C43.9995 34.3133 34.889 43.6022 23.5415 43.8896L22.9995 43.8965C20.0822 43.8964 17.3045 43.2988 14.7798 42.2236L11.7612 45.8213C11.4971 46.1357 10.9874 46.0148 10.8921 45.6152L8.24854 34.5332C8.17118 34.2078 8.42929 33.8993 8.76318 33.918L20.1636 34.5645C20.5742 34.588 20.7824 35.0696 20.5181 35.3848L17.4956 38.9863C19.2432 39.5837 21.0966 39.8964 22.9995 39.8965L23.438 39.8906C32.6242 39.658 39.9995 32.1387 39.9995 22.8965C39.9995 22.0037 39.93 21.1271 39.7974 20.2715L43.6694 19.166Z" fill="#00ABEE"/>
</svg>
