<svg width="48" height="48" viewBox="0 0 48 48" fill="none" xmlns="http://www.w3.org/2000/svg">
<path opacity="0.3" fill-rule="evenodd" clip-rule="evenodd" d="M7.63636 13.0678L20.3636 6.01479C22.7208 4.70852 25.2792 4.70852 27.6364 6.01479L40.3636 13.0678C42.7208 14.3741 42.7208 15.7919 40.3636 17.0982L27.6364 24.1512C25.2792 25.4575 22.7208 25.4575 20.3636 24.1512L7.63636 17.0982C5.27919 15.7919 5.27919 14.3741 7.63636 13.0678Z" fill="#00ABEE"/>
<path fill-rule="evenodd" clip-rule="evenodd" d="M8.08218 22.7734L7.63638 23.0205C5.27921 24.3268 5.27921 25.7445 7.63638 27.0508L20.3637 34.1039C22.7208 35.4101 25.2792 35.4101 27.6364 34.1039L40.3637 27.0508C42.7208 25.7445 42.7208 24.3268 40.3637 23.0205L39.9179 22.7734L27.6364 29.5794C25.2792 30.8857 22.7208 30.8857 20.3637 29.5794L8.08218 22.7734Z" fill="#00ABEE"/>
<path fill-rule="evenodd" clip-rule="evenodd" d="M8.08303 31.6895L7.63635 31.937C5.27917 33.2433 5.27917 34.661 7.63635 35.9673L20.3636 43.0204C22.7208 44.3266 25.2792 44.3266 27.6364 43.0204L40.3636 35.9673C42.7208 34.661 42.7208 33.2433 40.3636 31.937L39.9169 31.6895L27.6364 38.495C25.2792 39.8012 22.7208 39.8012 20.3636 38.495L8.08303 31.6895Z" fill="#00ABEE"/>
</svg>
