<svg width="48" height="48" viewBox="0 0 48 48" fill="none" xmlns="http://www.w3.org/2000/svg">
<path fill-rule="evenodd" clip-rule="evenodd" d="M23.9754 7.44C24.5845 7.44 25.1936 7.58 25.8027 7.86C26.4119 8.14 26.9583 8.55 27.442 9.09C27.9257 9.63 28.2751 10.26 28.4901 10.98C28.7767 11.78 28.8484 12.66 28.705 13.62C28.5976 14.34 28.3467 15.02 27.9526 15.66C27.5585 16.3 27.0568 16.8 26.4477 17.16C25.5878 17.76 24.5845 18.02 23.4379 17.94C23.3304 18.1 23.2408 18.26 23.1692 18.42L17.1496 29.88C17.0421 30.12 16.9346 30.3 16.8271 30.42C15.8597 29.38 14.8116 28.67 13.6829 28.29C12.5543 27.91 11.3898 27.84 10.1894 28.08C8.98908 28.32 7.94103 28.84 7.04525 29.64C5.89866 30.64 5.11935 31.87 4.70729 33.33C4.29523 34.79 4.28627 36.26 4.68042 37.74C4.96706 38.86 5.47765 39.86 6.21218 40.74C6.94672 41.62 7.81562 42.28 8.81889 42.72C9.92965 43.24 11.121 43.41 12.393 43.23C13.665 43.05 14.8027 42.56 15.8059 41.76C15.9492 41.64 16.1821 41.44 16.5046 41.16L16.7734 40.8C16.9167 40.92 17.1137 41.12 17.3646 41.4L19.8906 44.16C19.0665 45.08 18.1349 45.85 17.0958 46.47C16.0567 47.09 14.9639 47.52 13.8173 47.76L12.6349 48H10.5388L9.03387 47.7C6.74069 47.18 4.76999 45.98 3.12177 44.1C2.33349 43.22 1.67957 42.21 1.16003 41.07C0.640479 39.93 0.291128 38.74 0.111973 37.5C-0.0671824 36.06 -0.0313475 34.63 0.219467 33.21C0.470282 31.79 0.918169 30.5 1.56313 29.34C2.20808 28.18 2.99636 27.16 3.92797 26.28C4.85957 25.4 5.88075 24.7 6.99151 24.18C8.20976 23.62 9.4728 23.3 10.7806 23.22C12.0885 23.14 13.3694 23.28 14.6235 23.64L15.5372 23.94L19.8906 15.72C19.4248 14.96 19.1382 14.22 19.0307 13.5C18.8515 12.22 19.0844 11.02 19.7294 9.9C20.3027 8.9 21.091 8.2 22.0942 7.8C22.7034 7.56 23.3304 7.44 23.9754 7.44Z" fill="#00ABEE" fill-opacity="0.59"/>
<path fill-rule="evenodd" clip-rule="evenodd" d="M23.9754 7.44C24.5845 7.44 25.1936 7.58 25.8027 7.86C26.4119 8.14 26.9583 8.55 27.442 9.09C27.9257 9.63 28.2751 10.26 28.4901 10.98C28.7767 11.78 28.8484 12.66 28.705 13.62C28.5976 14.34 28.3467 15.02 27.9526 15.66C27.5585 16.3 27.0568 16.8 26.4477 17.16C25.5878 17.76 24.5845 18.02 23.4379 17.94C23.3304 18.1 23.2408 18.26 23.1692 18.42L17.1496 29.88C17.0421 30.12 16.9346 30.3 16.8271 30.42C15.8597 29.38 14.8116 28.67 13.6829 28.29C12.5543 27.91 11.3898 27.84 10.1894 28.08C8.98908 28.32 7.94103 28.84 7.04525 29.64C5.89866 30.64 5.11935 31.87 4.70729 33.33C4.29523 34.79 4.28627 36.26 4.68042 37.74C4.96706 38.86 5.47765 39.86 6.21218 40.74C6.94672 41.62 7.81562 42.28 8.81889 42.72C9.92965 43.24 11.121 43.41 12.393 43.23C13.665 43.05 14.8027 42.56 15.8059 41.76C15.9492 41.64 16.1821 41.44 16.5046 41.16L16.7734 40.8C16.9167 40.92 17.1137 41.12 17.3646 41.4L19.8906 44.16C19.0665 45.08 18.1349 45.85 17.0958 46.47C16.0567 47.09 14.9639 47.52 13.8173 47.76L12.6349 48H10.5388L9.03387 47.7C6.74069 47.18 4.76999 45.98 3.12177 44.1C2.33349 43.22 1.67957 42.21 1.16003 41.07C0.640479 39.93 0.291128 38.74 0.111973 37.5C-0.0671824 36.06 -0.0313475 34.63 0.219467 33.21C0.470282 31.79 0.918169 30.5 1.56313 29.34C2.20808 28.18 2.99636 27.16 3.92797 26.28C4.85957 25.4 5.88075 24.7 6.99151 24.18C8.20976 23.62 9.4728 23.3 10.7806 23.22C12.0885 23.14 13.3694 23.28 14.6235 23.64L15.5372 23.94L19.8906 15.72C19.4248 14.96 19.1382 14.22 19.0307 13.5C18.8515 12.22 19.0844 11.02 19.7294 9.9C20.3027 8.9 21.091 8.2 22.0942 7.8C22.7034 7.56 23.3304 7.44 23.9754 7.44Z" fill="#00ABEE" fill-opacity="0.3"/>
<path fill-rule="evenodd" clip-rule="evenodd" d="M24.9428 0H24.9965L25.534 0.12C26.7164 0.28 27.872 0.65 29.0007 1.23C30.1293 1.81 31.1236 2.58 31.9836 3.54C33.4526 5.02 34.4738 6.84 35.0471 9C35.3696 10.2 35.5129 11.46 35.4771 12.78C35.4413 14.1 35.2263 15.36 34.8321 16.56C34.223 18.36 33.2914 19.92 32.0373 21.24L31.3386 21.96L35.7996 30.06C36.7312 30.02 37.5374 30.16 38.2182 30.48C39.2931 31 40.0993 31.8 40.6367 32.88C40.8876 33.48 41.0488 34.1 41.1205 34.74C41.1921 35.38 41.1563 36.02 41.013 36.66C40.7263 37.86 40.1351 38.82 39.2393 39.54C38.7019 39.94 38.1107 40.23 37.4657 40.41C36.8208 40.59 36.1758 40.63 35.5308 40.53C34.8859 40.43 34.2678 40.18 33.6766 39.78C33.0854 39.38 32.5927 38.88 32.1986 38.28C31.7686 37.6 31.5088 36.82 31.4192 35.94C31.3297 35.06 31.4282 34.24 31.7148 33.48C31.7507 33.28 31.8761 33 32.0911 32.64L32.2523 32.28L25.9102 20.76C25.6953 20.4 25.5519 20.12 25.4803 19.92L26.0177 19.74C26.3402 19.66 26.5731 19.58 26.7164 19.5C27.5405 19.1 28.284 18.55 28.9469 17.85C29.6098 17.15 30.1204 16.36 30.4787 15.48C31.0878 14.04 31.249 12.54 30.9624 10.98C30.8191 10.06 30.5145 9.2 30.0487 8.4C29.5829 7.6 29.0275 6.92 28.3826 6.36C27.0568 5.28 25.5878 4.74 23.9754 4.74C23.0079 4.7 22.0674 4.89 21.1537 5.31C20.24 5.73 19.4428 6.34 18.762 7.14C18.1528 7.78 17.6781 8.55 17.3377 9.45C16.9973 10.35 16.8092 11.26 16.7734 12.18C16.7734 12.86 16.8808 13.7 17.0958 14.7L13.3336 15.84L12.9036 15.9C12.402 14.18 12.2766 12.46 12.5274 10.74C12.6707 9.42 13.0201 8.15 13.5754 6.93C14.1308 5.71 14.8385 4.64 15.6984 3.72C17.2033 2.04 19.0486 0.92 21.2343 0.36C21.4493 0.28 21.7718 0.2 22.2017 0.12L22.9542 0H24.9428Z" fill="#00ABEE"/>
<path fill-rule="evenodd" clip-rule="evenodd" d="M24.9428 0H24.9965L25.534 0.12C26.7164 0.28 27.872 0.65 29.0007 1.23C30.1293 1.81 31.1236 2.58 31.9836 3.54C33.4526 5.02 34.4738 6.84 35.0471 9C35.3696 10.2 35.5129 11.46 35.4771 12.78C35.4413 14.1 35.2263 15.36 34.8321 16.56C34.223 18.36 33.2914 19.92 32.0373 21.24L31.3386 21.96L35.7996 30.06C36.7312 30.02 37.5374 30.16 38.2182 30.48C39.2931 31 40.0993 31.8 40.6367 32.88C40.8876 33.48 41.0488 34.1 41.1205 34.74C41.1921 35.38 41.1563 36.02 41.013 36.66C40.7263 37.86 40.1351 38.82 39.2393 39.54C38.7019 39.94 38.1107 40.23 37.4657 40.41C36.8208 40.59 36.1758 40.63 35.5308 40.53C34.8859 40.43 34.2678 40.18 33.6766 39.78C33.0854 39.38 32.5927 38.88 32.1986 38.28C31.7686 37.6 31.5088 36.82 31.4192 35.94C31.3297 35.06 31.4282 34.24 31.7148 33.48C31.7507 33.28 31.8761 33 32.0911 32.64L32.2523 32.28L25.9102 20.76C25.6953 20.4 25.5519 20.12 25.4803 19.92L26.0177 19.74C26.3402 19.66 26.5731 19.58 26.7164 19.5C27.5405 19.1 28.284 18.55 28.9469 17.85C29.6098 17.15 30.1204 16.36 30.4787 15.48C31.0878 14.04 31.249 12.54 30.9624 10.98C30.8191 10.06 30.5145 9.2 30.0487 8.4C29.5829 7.6 29.0275 6.92 28.3826 6.36C27.0568 5.28 25.5878 4.74 23.9754 4.74C23.0079 4.7 22.0674 4.89 21.1537 5.31C20.24 5.73 19.4428 6.34 18.762 7.14C18.1528 7.78 17.6781 8.55 17.3377 9.45C16.9973 10.35 16.8092 11.26 16.7734 12.18C16.7734 12.86 16.8808 13.7 17.0958 14.7L13.3336 15.84L12.9036 15.9C12.402 14.18 12.2766 12.46 12.5274 10.74C12.6707 9.42 13.0201 8.15 13.5754 6.93C14.1308 5.71 14.8385 4.64 15.6984 3.72C17.2033 2.04 19.0486 0.92 21.2343 0.36C21.4493 0.28 21.7718 0.2 22.2017 0.12L22.9542 0H24.9428Z" fill="#00ABEE" fill-opacity="0.3"/>
<path d="M44.5065 26.46C43.0016 24.86 41.21 23.8 39.1318 23.28L38.0032 27.84L38.4869 28.02C39.2752 28.26 40.0097 28.64 40.6905 29.16C41.3713 29.68 41.9446 30.32 42.4104 31.08C43.1987 32.36 43.6107 33.74 43.6465 35.22C43.6824 36.98 43.1987 38.56 42.1954 39.96C41.4071 41.12 40.3859 41.97 39.1318 42.51C37.8778 43.05 36.6237 43.2 35.3696 42.96C34.2588 42.8 33.2377 42.36 32.3061 41.64C31.3745 40.92 30.6578 40.02 30.1562 38.94C29.4038 37.42 29.1709 35.8 29.4575 34.08L29.6187 33.06L26.9314 33.12C25.9282 33.12 25.1578 33.14 24.6203 33.18L18.547 33.24C17.5437 33.28 16.7913 33.3 16.2896 33.3L16.1284 32.94C15.5909 31.94 14.8206 31.2 13.8173 30.72C13.2082 30.44 12.5722 30.29 11.9093 30.27C11.2464 30.25 10.6104 30.38 10.0013 30.66C9.10554 31.06 8.371 31.7 7.7977 32.58C7.43939 33.14 7.19754 33.74 7.07213 34.38C6.94672 35.02 6.91985 35.68 6.99151 36.36C7.17066 37.68 7.74396 38.76 8.71139 39.6C9.49967 40.28 10.3955 40.68 11.3987 40.8C12.0437 40.84 12.6797 40.76 13.3067 40.56C13.9338 40.36 14.4981 40.04 14.9997 39.6C15.5014 39.16 15.9492 38.54 16.3434 37.74C16.5584 37.7 16.9167 37.68 17.4183 37.68L24.1366 37.56C24.5666 37.52 24.8891 37.52 25.104 37.56C25.3549 38.68 25.6057 39.58 25.8565 40.26C26.7523 42.54 28.1497 44.36 30.0487 45.72C31.1953 46.52 32.4494 47.09 33.811 47.43C35.1725 47.77 36.5341 47.86 37.8957 47.7C40.2247 47.38 42.285 46.4 44.0765 44.76C44.9723 43.92 45.7337 42.94 46.3607 41.82C46.9878 40.7 47.4267 39.52 47.6775 38.28C47.7492 38 47.8208 37.6 47.8925 37.08L48 36.42V34.2L47.785 32.76C47.2834 30.32 46.1905 28.22 44.5065 26.46Z" fill="#00ABEE" fill-opacity="0.3"/>
<path d="M44.5065 26.46C43.0016 24.86 41.21 23.8 39.1318 23.28L38.0032 27.84L38.4869 28.02C39.2752 28.26 40.0097 28.64 40.6905 29.16C41.3713 29.68 41.9446 30.32 42.4104 31.08C43.1987 32.36 43.6107 33.74 43.6465 35.22C43.6824 36.98 43.1987 38.56 42.1954 39.96C41.4071 41.12 40.3859 41.97 39.1318 42.51C37.8778 43.05 36.6237 43.2 35.3696 42.96C34.2588 42.8 33.2377 42.36 32.3061 41.64C31.3745 40.92 30.6578 40.02 30.1562 38.94C29.4038 37.42 29.1709 35.8 29.4575 34.08L29.6187 33.06L26.9314 33.12C25.9282 33.12 25.1578 33.14 24.6203 33.18L18.547 33.24C17.5437 33.28 16.7913 33.3 16.2896 33.3L16.1284 32.94C15.5909 31.94 14.8206 31.2 13.8173 30.72C13.2082 30.44 12.5722 30.29 11.9093 30.27C11.2464 30.25 10.6104 30.38 10.0013 30.66C9.10554 31.06 8.371 31.7 7.7977 32.58C7.43939 33.14 7.19754 33.74 7.07213 34.38C6.94672 35.02 6.91985 35.68 6.99151 36.36C7.17066 37.68 7.74396 38.76 8.71139 39.6C9.49967 40.28 10.3955 40.68 11.3987 40.8C12.0437 40.84 12.6797 40.76 13.3067 40.56C13.9338 40.36 14.4981 40.04 14.9997 39.6C15.5014 39.16 15.9492 38.54 16.3434 37.74C16.5584 37.7 16.9167 37.68 17.4183 37.68L24.1366 37.56C24.5666 37.52 24.8891 37.52 25.104 37.56C25.3549 38.68 25.6057 39.58 25.8565 40.26C26.7523 42.54 28.1497 44.36 30.0487 45.72C31.1953 46.52 32.4494 47.09 33.811 47.43C35.1725 47.77 36.5341 47.86 37.8957 47.7C40.2247 47.38 42.285 46.4 44.0765 44.76C44.9723 43.92 45.7337 42.94 46.3607 41.82C46.9878 40.7 47.4267 39.52 47.6775 38.28C47.7492 38 47.8208 37.6 47.8925 37.08L48 36.42V34.2L47.785 32.76C47.2834 30.32 46.1905 28.22 44.5065 26.46Z" fill="#00ABEE" fill-opacity="0.3"/>
</svg>
