<svg xmlns="http://www.w3.org/2000/svg" viewBox="0 0 1070.19009 147.24215"><defs><style>.cls-1{fill:#e5f6fd;}.cls-2{fill:#00abee;}.cls-3{fill:#004a71;}</style></defs><g id="Layer_2" data-name="Layer 2"><g id="Layer_1-2" data-name="Layer 1"><rect class="cls-1" x="792.19009" width="278" height="147.24215" rx="17.50842"/><path class="cls-2" d="M.57521,24.05678H24.6907L47.93454,81.58527l22.66275-57.5285H94.42222V107.1535H74.37441V57.17925L55.77933,106.863H39.50865L21.20411,56.8887V106.863H.57521Z"/><path class="cls-2" d="M169.67413,106.863H149.62634V97.856a24.21521,24.21521,0,0,1-19.75727,9.58808c-15.10849,0-25.56823-10.45972-25.56823-28.18316V40.90856h20.04779V76.93651c0,9.007,4.93931,13.9463,12.49357,13.9463,7.84479,0,12.7841-4.93932,12.7841-13.9463V40.90856h20.04779V106.863Z"/><path class="cls-2" d="M179.55279,19.69856h20.0478V107.1535h-20.0478Z"/><path class="cls-2" d="M212.67525,57.76035h-8.13536V40.90856h8.13536V24.05678H232.723V40.90856H245.7977V57.4698H233.01361V84.20022c0,3.77712,1.7433,5.52042,6.10152,5.52042h7.2637V106.863H236.20965c-13.65574,0-23.24384-5.811-23.24384-22.95329V57.76036Z"/><path class="cls-2" d="M251.02757,23.47568c0-6.1015,4.93931-11.04082,11.91249-11.04082,6.97313,0,11.91248,4.93932,11.91248,11.04082S269.91324,34.226,262.94006,34.226C255.67636,34.226,251.02757,29.28664,251.02757,23.47568Zm1.74331,17.43288h20.04779V106.863H252.77088Z"/><path class="cls-3" d="M313.20487,107.7346c-17.72344,0-31.96028-8.71644-32.54137-25.85876H302.164c.58109,6.39206,4.64878,9.29754,10.16918,9.29754,5.811,0,9.58809-2.90548,9.58809-7.8448,0-15.399-41.54837-6.97316-41.25781-36.60905,0-15.68959,12.7841-24.69657,30.50754-24.69657,18.014,0,30.50754,9.007,31.08863,24.98712h-21.7911c-.29056-5.22986-4.06765-8.4259-9.58809-8.71644-4.93931,0-8.42588,2.32438-8.42588,7.55424,0,14.23686,40.96729,7.8448,40.96729,35.7374C343.42185,96.11268,332.381,107.7346,313.20487,107.7346Z"/><path class="cls-3" d="M376.25378,40.03692c9.87861,0,16.56122,4.35822,20.33836,10.16918V40.90856h20.04779V106.863H396.59214V97.56542c-3.77714,5.811-10.45975,10.16918-20.33836,10.16918-15.98014,0-29.0548-13.07466-29.0548-34.28466C346.90841,53.11158,359.98307,40.03692,376.25378,40.03692Zm5.811,17.43288c-7.55427,0-14.23684,5.52042-14.23684,15.98014s6.68262,16.27068,14.23684,16.27068,14.23683-5.81095,14.23683-16.27068C396.30157,63.28076,389.619,57.4698,382.06474,57.4698Z"/><path class="cls-3" d="M428.55242,57.76035h-7.2637V40.90856h7.2637V39.16528c0-17.14233,10.45974-25.85877,30.7981-24.98713V31.611c-7.84478-.5811-10.45974,1.74328-10.45974,8.71644v.58109H459.641V57.4698H448.89078v49.10262H428.843V57.76035Z"/><path class="cls-3" d="M493.63519,107.7346c-19.17618,0-33.413-13.07466-33.413-33.99411s13.65579-33.99412,33.413-33.99412c19.17619,0,32.83189,12.78411,32.83189,32.83192a40.9188,40.9188,0,0,1-.29056,5.811H480.27c.58113,8.71644,6.10153,12.49356,12.49353,12.49356a10.99478,10.99478,0,0,0,10.45974-6.39206h21.50054C522.10886,97.856,510.48694,107.7346,493.63519,107.7346ZM480.56054,67.639h25.56818c0-7.2637-5.52039-11.33137-12.203-11.33137C486.95254,56.30761,481.72271,60.08473,480.56054,67.639Z"/><path class="cls-3" d="M573.24533,40.03692c15.98014,0,29.34536,13.07466,29.34536,33.99412,0,20.6289-12.78409,34.28466-29.34536,34.28466-9.588,0-16.56127-4.64876-20.33836-10.16918v40.09563h-20.0478V40.90856H552.907V50.2061C556.68406,44.39514,563.65719,40.03692,573.24533,40.03692ZM567.1438,57.4698c-7.55426,0-14.23683,5.811-14.23683,16.27069s6.68257,16.27068,14.23683,16.27068,14.5274-5.811,14.5274-16.27068S574.69807,57.4698,567.1438,57.4698Z"/><path class="cls-3" d="M635.42258,40.03692c9.87862,0,16.56127,4.35822,20.33836,10.16918V40.90856h20.0478V106.863h-20.0478V97.56542c-3.77709,5.811-10.45974,10.16918-20.33836,10.16918-15.98014,0-29.0548-13.07466-29.0548-34.28466C606.65835,53.11158,619.44244,40.03692,635.42258,40.03692Zm6.39209,17.43288c-7.55426,0-14.23683,5.52042-14.23683,15.98014s6.68257,16.27068,14.23683,16.27068,14.23684-5.81095,14.23684-16.27068C656.05151,63.28076,649.36885,57.4698,641.81467,57.4698Z"/><path class="cls-3" d="M734.2089,40.90856H756l-41.54833,97.33357H692.95114l15.10853-33.413-27.02093-63.63H703.411L718.5195,82.45691Z"/><path class="cls-2" d="M842.19009,97.14186V50.1534h16.95583a25.22983,25.22983,0,0,1,12.37431,3.09375,23.47806,23.47806,0,0,1,8.89593,8.47792,23.40655,23.40655,0,0,1,.0167,23.86182,23.41688,23.41688,0,0,1-8.86255,8.46122,25.05985,25.05985,0,0,1-12.32424,3.09375Zm17.35715-8.59476a15.18071,15.18071,0,0,0,7.60849-1.93986,14.142,14.142,0,0,0,5.38486-5.33477,15.74574,15.74574,0,0,0-.0167-15.23368,14.20677,14.20677,0,0,0-5.41824-5.35077,15.33861,15.33861,0,0,0-7.65857-1.93986h-8.19343V88.5471Z"/><path class="cls-2" d="M900.16388,94.70052a24.6648,24.6648,0,0,1-8.79578-33.37678,23.82344,23.82344,0,0,1,8.79578-8.77908,25.01657,25.01657,0,0,1,24.581,0A24.01049,24.01049,0,0,1,936.768,73.5972a24.43717,24.43717,0,0,1-36.60408,21.10332Zm19.83257-7.525a15.65813,15.65813,0,0,0,7.57441-13.54491,15.6174,15.6174,0,0,0-2.05671-7.92566,15.25318,15.25318,0,0,0-5.53439-5.63524,14.7388,14.7388,0,0,0-15.05006.01669,15.39,15.39,0,0,0-5.53509,5.65194,16.17236,16.17236,0,0,0,0,15.78523,15.38486,15.38486,0,0,0,5.53509,5.65195,14.72236,14.72236,0,0,0,15.06675,0Z"/><path class="cls-2" d="M953.23273,94.70052A24.66478,24.66478,0,0,1,944.437,61.32374a23.82349,23.82349,0,0,1,8.79577-8.77908,24.072,24.072,0,0,1,12.29085-3.2273,24.29218,24.29218,0,0,1,15.8854,5.78549l-5.11638,6.85592a18.19234,18.19234,0,0,0-5.00022-2.85936,15.96116,15.96116,0,0,0-5.7688-1.08713,14.434,14.434,0,0,0-7.525,2.0741,15.39,15.39,0,0,0-5.53509,5.65194,16.17229,16.17229,0,0,0,0,15.78523,15.38486,15.38486,0,0,0,5.53509,5.65195,14.43332,14.43332,0,0,0,7.525,2.0734,15.57724,15.57724,0,0,0,5.61856-.98628,20.35306,20.35306,0,0,0,5.25062-3.09375l5.01622,6.92269a24.50776,24.50776,0,0,1-7.29063,4.31442,24.85335,24.85335,0,0,1-20.88562-1.70546Z"/><path class="cls-2" d="M992.54871,95.72018a24.09283,24.09283,0,0,1-8.54468-6.27027l5.81887-5.88634a18.509,18.509,0,0,0,6.05327,4.38119,16.99488,16.99488,0,0,0,6.99015,1.50515,10.22111,10.22111,0,0,0,5.96911-1.53853,4.908,4.908,0,0,0,2.191-4.24765,4.40433,4.40433,0,0,0-1.05374-3.0096,8.77665,8.77665,0,0,0-3.21061-2.12348,50.60378,50.60378,0,0,0-6.00319-1.98993,38.49706,38.49706,0,0,1-6.906-2.57558,14.46462,14.46462,0,0,1-5.13377-4.28034,11.29062,11.29062,0,0,1-2.10678-7.02354,12.385,12.385,0,0,1,7.30732-11.50489,19.85886,19.85886,0,0,1,8.77908-1.77224,24.61651,24.61651,0,0,1,9.11363,1.65539,23.64058,23.64058,0,0,1,7.475,4.69905l-5.18384,6.2202a17.17493,17.17493,0,0,0-5.0503-3.09306,15.66492,15.66492,0,0,0-5.9865-1.22137,10.56383,10.56383,0,0,0-3.82894.65242,6.05289,6.05289,0,0,0-2.64235,1.85639,4.39166,4.39166,0,0,0-.95288,2.80928,3.534,3.534,0,0,0,1.03635,2.60827,8.07406,8.07406,0,0,0,2.7425,1.72284q1.70581.68546,4.98284,1.68877l.73588.2337a48.68849,48.68849,0,0,1,8.07659,3.29476,14.6152,14.6152,0,0,1,5.08368,4.3805,11.05769,11.05769,0,0,1,1.88978,6.57214,13.37964,13.37964,0,0,1-2.19094,7.64188,14.123,14.123,0,0,1-6.08666,5.01622,21.39693,21.39693,0,0,1-8.87924,1.75623A25.875,25.875,0,0,1,992.54871,95.72018Z"/><path class="cls-2" d="M0,23.74695H24.13543L47.39835,81.123l22.68142-57.376h23.8447v82.58664H73.86V56.78142L55.24956,106.33359H38.96565L20.646,56.49174v49.84185H0Z"/><path class="cls-2" d="M169.23789,106.33268H149.175V97.34946a24.26732,24.26732,0,0,1-19.77464,9.56258c-15.12095,0-25.58943-10.43193-25.58943-28.10836V40.5531h20.06442V76.4853c0,8.98322,4.94351,13.90935,12.504,13.90935,7.8512,0,12.79565-4.92613,12.79565-13.90935V40.5531h20.06291Z"/><path class="cls-2" d="M179.12488,19.40111h20.066v86.93248h-20.066Z"/><path class="cls-2" d="M212.27421,57.09519h-8.14135V40.554h8.14135V23.74695h20.066V40.554h13.08331V57.07141H232.62909V83.73109c0,3.76709,1.74564,5.50578,6.10678,5.50578h7.27156v17.09672h-10.179c-13.66723,0-23.2623-5.79548-23.2623-22.89253V57.09519Z"/><path class="cls-2" d="M250.65746,23.16758c0-6.08544,4.94507-11.01159,11.92467-11.01159,6.9765,0,11.92156,4.92613,11.92156,11.01159,0,6.08516-4.94506,10.72191-11.92156,10.72191C255.31053,33.88949,250.65746,28.96306,250.65746,23.16758Zm1.74571,17.38674h20.066V106.3339h-20.066Z"/><path class="cls-3" d="M312.887,107.20387c-17.73641,0-31.98451-8.69322-32.56844-25.79028h21.5197c.58085,6.37515,4.6531,9.27288,10.17592,9.27288,5.81785,0,9.59813-2.89773,9.59813-7.82386,0-15.35836-41.58261-6.95479-41.29375-36.51219,0-15.648,12.79439-24.63093,30.53387-24.63093,18.02834,0,30.53386,8.9829,31.11475,24.92092H320.15851c-.292-5.21609-4.07221-8.40384-9.59813-8.69349-4.942,0-8.43331,2.31838-8.43331,7.53419,0,14.19931,41.00178,7.82414,41.00178,35.64283C343.12882,95.61291,332.08008,107.20387,312.887,107.20387Z"/><path class="cls-3" d="M375.98925,39.68529c9.887,0,16.57466,4.34674,20.35491,10.14223V40.55464h20.063v65.77988H396.34416V97.06163c-3.78025,5.79547-10.46792,10.14224-20.35488,10.14224-15.99377,0-29.08015-13.0403-29.08015-34.19382C346.62017,52.72557,359.70351,39.68529,375.98925,39.68529ZM381.80407,57.072c-7.56049,0-14.24813,5.5058-14.24813,15.938,0,10.43192,6.68767,16.2274,14.24813,16.2274s14.24809-5.79548,14.24809-16.2274C396.05216,62.86781,389.36456,57.072,381.80407,57.072Z"/><path class="cls-3" d="M428.32861,57.09519h-7.2685V40.554h7.2685V38.81533c0-17.09676,10.47095-25.79015,30.82583-24.92084V31.28113c-7.85243-.57966-10.46786,1.7387-10.46786,8.69349V40.554h10.75681V57.07141H448.68665v49.26218h-20.066V57.09519Z"/><path class="cls-3" d="M493.46554,107.20294c-19.19006,0-33.43815-13.04-33.43815-33.90414,0-20.86384,13.6672-33.90382,33.43815-33.90382,19.19323,0,32.86044,12.75,32.86044,32.74479a40.5024,40.5024,0,0,1-.292,5.79547H480.09027c.58082,8.69349,6.10678,12.46063,12.50245,12.46063a11.01039,11.01039,0,0,0,10.471-6.37515h21.51665C521.96484,97.35039,510.33217,107.20294,493.46554,107.20294ZM480.3822,67.21365H505.971c0-7.2445-5.526-11.30127-12.21356-11.30127C486.77787,55.91242,481.544,59.67947,480.3822,67.21365Z"/><path class="cls-3" d="M573.14251,39.68529c15.99381,0,29.36908,13.04028,29.36908,33.90412,0,20.57416-12.79438,34.19382-29.36908,34.19382-9.595,0-16.57463-4.63645-20.35488-10.14224V138.1003h-20.066V40.55464h20.066v9.27288C556.56782,44.03205,563.54748,39.68529,573.14251,39.68529ZM567.03573,57.072c-7.56049,0-14.2481,5.79579-14.2481,16.22771s6.68761,16.22741,14.2481,16.22741,14.5401-5.79548,14.5401-16.22741S574.59622,57.072,567.03573,57.072Z"/><path class="cls-3" d="M635.372,39.68529c9.887,0,16.5747,4.34674,20.35494,10.14223V40.55464h20.06288v65.77988H655.7269V97.06163c-3.78024,5.79547-10.46791,10.14224-20.35494,10.14224-15.99374,0-29.08012-13.0403-29.08012-34.19382C606.58377,52.72557,619.37822,39.68529,635.372,39.68529ZM641.76764,57.072c-7.56056,0-14.24817,5.5058-14.24817,15.938,0,10.43192,6.68761,16.2274,14.24817,16.2274,7.56049,0,14.24809-5.79548,14.24809-16.2274,0-10.14224-6.6876-15.938-14.248-15.938Z"/><path class="cls-3" d="M734.23905,40.5531h21.80859L714.55723,137.105H693.04367l15.02572-32.80076L680.86643,40.55H703.259L718.53731,81.9911Z"/></g></g></svg>