<svg xmlns="http://www.w3.org/2000/svg" viewBox="0 0 1070.18994 147.23999"><defs><style>.cls-1{fill:#fff;}</style></defs><g id="Layer_2" data-name="Layer 2"><g id="Layer_1-2" data-name="Layer 1"><path class="cls-1" d="M872.52,66.04a15.70289,15.70289,0,0,1,.02,15.23,14.07992,14.07992,0,0,1-5.38,5.34009,15.24911,15.24911,0,0,1-7.61,1.93994h-8.3V58.75h8.2a15.38207,15.38207,0,0,1,7.66,1.94006A14.1826,14.1826,0,0,1,872.52,66.04Z"/><path class="cls-1" d="M925.51,65.71a15.19648,15.19648,0,0,0-5.53-5.63989,14.71224,14.71224,0,0,0-15.05.02,15.40036,15.40036,0,0,0-5.54,5.6499,15.81462,15.81462,0,0,0,5.54,21.44006,14.74934,14.74934,0,0,0,15.07,0A16.02112,16.02112,0,0,0,925.51,65.71Zm0,0a15.19648,15.19648,0,0,0-5.53-5.63989,14.71224,14.71224,0,0,0-15.05.02,15.40036,15.40036,0,0,0-5.54,5.6499,15.81462,15.81462,0,0,0,5.54,21.44006,14.74934,14.74934,0,0,0,15.07,0A16.02112,16.02112,0,0,0,925.51,65.71ZM1052.67993,0H809.7a17.51073,17.51073,0,0,0-17.51,17.51V129.74a17.50211,17.50211,0,0,0,17.51,17.5h242.97992a17.50207,17.50207,0,0,0,17.51-17.5V17.51A17.51068,17.51068,0,0,0,1052.67993,0ZM880.43,85.59009a23.3902,23.3902,0,0,1-8.86,8.46,25.0658,25.0658,0,0,1-12.32,3.09H842.19V50.16h16.96a25.25813,25.25813,0,0,1,12.37,3.09,23.47631,23.47631,0,0,1,8.9,8.48,23.42817,23.42817,0,0,1,.01,23.86011Zm53.11.28a24.36,24.36,0,0,1-42.17,0,24.92055,24.92055,0,0,1,0-24.54,23.735,23.735,0,0,1,8.79-8.78,24.99661,24.99661,0,0,1,24.58,0,23.68754,23.68754,0,0,1,8.8,8.78,24.92021,24.92021,0,0,1,0,24.54ZM952.46,81.53a15.47742,15.47742,0,0,0,5.54,5.65,14.46167,14.46167,0,0,0,7.52,2.07,15.54574,15.54574,0,0,0,5.62-.99,19.864,19.864,0,0,0,5.25-3.09l5.0199,6.92005A24.37965,24.37965,0,0,1,974.12,96.41,24.831,24.831,0,0,1,953.23,94.7,24.19395,24.19395,0,0,1,941.21,73.6001a24.066,24.066,0,0,1,24.31-24.28,24.28943,24.28943,0,0,1,15.88989,5.78L976.29,61.96a18.26674,18.26674,0,0,0-5-2.85986A16.005,16.005,0,0,0,965.52,58.01,14.47048,14.47048,0,0,0,958,60.09009a15.4009,15.4009,0,0,0-5.54,5.6499,16.22783,16.22783,0,0,0,0,15.79ZM1018,91.11011a14.12641,14.12641,0,0,1-6.09009,5.01A21.391,21.391,0,0,1,1003.03,97.88a25.83849,25.83849,0,0,1-10.48-2.16A24.17751,24.17751,0,0,1,984,89.45l5.82007-5.87988A18.73078,18.73078,0,0,0,995.88,87.95a17.03511,17.03511,0,0,0,6.99,1.5,10.19244,10.19244,0,0,0,5.97009-1.53992,4.89689,4.89689,0,0,0,2.18994-4.24,4.35844,4.35844,0,0,0-1.06006-3.01,8.7404,8.7404,0,0,0-3.21-2.13,52.79826,52.79826,0,0,0-6-1.99A38.51558,38.51558,0,0,1,993.85,73.97a14.55916,14.55916,0,0,1-5.13-4.27991,11.27789,11.27789,0,0,1-2.11-7.03,12.38458,12.38458,0,0,1,7.30993-11.5,19.86243,19.86243,0,0,1,8.78-1.77,24.67131,24.67131,0,0,1,9.11011,1.65,23.78018,23.78018,0,0,1,7.48,4.7L1014.1,61.96a16.94825,16.94825,0,0,0-5.04993-3.08984,15.52251,15.52251,0,0,0-5.98-1.2201,10.43,10.43,0,0,0-3.83008.65,5.90873,5.90873,0,0,0-2.64,1.86,4.34348,4.34348,0,0,0-.96,2.79993,3.54268,3.54268,0,0,0,1.03992,2.61011,8.10693,8.10693,0,0,0,2.74,1.73c1.14014.45,2.8,1.02,4.9801,1.67993l.74.24a48.64407,48.64407,0,0,1,8.08,3.29,14.63733,14.63733,0,0,1,5.08008,4.38,11.093,11.093,0,0,1,1.88989,6.58A13.39056,13.39056,0,0,1,1018,91.11011Zm-98.02-31.04a14.71224,14.71224,0,0,0-15.05.02,15.40036,15.40036,0,0,0-5.54,5.6499,15.81462,15.81462,0,0,0,5.54,21.44006,14.74934,14.74934,0,0,0,15.07,0A16.02112,16.02112,0,0,0,925.51,65.71,15.19648,15.19648,0,0,0,919.98,60.07007ZM925.51,65.71a15.19648,15.19648,0,0,0-5.53-5.63989,14.71224,14.71224,0,0,0-15.05.02,15.40036,15.40036,0,0,0-5.54,5.6499,15.81462,15.81462,0,0,0,5.54,21.44006,14.74934,14.74934,0,0,0,15.07,0A16.02112,16.02112,0,0,0,925.51,65.71Zm0,0a15.19648,15.19648,0,0,0-5.53-5.63989,14.71224,14.71224,0,0,0-15.05.02,15.40036,15.40036,0,0,0-5.54,5.6499,15.81462,15.81462,0,0,0,5.54,21.44006,14.74934,14.74934,0,0,0,15.07,0A16.02112,16.02112,0,0,0,925.51,65.71Z"/><path class="cls-1" d="M0,23.74907H24.13543l23.26292,57.376,22.68142-57.376h23.8447v82.58664H73.86V56.78354L55.24956,106.33571H38.96565L20.646,56.49386v49.84185H0Z"/><path class="cls-1" d="M169.23789,106.3348H149.175V97.35158a24.26732,24.26732,0,0,1-19.77464,9.56258c-15.12095,0-25.58943-10.43193-25.58943-28.10836V40.55522h20.06442v35.9322c0,8.98322,4.94351,13.90935,12.504,13.90935,7.8512,0,12.79565-4.92613,12.79565-13.90935V40.55522h20.06291Z"/><path class="cls-1" d="M179.12488,19.40323h20.066v86.93248h-20.066Z"/><path class="cls-1" d="M212.27421,57.09731h-8.14135V40.55614h8.14135V23.74907h20.066V40.55614h13.08331V57.07353H232.62909V83.73321c0,3.76709,1.74564,5.50578,6.10678,5.50578h7.27156v17.09672h-10.179c-13.66723,0-23.2623-5.79548-23.2623-22.89253V57.09731Z"/><path class="cls-1" d="M250.65746,23.1697c0-6.08544,4.94507-11.01159,11.92467-11.01159,6.9765,0,11.92156,4.92613,11.92156,11.01159,0,6.08516-4.94506,10.72191-11.92156,10.72191C255.31053,33.89161,250.65746,28.96518,250.65746,23.1697Zm1.74571,17.38674h20.066V106.336h-20.066Z"/><path class="cls-1" d="M312.887,107.206c-17.73641,0-31.98451-8.69323-32.56844-25.79028h21.5197c.58085,6.37514,4.6531,9.27288,10.17592,9.27288,5.81785,0,9.59813-2.89774,9.59813-7.82386,0-15.35836-41.58261-6.9548-41.29375-36.51219,0-15.648,12.79439-24.63093,30.53387-24.63093,18.02834,0,30.53386,8.9829,31.11475,24.92092H320.15851c-.292-5.21609-4.07221-8.40384-9.59813-8.69349-4.942,0-8.43331,2.31838-8.43331,7.53419,0,14.19931,41.00178,7.82414,41.00178,35.64283C343.12882,95.615,332.08008,107.206,312.887,107.206Z"/><path class="cls-1" d="M375.98925,39.68741c9.887,0,16.57466,4.34674,20.35491,10.14223V40.55676h20.063v65.77988H396.34416V97.06375c-3.78025,5.79547-10.46792,10.14224-20.35488,10.14224-15.99377,0-29.08015-13.0403-29.08015-34.19383C346.62017,52.72769,359.70351,39.68741,375.98925,39.68741Zm5.81482,17.38673c-7.56049,0-14.24813,5.5058-14.24813,15.938,0,10.43193,6.68767,16.22741,14.24813,16.22741s14.24809-5.79548,14.24809-16.22741C396.05216,62.86992,389.36456,57.07414,381.80407,57.07414Z"/><path class="cls-1" d="M428.32861,57.09731h-7.2685V40.55614h7.2685V38.81745c0-17.09676,10.47095-25.79015,30.82583-24.92084V31.28325c-7.85243-.57967-10.46786,1.7387-10.46786,8.69349v.57937h10.75681V57.07353H448.68665v49.26218h-20.066V57.09731Z"/><path class="cls-1" d="M493.46554,107.20506c-19.19006,0-33.43815-13.04-33.43815-33.90414,0-20.86384,13.6672-33.90382,33.43815-33.90382,19.19323,0,32.86044,12.75,32.86044,32.74479a40.5024,40.5024,0,0,1-.292,5.79547H480.09027c.58082,8.69349,6.10678,12.46063,12.50245,12.46063a11.01039,11.01039,0,0,0,10.471-6.37515h21.51665C521.96484,97.35251,510.33217,107.20506,493.46554,107.20506ZM480.3822,67.21577H505.971c0-7.2445-5.526-11.30128-12.21356-11.30128C486.77787,55.91454,481.544,59.68159,480.3822,67.21577Z"/><path class="cls-1" d="M573.14251,39.68741c15.99381,0,29.36908,13.04028,29.36908,33.90412,0,20.57416-12.79438,34.19382-29.36908,34.19382-9.595,0-16.57463-4.63645-20.35488-10.14224v40.45931h-20.066V40.55676h20.066v9.27288C556.56782,44.03416,563.54748,39.68741,573.14251,39.68741Zm-6.10678,17.38673c-7.56049,0-14.2481,5.79578-14.2481,16.22771s6.68761,16.22741,14.2481,16.22741,14.5401-5.79548,14.5401-16.22741S574.59622,57.07414,567.03573,57.07414Z"/><path class="cls-1" d="M635.372,39.68741c9.887,0,16.5747,4.34674,20.35494,10.14223V40.55676h20.06288v65.77988H655.7269V97.06375C651.94666,102.85922,645.259,107.206,635.372,107.206c-15.99374,0-29.08012-13.0403-29.08012-34.19383C606.58377,52.72769,619.37822,39.68741,635.372,39.68741Zm6.39568,17.38673c-7.56056,0-14.24817,5.5058-14.24817,15.938,0,10.43193,6.68761,16.22741,14.24817,16.22741,7.56049,0,14.24809-5.79548,14.24809-16.22741,0-10.14224-6.6876-15.938-14.248-15.938Z"/><path class="cls-1" d="M734.23905,40.55522h21.80859l-41.49041,96.55193H693.04367l15.02572-32.80076-27.203-63.75424H703.259l15.27829,41.44107Z"/></g></g></svg>