<?xml version="1.0" encoding="utf-8"?>
<!-- Generator: Adobe Illustrator 28.1.0, SVG Export Plug-In . SVG Version: 6.00 Build 0)  -->
<svg version="1.1" id="Layer_1" xmlns="http://www.w3.org/2000/svg" xmlns:xlink="http://www.w3.org/1999/xlink" x="0px" y="0px"
	 viewBox="0 0 600 385.83" style="enable-background:new 0 0 600 385.83;" xml:space="preserve">
<style type="text/css">
	.st0{fill:#010101;}
	.st1{fill:#0595FD;}
	.st2{fill:#0896FD;}
</style>
<g>
	<path class="st0" d="M9.47,96.15c1.49-3.42,1.49-7.17,2.28-10.74c8.37-37.52,39.35-66.5,77.43-72.3
		c39.87-6.08,78.54,13.05,97.63,48.3c1.88,3.47,1.88,3.47-1.55,5.19c-12.74,6.4-25.5,12.78-38.21,19.26
		c-1.72,0.88-2.32,0.63-3.23-1.07c-9.26-17.2-28.56-26.71-47.41-23.48c-19.53,3.35-34.52,18.55-37.67,38.19
		c-3.37,21,9.31,42.27,29.5,49.47c20.75,7.41,43.7-0.73,54.54-19.57c1.6-2.79,2.69-3.01,5.45-1.56
		c12.54,6.58,25.19,12.94,37.87,19.24c2.04,1.01,1.89,1.92,0.98,3.54c-14.27,25.52-35.48,42.12-64.18,47.87
		c-32.73,6.56-61.59-2.13-85.59-25.35c-15.51-15.01-24.31-33.69-27.2-55.11c-0.08-0.6,0.29-1.45-0.67-1.73
		C9.47,109.58,9.47,102.86,9.47,96.15z"/>
	<path class="st0" d="M209.99,106c0.01-46.27,33.66-85.54,79.63-92.9c39.78-6.38,79.67,13.64,98.32,49.24
		c1.1,2.11,0.62,2.95-1.34,3.92c-13.13,6.51-26.23,13.09-39.28,19.75c-1.84,0.94-2.21,0.05-2.97-1.26
		c-9.07-15.78-22.76-24-40.95-23.98c-22.73,0.02-42.15,18.21-44.43,41.09c-2.25,22.65,13.31,44.05,35.46,48.79
		c19.87,4.25,39.58-4.54,49.51-22.25c1.12-2,1.82-2.05,3.72-1.07c13.02,6.72,26.11,13.32,39.21,19.87c1.64,0.82,1.83,1.51,0.95,3.07
		c-15.13,27.01-37.65,44.03-68.34,48.94c-48.82,7.81-93.79-21.69-106.48-69.23c-0.86-3.23-1.48-6.53-2.01-9.83
		C210.26,115.46,209.99,110.74,209.99,106z"/>
	<path class="st0" d="M494.95,200.69c-31.67-63.03-63.13-125.66-94.58-188.24c0.71-0.79,1.44-0.51,2.07-0.51
		c16.68-0.02,33.37,0.02,50.05-0.06c1.86-0.01,2.77,0.59,3.58,2.21c21.72,43.46,43.48,86.89,65.25,130.32
		c0.61,1.22,1.16,2.27,0.37,3.8C512.8,165.54,503.99,182.91,494.95,200.69z"/>
	<path class="st1" d="M412.28,280.59c4.91-5.4,10.28-8.9,16.81-10.29c17.29-3.68,33.52,5.19,40.55,22.06
		c6.57,15.77,2.74,34.21-9.58,46.06c-12.98,12.49-33.67,12.27-46.37-0.49c-0.32-0.32-0.59-0.71-1.42-1.73c0,4.13,0,7.34,0,10.55
		c0,9.38-0.06,18.75,0.04,28.12c0.02,2-0.41,2.79-2.57,2.67c-3.54-0.18-7.11-0.21-10.65,0.01c-2.62,0.16-3.44-0.53-3.43-3.32
		c0.12-29.41,0.07-58.82,0.07-88.22c0-4.24,0.07-8.49-0.04-12.73c-0.04-1.7,0.28-2.48,2.24-2.4c4.04,0.15,8.1,0.15,12.14,0
		c1.96-0.08,2.32,0.7,2.23,2.4C412.19,275.49,412.28,277.73,412.28,280.59z M455.54,308.92c0-1.18,0.12-2.38-0.02-3.54
		c-1.01-8.39-4.92-15-12.68-18.68c-7.6-3.6-15.3-3.1-22.14,1.85c-8.57,6.21-10.96,15.12-9.22,25.18
		c1.36,7.87,5.65,13.92,13.15,17.01C440.1,337.11,455.52,326.16,455.54,308.92z"/>
	<path class="st1" d="M165.02,237.63c12.01,0.02,22.41,3.84,30.7,12.82c1.22,1.32,1.45,2.07-0.05,3.4c-3.02,2.69-5.89,5.56-8.65,8.5
		c-1.45,1.54-2.2,1.74-3.83,0c-7.72-8.24-19.91-10.5-28.94-5.63c-5.57,3.01-7.67,8.41-5.53,14.27c1.12,3.06,3.48,4.93,6.18,6.5
		c6.18,3.59,13.03,5.57,19.63,8.12c5.55,2.15,10.72,4.89,15.45,8.55c14.31,11.06,14.64,39.06-6.11,49.57
		c-15.87,8.03-40.12,4.3-52.59-8.39c-5.81-5.92-5.82-5.93,0.48-11.07c2.22-1.81,4.57-3.46,6.69-5.37c1.4-1.26,2.08-1.02,3.12,0.44
		c5.45,7.67,13,11.56,22.35,11.95c3.37,0.14,6.68-0.33,9.83-1.65c9.42-3.94,11.34-14.67,3.83-21.63c-2.86-2.66-6.28-4.39-9.91-5.76
		c-6.26-2.38-12.73-4.21-18.77-7.13c-8.85-4.28-15.97-10.21-18.07-20.47c-3.74-18.23,7.19-33.68,25.63-36.36
		C159.32,237.88,162.16,237.61,165.02,237.63z"/>
	<path class="st2" d="M233.29,279.46c4.14-4.55,8.78-7.82,14.66-9.16c19.94-4.56,35.5,6.77,36.58,27.6
		c0.81,15.45,0.25,30.98,0.35,46.47c0.01,1.52-0.63,1.8-1.95,1.78c-4.05-0.06-8.1-0.15-12.14,0.03c-2.22,0.1-2.82-0.53-2.81-2.77
		c0.11-13.13,0.08-26.25,0.03-39.38c-0.01-2.16-0.15-4.36-0.57-6.47c-1.23-6.14-4.43-10.87-10.79-12.43
		c-6.88-1.68-12.93,0.2-17.67,5.54c-4.36,4.92-5.65,10.96-5.68,17.31c-0.07,11.75-0.08,23.49,0.04,35.24
		c0.02,2.31-0.54,3.09-2.92,2.95c-3.64-0.21-7.31-0.22-10.95,0c-2.51,0.15-3.07-0.69-3.06-3.12c0.09-31.19,0.06-62.38,0.06-93.57
		c0-4.34,0.1-8.69-0.04-13.03c-0.07-2.19,0.36-3.2,2.87-3.04c3.74,0.23,7.51,0.2,11.25,0.01c2.25-0.11,2.82,0.59,2.8,2.81
		c-0.1,13.13-0.05,26.25-0.05,39.38C233.29,276.9,233.29,278.18,233.29,279.46z"/>
	<path class="st1" d="M379.11,308.7c-0.01,22.1-17.04,38.92-39.39,38.91c-22.44,0-39.39-16.89-39.37-39.25
		c0.01-21.99,17.24-39.04,39.42-39C362.13,269.4,379.12,286.39,379.11,308.7z M362.19,308.01c-0.06-8.73-4.61-16.72-11.96-20.6
		c-10.76-5.67-23.95-1.81-29.98,8.76c-6.36,11.15-2.95,26.24,7.6,32.7c7.18,4.39,14.89,4.65,22.27,0.76
		C358.47,325.24,362.06,317.71,362.19,308.01z"/>
	<path class="st1" d="M567.45,54.07c-12.83,0-22.99-10.05-23.04-22.8c-0.05-12.84,10.22-23.05,23.14-23.01
		c12.74,0.04,22.96,10.25,22.97,22.96C590.54,43.85,580.23,54.07,567.45,54.07z"/>
</g>
</svg>
