<?xml version="1.0" encoding="utf-8"?>
<!-- Generator: Adobe Illustrator 27.7.0, SVG Export Plug-In . SVG Version: 6.00 Build 0)  -->
<svg version="1.1" id="Layer_1" xmlns="http://www.w3.org/2000/svg" xmlns:xlink="http://www.w3.org/1999/xlink" x="0px" y="0px"
	 viewBox="0 0 183 29" style="enable-background:new 0 0 183 29;" xml:space="preserve">
<style type="text/css">
	.st0{fill:#F27730;}
	.st1{fill:#37AE83;}
	.st2{fill:#0D2F66;}
	.st3{fill-rule:evenodd;clip-rule:evenodd;fill:#0D2F66;}
</style>
<path class="st0" d="M1.91169,21.4392c-0.34247-0.6248-0.42671-1.3588-0.23468-2.0449s0.64506-1.2697,1.26209-1.6259
	s1.34899-0.4566,2.03916-0.2798s1.28367,0.6168,1.65341,1.2258c-0.77422-1.3449-1.18148-2.8696-1.18097-4.4215
	c0.00051-1.5518,0.40877-3.0763,1.18387-4.4207c0.77511-1.3444,1.88986-2.46155,3.23261-3.23954
	c1.34272-0.77799,2.86632-1.18952,4.41822-1.19335c0.7062-0.02256,1.376-0.31898,1.8676-0.82655s0.7665-1.18648,0.7665-1.89311
	c0-0.70662-0.2749-1.38553-0.7665-1.8931C15.6614,0.31898,14.9916,0.02256,14.2854,0
	c-2.5082,0.00184-4.97163,0.66351-7.14314,1.91855C4.97075,3.1736,3.16765,4.97786,1.91399,7.15017S0.00024,11.7864,0,14.2945
	c-0.00024,2.5081,0.65937,4.9721,1.91262,7.1447H1.91169z"/>
<path class="st1" d="M24.3892,4.1847c-1.3238-1.33089-2.8984-2.38602-4.6328-3.10432c-1.7343-0.71829-3.5938-1.08548-5.471-1.08033
	c0.7063,0.02256,1.3761,0.31898,1.8677,0.82655c0.4916,0.50757,0.7665,1.18648,0.7665,1.89311
	c0,0.70662-0.2749,1.38553-0.7665,1.8931c-0.4916,0.50757-1.1614,0.80399-1.8677,0.82655
	c1.5533,0.00061,3.0791,0.40991,4.4242,1.18677c1.345,0.77687,2.462,1.89396,3.2388,3.23909
	c0.7767,1.34518,1.1859,2.87098,1.1864,4.42428c0.0004,1.5533-0.4078,3.0794-1.1837,4.425
	c-0.3425,0.6247-0.4267,1.3587-0.2347,2.0448s0.6451,1.2697,1.2621,1.6259c0.617,0.3562,1.349,0.4567,2.0392,0.2799
	c0.6901-0.1769,1.2836-0.6169,1.6534-1.2259c1.5724-2.7253,2.202-5.8931,1.7913-9.0126c-0.4107-3.11949-1.8388-6.01642-4.063-8.2419
	H24.3892z"/>
<path class="st2" d="M24.3041,22.7983c-0.4782,0.0008-0.9482-0.1245-1.3626-0.3632c-0.4144-0.2388-0.7586-0.5825-0.9978-0.9966
	c-0.2393-0.4141-0.3652-0.8839-0.365-1.3621c0.0002-0.4783,0.1264-0.948,0.3659-1.362c-0.7763,1.3467-1.8936,2.4651-3.2394,3.2428
	c-1.3459,0.7776-2.8728,1.1871-4.4272,1.1871s-3.0814-0.4095-4.42722-1.1871c-1.34587-0.7777-2.46316-1.8961-3.23943-3.2428
	c-0.1789-0.3099-0.4171-0.5815-0.70099-0.7994c-0.2839-0.2179-0.60792-0.3777-0.95357-0.4703s-0.70617-0.1163-1.06096-0.0696
	c-0.35479,0.0467-0.69692,0.1628-1.00683,0.3417c-0.30992,0.1789-0.58157,0.4171-0.79943,0.701
	c-0.21786,0.2839-0.37767,0.6079-0.47031,0.9536c-0.09264,0.3456-0.11629,0.7061-0.0696,1.0609
	c0.04669,0.3548,0.1628,0.697,0.34171,1.0069c1.25453,2.1718,3.05853,3.9752,5.23075,5.229
	c2.17223,1.2539,4.63618,1.9139,7.14428,1.9139s4.9721-0.66,7.1443-1.9139c2.1722-1.2538,3.9762-3.0572,5.2308-5.229
	c-0.237,0.4107-0.5774,0.7522-0.9873,0.9906c-0.4098,0.2385-0.875,0.3655-1.3492,0.3685H24.3041z M45.6721,9.68775
	c-0.7922-0.38743-1.667-0.57546-2.5485-0.54775c-0.8814,0.02772-1.7427,0.27035-2.509,0.70678
	c-0.807,0.46502-1.4722,1.14102-1.924,1.95552c-0.4629,0.8322-0.7058,1.7687-0.7058,2.721s0.2429,1.8888,0.7058,2.721
	c0.4575,0.8152,1.1259,1.4923,1.9351,1.9602c0.8184,0.4767,1.75,0.7246,2.697,0.7174c0.7897-0.0066,1.5693-0.1776,2.2893-0.502
	c0.7557-0.332,1.442-0.8034,2.023-1.3897l1.8001,2.0027c-0.8348,0.8535-1.8244,1.5404-2.9161,2.0239
	c-1.0587,0.4833-2.2081,0.7361-3.3719,0.7415c-1.4768,0.0153-2.9311-0.3619-4.2143-1.0929
	c-1.2505-0.7039-2.2889-1.7308-3.0067-2.9734c-0.7313-1.2626-1.1088-2.6989-1.0929-4.1578c-0.016-1.4577,0.3702-2.8915,1.116-4.144
	c0.7308-1.23272,1.7787-2.24704,3.0345-2.9374c1.1631-0.64004,2.4555-1.00943,3.7812-1.08067
	c1.3256-0.07124,2.6503,0.15752,3.8752,0.66923c1.0548,0.42983,2.0087,1.07399,2.8015,1.89169l-1.777,2.23195
	c-0.5501-0.6396-1.2286-1.1563-1.9916-1.51632L45.6721,9.68775z M52.122,6.6126h3.0511v13.191h6.8789v2.7552h-9.93V6.6126z"/>
<path class="st3" d="M80.4955,14.5603c0.014-1.4491-0.3679-2.8745-1.1045-4.1224c-0.7367-1.24797-1.8001-2.27108-3.0756-2.95896
	c-1.3299-0.70278-2.8113-1.07013-4.3155-1.07013c-1.5041,0-2.9855,0.36735-4.3154,1.07013
	c-1.2757,0.68776-2.3393,1.71081-3.0761,2.95876c-0.7368,1.248-1.1189,2.6734-1.1049,4.1226
	c-0.0157,1.462,0.3703,2.9002,1.116,4.1578c0.7376,1.2472,1.796,2.274,3.065,2.9735c1.3252,0.7174,2.8084,1.0932,4.3154,1.0932
	c1.507,0,2.9903-0.3758,4.3155-1.0932c1.2686-0.6998,2.3266-1.7265,3.0641-2.9735C80.125,17.4604,80.511,16.0223,80.4955,14.5603z
	 M67.3646,17.3174c-0.7274-1.2504-0.9285-2.7384-0.5592-4.1369c0.3692-1.3986,1.2787-2.5934,2.5285-3.32169
	c0.8217-0.48132,1.7568-0.73504,2.709-0.73504c0.9368-0.00515,1.8575,0.24308,2.6647,0.71839
	c0.8112,0.46924,1.4834,1.14534,1.9481,1.95924c0.4826,0.8395,0.7304,1.7936,0.7184,2.7617
	c0.0091,0.9658-0.2388,1.9168-0.7184,2.7552c-0.4638,0.8209-1.1361,1.5047-1.949,1.9823c-0.8045,0.4812-1.7254,0.7329-2.6628,0.7277
	c-0.9484,0.0064-1.8806-0.2451-2.697-0.7277C68.5259,18.8218,67.843,18.1386,67.3646,17.3174z"/>
<path class="st2" d="M87.2865,18.9604c0.3805,0.3635,0.831,0.6457,1.3241,0.8295c0.493,0.1837,1.01839,0.2652,1.5439,0.2394
	c0.521,0.0281,1.0421-0.0524,1.5302-0.2364c0.4882-0.184,0.9328-0.4675,1.3055-0.8325c0.6898-0.7119,1.03461-1.6993,1.03461-2.9605
	V6.61267h3.06779v9.38723c0.0303,1.2558-0.2596,2.4986-0.8423,3.6114c-0.5456,1.0108-1.3834,1.8334-2.4039,2.3605
	c-1.141,0.5705-2.4039,0.8506-3.67799,0.8192c-1.284,0.029-2.55621-0.252-3.7085-0.8192c-1.0292-0.5221-1.8749-1.3455-2.4242-2.3605
	c-0.5832-1.1126-0.8734-2.3555-0.8433-3.6114V6.61267h3.0512v9.38723c-0.0204,1.2593,0.3273,2.2468,1.042,2.9605H87.2865z"/>
<path class="st3" d="M114.682,10.4534c-0.704-1.19962-1.729-2.17838-2.96-2.82554c-1.323-0.692-2.799-1.04105-4.292-1.01519h-6.628
	V22.5349h6.527c1.51099,0.0307,3.006-0.317,4.349-1.0115c1.24-0.6509,2.276-1.6324,2.994-2.8357
	c0.731-1.2449,1.106-2.6671,1.082-4.1107C115.776,13.1307,115.406,11.7056,114.682,10.4534z M111.971,17.3323
	c-0.425,0.7814-1.06,1.4284-1.834,1.8676c-0.801,0.4527-1.709,0.6844-2.629,0.6712h-3.645V9.30135h3.553
	c0.936-0.01243,1.859,0.21992,2.677,0.67402c0.791,0.44243,1.44099,1.09783,1.878,1.89173c0.459,0.8413,0.692,1.7872,0.675,2.745
	c0.01199,0.9499-0.22,1.887-0.675,2.7211V17.3323z"/>
<path class="st2" d="M126.006,9.55278c-0.73399-0.25284-1.503-0.3916-2.279-0.41144c-0.604-0.03055-1.20399,0.11221-1.729,0.41144
	c-0.197,0.11659-0.36,0.28375-0.47,0.48422c-0.111,0.2004-0.167,0.4268-0.16,0.6558c-0.01199,0.416,0.151,0.8173,0.44801,1.1095
	c0.322,0.3125,0.7,0.5594,1.116,0.7276c0.599,0.2404,1.212,0.4475,1.834,0.6204c0.911,0.2561,1.803,0.576,2.67,0.9579
	c0.687,0.3201,1.288,0.8012,1.75001,1.4026c0.51399,0.7147,0.771,1.5826,0.728,2.4621c0.019,0.9119-0.259,1.805-0.79201,2.5454
	c-0.55199,0.7433-1.30199,1.316-2.16399,1.6522c-1.005,0.396-2.077,0.5898-3.156,0.5705c-1.248,0-2.484-0.2358-3.645-0.6953
	c-1.133-0.4327-2.182-1.0614-3.098-1.8575l1.274-2.5962c0.791,0.7362,1.703,1.3293,2.697,1.753
	c0.882,0.3984,1.834,0.6154,2.802,0.638c0.701,0.038,1.398-0.1325,2.002-0.4901c0.198-0.1295,0.365-0.3009,0.489-0.5021
	c0.124-0.2012,0.202-0.4272,0.229-0.662c0.028-0.2348,0.003-0.4728-0.072-0.6969c-0.075-0.2242-0.19901-0.4291-0.36201-0.6002
	c-0.323-0.3131-0.70599-0.5572-1.126-0.7175c-0.449-0.1821-1.073-0.3874-1.868-0.6139c-0.9-0.255-1.783-0.5669-2.643-0.9338
	c-0.689-0.3087-1.291-0.7825-1.75301-1.3795c-0.513-0.7009-0.77-1.5566-0.729-2.4242c-0.017-0.8668,0.242-1.71656,0.742-2.42521
	c0.533-0.72133,1.259-1.27765,2.094-1.60507c0.995-0.39678,2.06-0.59043,3.132-0.56954c1.03699,0.00098,2.068,0.15424,3.061,0.45489
	c0.953,0.27866,1.862,0.69345,2.69701,1.23154l-1.231,2.66279C127.714,10.2279,126.879,9.83866,126.006,9.55278z M136.64999,18.9604
	c0.38101,0.3636,0.83101,0.6458,1.32401,0.8296c0.494,0.1838,1.019,0.2651,1.545,0.2392c0.521,0.0281,1.04201-0.0523,1.53-0.2363
	c0.48801-0.184,0.933-0.4675,1.306-0.8325c0.68901-0.7119,1.03401-1.6994,1.03401-2.9605V6.61261H146.44v9.38729
	c0.03099,1.2559-0.26001,2.4988-0.843,3.6114c-0.545,1.0105-1.383,1.8331-2.403,2.3604c-1.14101,0.57-2.40401,0.8512-3.679,0.8192
	c-1.284,0.0291-2.556-0.2519-3.70799-0.8192c-1.02901-0.5224-1.875-1.3457-2.425-2.3604
	c-0.582-1.1128-0.87201-2.3556-0.84201-3.6114V6.61261h3.05101v9.38729C135.582,17.2592,135.935,18.2466,136.64999,18.9604z
	 M150.17599,6.61261h3.05101V22.5588h-3.05101V6.61261z M155.63699,6.61261h13.00401v2.697h-4.96301V22.5598H160.604V9.32348
	h-4.96701V6.61261z M171.062,6.61261h11.66501v2.66372h-8.63101v3.94147h7.755v2.6647h-7.755v4.0126H183v2.6628h-11.938V6.61354
	V6.61261z"/>
</svg>
