<?xml version="1.0" encoding="utf-8"?>
<!-- Generator: Adobe Illustrator 26.1.0, SVG Export Plug-In . SVG Version: 6.00 Build 0)  -->
<svg version="1.1" id="Layer_1" xmlns="http://www.w3.org/2000/svg" xmlns:xlink="http://www.w3.org/1999/xlink" x="0px" y="0px"
	 viewBox="0 0 102.3 54.8" style="enable-background:new 0 0 102.3 54.8;" xml:space="preserve">
<style type="text/css">
	.st0{fill-rule:evenodd;clip-rule:evenodd;fill:#58595B;}
	.st1{fill-rule:evenodd;clip-rule:evenodd;fill:#BD671B;}
</style>
<g id="Coppermine-logo-wit">
	<path id="Fill-20" class="st0" d="M70.8,46.5c-1.5,2.3-4,3.6-7.1,3.6c-5,0-8.2-2.8-8.2-7.3c0-4.5,3.3-7.8,7.8-7.8
		c4.4,0,7.9,3.3,7.5,8.5H60.1c0,1.7,0.9,3.6,3.6,3.6c1.2,0,2-0.4,3.4-1.7L70.8,46.5z M66.2,40.9c-0.2-1.8-1.4-2.9-3.1-2.9
		c-1.7,0-2.7,0.9-3,2.9H66.2L66.2,40.9z"/>
	<path id="Fill-18" class="st0" d="M37.7,35.3h6.9v1.3c1.5-1.1,2.7-1.6,4.2-1.6c1.9,0,4.4,1,4.4,4.9v6.4h2.1v3.3h-6.8v-9.2
		c0-1.2-0.5-1.6-1.4-1.6c-0.8,0-1.7,0.3-2.5,1v6.5h1.9v3.3h-8.9v-3.3H40v-7.8h-2.2V35.3L37.7,35.3z"/>
	<path id="Fill-16" class="st1" d="M29.1,38.3h6.8v13.2h2.1v3.3h-8.9v-3.3h2.1v-9.8h-2.1V38.3z M36.2,34.2c0,1.4-1.1,2.5-2.6,2.5
		c-1.4,0-2.5-1.1-2.5-2.5c0-1.4,1.1-2.5,2.5-2.5C35,31.6,36.2,32.7,36.2,34.2L36.2,34.2z"/>
	<path id="Fill-14" class="st0" d="M0,35.3h7.4v1.2c1.7-1,3.1-1.4,4.6-1.4c1.9,0,3.5,0.7,4.5,2c2.1-1.4,3.7-2,5.7-2
		c2.6,0,5,1.1,5,4.8v6.6h2.9v3.3h-7.6v-8.4c0-1.6-0.6-2.3-1.9-2.3c-1,0-2.1,0.3-3.3,1v6.4h2.6v3.3h-7.3v-8.4c0-1.7-0.6-2.3-1.9-2.3
		c-1,0-1.9,0.3-3.3,1v6.4H10v3.3H0v-3.3h2.7v-7.8H0L0,35.3L0,35.3z"/>
	<path id="Fill-12" class="st0" d="M99.8,21.1H89.6v-3.3h2.7V10h-2.5V6.6h6.7v3.7h0.1c0.9-2.5,2.7-3.9,5.1-3.9h0.7v4.4h-0.6
		c-3.7,0-4.8,2.5-4.8,5.5v1.5h2.8L99.8,21.1L99.8,21.1z"/>
	<path id="Fill-10" class="st0" d="M89.2,17.9c-1.5,2.3-4,3.6-7.1,3.6c-5,0-8.2-2.8-8.2-7.3c0-4.5,3.3-7.8,7.8-7.8
		c4.4,0,7.9,3.3,7.5,8.5H78.6c0,1.7,0.9,3.6,3.6,3.6c1.2,0,2-0.4,3.4-1.7L89.2,17.9z M84.6,12.3c-0.2-1.8-1.4-2.9-3.1-2.9
		c-1.7,0-2.7,0.9-3,2.9H84.6z"/>
	<path id="Fill-8" class="st0" d="M65.5,27.6h-9.9v-3.3H58V10h-2.5V6.6h7.2v1.8C64,7,65.3,6.4,66.9,6.4c3.5,0,6.2,3.2,6.2,7.5
		c0,4.4-2.6,7.5-6.2,7.5c-1.6,0-2.8-0.5-4.1-1.8v4.6h2.8L65.5,27.6L65.5,27.6z M65.5,10.2c-1.8,0-2.8,1.4-2.8,3.8
		c0,2.4,1.1,3.9,2.9,3.9c1.8,0,2.8-1.5,2.8-3.9C68.4,11.6,67.3,10.2,65.5,10.2L65.5,10.2z"/>
	<path id="Fill-6" class="st0" d="M47.8,27.6h-9.9v-3.3h2.5V10h-2.5V6.6h7.2v1.8c1.3-1.4,2.6-2.1,4.2-2.1c3.5,0,6.2,3.2,6.2,7.5
		c0,4.4-2.6,7.5-6.2,7.5c-1.6,0-2.8-0.5-4.1-1.8v4.6h2.8L47.8,27.6L47.8,27.6z M47.8,10.2c-1.8,0-2.8,1.4-2.8,3.8
		c0,2.4,1.1,3.9,2.9,3.9c1.8,0,2.8-1.5,2.8-3.9C50.7,11.6,49.6,10.2,47.8,10.2L47.8,10.2z"/>
	<path id="Fill-4" class="st0" d="M30.1,21.5c-4.3,0-7.6-2.8-7.6-7.6c0-5.1,3.7-7.6,7.6-7.6c4.2,0,7.6,2.7,7.6,7.6
		C37.8,18.4,34.7,21.5,30.1,21.5 M30.1,9.9c-1.8,0-2.9,1.5-2.9,4.1c0,2.5,1.1,3.9,2.9,3.9c1.8,0,2.9-1.5,2.9-4
		C33,11.4,32,9.9,30.1,9.9"/>
	<path id="Fill-1" class="st1" d="M20.8,0.3v7.3h-3.5c-0.4-1-1-2.1-1.6-2.6C14.2,4,13.4,3.7,12,3.7c-3.7,0-6.2,2.8-6.2,7.1
		c0,4,2.4,6.8,5.9,6.8c2.9,0,5-2,5.8-5.4l4.1,2c-1.5,5.6-6.2,7.3-10.3,7.3C2.4,21.4,0,15.3,0,10.7C0,4.4,4.5,0,11,0
		c2.6,0,4.5,0.6,6.3,2V0.3H20.8L20.8,0.3z"/>
</g>
</svg>
