<?xml version="1.0" encoding="utf-8"?>
<!-- Generator: Adobe Illustrator 26.5.0, SVG Export Plug-In . SVG Version: 6.00 Build 0)  -->
<svg version="1.1" id="Layer_1" xmlns="http://www.w3.org/2000/svg" xmlns:xlink="http://www.w3.org/1999/xlink" x="0px" y="0px"
	 viewBox="0 0 383.25662 102.53952" style="enable-background:new 0 0 383.25662 102.53952;" xml:space="preserve">
<style type="text/css">
	.st0{fill:#FFFFFF;}
	.st1{fill:#4C4D4E;}
</style>
<g id="_x23_ffffffff">
	<path class="st0" d="M27.86663,93.39c0.93-2.55,2.39-5.84,5.7-5.43c3.07-0.21,3.81,3.22,4.65,5.43
		C34.77663,93.54,31.31662,93.54,27.86663,93.39z"/>
	<path class="st0" d="M44.28662,93.36c1.21-2.18,2.2-5.42,5.24-5.4c3.27-0.56,4.42,2.98,5.4,5.34
		C51.38663,93.56,47.83662,93.55,44.28662,93.36z"/>
	<path class="st0" d="M140.91663,88.81c2.63-1.81,7.24001-0.75,7.67,2.77c0.87,3.54,0.8,9.47-3.89,10.06
		C137.88663,102.65,136.88663,92.34,140.91663,88.81z"/>
	<path class="st0" d="M156.29663,93.36c1.2-2.19,2.2-5.43,5.25-5.4c3.25999-0.55,4.39999,2.99,5.33,5.36
		C163.34662,93.55,159.81662,93.55,156.29663,93.36z"/>
	<path class="st0" d="M213.27663,93.34c1.08-2.32,2.22-5.49,5.35001-5.38c3.25-0.51,4.21999,3.08,5.20999,5.38
		C220.31662,93.55,216.78662,93.55,213.27663,93.34z"/>
	<path class="st0" d="M256.8866,88.68c2.79001-1.74,7.01001-0.32,7.79001,2.99c1.14001,3.6,0.34,9.22-4.13,9.91
		C253.71663,102.61,252.16661,91.97,256.8866,88.68z"/>
	<path class="st0" d="M325.1066,93.42c0.94-2.47,2.21002-5.77,5.47-5.46c3.17001-0.33,4,3.11,4.92001,5.38
		C332.03662,93.54,328.56662,93.54,325.1066,93.42z"/>
	<path class="st0" d="M367.80661,93.38c0.95999-2.53,2.41-5.89999,5.73999-5.42c3.05002-0.13,3.76001,3.24,4.65002,5.44
		C374.7366,93.54,371.2666,93.54,367.80661,93.38z"/>
	<path class="st0" d="M94.67663,97.65c1.48-3.3,5.93999-2.43,8.88-2.94c-0.39,2.15-0.18,5.04-2.51,6.15
		C98.61662,102.67,93.52663,101.31,94.67663,97.65z"/>
	<path class="st0" d="M110.60663,97.74c1.53-3.37,5.93999-2.54,8.95-3.03c-0.38,2.17-0.18,5.07-2.55,6.17
		C114.54662,102.61,109.76662,101.39,110.60663,97.74z"/>
</g>
<g id="_x23_4c4d4eff">
	<path class="st1" d="M66.80663,0c2.33,0,4.67,0,7,0c0,2.08,0,4.17,0,6.25c-2.33,0-4.67,0-7,0
		C66.80663,4.16,66.80663,2.08,66.80663,0z"/>
	<path class="st1" d="M46.55663,0c2.25,0,4.5,0,6.75,0c0.01,20.9-0.02,41.79,0.01,62.69c-2.17-2.58-4.36-5.16-6.49-7.78
		c-5.11,5.04-11.9,8.57-19.19,8.61c-8.46,0.54-17.15-2.93999-22.55-9.55c-6-7-6.81-17.98-1.8-25.73
		c7.14-11.33,23.07-15.17,34.97-9.56c3.21,1.47,5.81,3.91,8.31,6.34C46.54663,16.68,46.55663,8.34,46.55663,0 M19.96663,23.11
		c-9.25,2.65-15.98,13.59-11.86,22.82c4.58,11.71,20.51,15.51,30.66,8.74c8.11-4.55,10.81-16.14,5.58-23.82
		C39.24662,23.03,28.61663,20.11,19.96663,23.11z"/>
	<path class="st1" d="M139.05663,0c2.33,0,4.67,0,7,0c0,2,0,4,0,6c-2.33,0-4.67,0-7,0C139.05663,4,139.05663,2,139.05663,0z"/>
	<path class="st1" d="M203.84662,25.2c-0.09-8.4-0.01999-16.8-0.03999-25.2c2.16,0,4.33,0,6.5,0c-0.02,20.85,0.03,41.7-0.03,62.56
		c-2.11-2.53-4.22-5.06-6.31-7.6c-5.42,5.27-12.69,8.79-20.36,8.58c-11.61,0.53-23.69-7.5-26.06-19.17
		c-1.59001-7.34,0.87999-15.38,6.42-20.46C174.50662,13.18,194.12663,13.5,203.84662,25.2 M176.89662,23.16
		c-9.2,2.77-15.73999,13.64-11.67999,22.87c4.64,11.6,20.39,15.37,30.53,8.7c7.81999-4.31,10.69-15.05,6.34999-22.79
		C197.39662,23.25,185.94662,19.95,176.89662,23.16z"/>
	<path class="st1" d="M360.43661,10.03c11.88998,4.76,20.78,15.87,22.82001,28.52c-1.66,0.26-3.32001,0.54-4.97,0.81
		c-1.92001-10.87-9.42001-20.39-19.67001-24.55C359.21661,13.22,359.8266,11.62,360.43661,10.03z"/>
	<path class="st1" d="M234.28662,20.22c10.02-6.12,23.92999-6.27,33.29999,1.23c4.20001,3.04,6.70999,7.75,8.51001,12.49
		c-14.78,3.68-29.65999,6.97-44.45,10.61c1.93001,4.64,5.14,8.93,9.82001,11.06c7.81999,4.07,17.85997,1.91,24.13997-4
		c2.71002-2.49,4.01001-6.02,5.30002-9.38c2.13,0.44,4.26999,0.87,6.41,1.31c-1.61002,6.09-5.06,11.86-10.59,15.12
		c-6.74002,3.99-14.99001,5.48-22.7,4.12c-9.10001-1.95-17.25999-9.07-19.49001-18.25
		C222.07663,35.46,226.31662,25.12,234.28662,20.22 M234.92662,27.97c-2.95999,2.99-3.70999,7.28-4.22,11.28
		c12.19-2.84,24.38-5.75,36.56999-8.62C260.6366,19.57,243.36662,18.59,234.92662,27.97z"/>
	<path class="st1" d="M330.39661,34.39c1.73001-9.19,9.13-16.6,18.03-19.15c0.48001,1.79,0.95001,3.57,1.42999,5.36
		c-8.51999,2.52-15.13998,10.95-14.29999,19.99c0.47,10.43,10.72,19.09,21.07999,17.76c7.38-0.64,13.64001-5.91,16.48001-12.61
		c1.72,0.67,3.45001,1.33,5.19,2c-2.42999,5.66-6.45001,10.78-12.10001,13.46c-9.04999,4.88-21.07001,3.29-28.47-3.86
		C331.50662,51.67,328.59662,42.63,330.39661,34.39z"/>
	<path class="st1" d="M66.80663,17.25c2.33,0,4.67,0,7,0c0,15.08,0,30.17,0,45.25c-2.33,0-4.67,0-7,0
		C66.80663,47.42,66.80663,32.33,66.80663,17.25z"/>
	<path class="st1" d="M82.06663,17.27c2.43999-0.02,4.88-0.02,7.32-0.04c5.7,10.8,11.31,21.64,16.96,32.46
		c5.69-10.78,11.16-21.68,16.87-32.45c2.45,0.01,4.89,0.02,7.34,0.04c-7.75999,14.78-15.32,29.67-23.15,44.4
		c-0.46,1.73-2.16,0.57-2.37-0.56C97.33662,46.53,89.74663,31.87,82.06663,17.27z"/>
	<path class="st1" d="M139.30663,17.25c2.25,0,4.5,0,6.75,0c0,15.08,0,30.17,0,45.25c-2.25,0-4.5,0-6.75,0
		C139.30663,47.42,139.30663,32.33,139.30663,17.25z"/>
	<path class="st1" d="M356.84662,19.23c8.67999,3.55,14.89999,11.62,16.66,20.77c-1.68002,0.28-3.35001,0.56-5.01001,0.84
		c-1.73001-7.45-6.83002-13.71-13.69-17.04C355.47662,22.28,356.15662,20.75,356.84662,19.23z"/>
	<path class="st1" d="M351.30661,33.02c0.64999-1.54,1.29999-3.08,1.95999-4.62c5.21002,2.58,9.03,7.3,10.34,12.98
		c-1.62,0.3-3.23999,0.59-4.84998,0.89C357.36661,38.42,354.84662,35.12,351.30661,33.02z"/>
	<path class="st1" d="M303.05661,54.5c2.25,0,4.5,0,6.75,0c0,2.25,0,4.5,0,6.75c-2.25,0-4.5,0-6.75,0
		C303.0466,59,303.05661,56.75,303.05661,54.5z"/>
</g>
<g>
	<path class="st1" d="M20.41698,102.25436V92.10397c0-1.24316-0.26562-2.1748-0.79688-2.79688
		c-0.53174-0.62109-1.35742-0.93262-2.47705-0.93262c-1.47119,0-2.55811,0.42285-3.26025,1.2666
		c-0.70215,0.8457-1.05322,2.14551-1.05322,3.90137v8.71191h-2.36328V92.10397c0-1.24316-0.26562-2.1748-0.79736-2.79688
		c-0.53125-0.62109-1.36182-0.93262-2.49121-0.93262c-1.48047,0-2.56445,0.44434-3.25244,1.33105
		c-0.68848,0.8877-1.03223,2.3418-1.03223,4.36328v8.18555H0.52977V86.65182h1.92188l0.38428,2.13574h0.11426
		c0.4458-0.75977,1.07471-1.35254,1.88574-1.7793c0.81152-0.42773,1.72021-0.64062,2.72656-0.64062
		c2.43896,0,4.0332,0.88281,4.7832,2.64746h0.11377c0.46484-0.81641,1.13867-1.46094,2.02148-1.93555
		c0.88232-0.47461,1.88818-0.71191,3.01807-0.71191c1.76514,0,3.08643,0.45312,3.96436,1.35938s1.31689,2.35547,1.31689,4.34863
		v10.17871H20.41698z"/>
	<path class="st1" d="M34.24022,102.53952c-2.30615,0-4.12598-0.70312-5.45947-2.10742s-2-3.35449-2-5.85059
		c0-2.51465,0.61914-4.5127,1.85742-5.99316c1.23877-1.48047,2.90186-2.2207,4.98975-2.2207
		c1.95508,0,3.50195,0.64258,4.64111,1.92871c1.13867,1.28613,1.70801,2.98242,1.70801,5.08887v1.49512H29.22899
		c0.04736,1.83203,0.51025,3.22168,1.38818,4.1709s2.11377,1.42383,3.7085,1.42383c1.67969,0,3.34033-0.35156,4.98242-1.05371
		v2.10742c-0.83545,0.36035-1.62549,0.61914-2.37012,0.77539C36.19286,102.46042,35.29344,102.53952,34.24022,102.53952z
		 M33.59959,88.34616c-1.25293,0-2.25195,0.4082-2.99658,1.22461c-0.74512,0.81641-1.18408,1.94531-1.31689,3.3877h8.15723
		c0-1.49023-0.33252-2.63086-0.99658-3.42383C35.78221,88.74265,34.83299,88.34616,33.59959,88.34616z"/>
	<path class="st1" d="M50.59666,102.53952c-2.30615,0-4.12598-0.70312-5.45947-2.10742s-2-3.35449-2-5.85059
		c0-2.51465,0.61914-4.5127,1.85742-5.99316c1.23877-1.48047,2.90186-2.2207,4.98975-2.2207
		c1.95508,0,3.50195,0.64258,4.64111,1.92871c1.13867,1.28613,1.70801,2.98242,1.70801,5.08887v1.49512H45.58543
		c0.04736,1.83203,0.51025,3.22168,1.38818,4.1709s2.11377,1.42383,3.7085,1.42383c1.67969,0,3.34033-0.35156,4.98242-1.05371
		v2.10742c-0.83545,0.36035-1.62549,0.61914-2.37012,0.77539C52.5493,102.46042,51.64989,102.53952,50.59666,102.53952z
		 M49.95604,88.34616c-1.25293,0-2.25195,0.4082-2.99658,1.22461c-0.74512,0.81641-1.18408,1.94531-1.31689,3.3877h8.15723
		c0-1.49023-0.33252-2.63086-0.99658-3.42383C52.13866,88.74265,51.18944,88.34616,49.95604,88.34616z"/>
	<path class="st1" d="M67.48045,86.36765c0.69238,0,1.31396,0.05664,1.86475,0.1709l-0.32764,2.19238
		c-0.64551-0.14258-1.21484-0.21387-1.70801-0.21387c-1.2627,0-2.3418,0.5127-3.23877,1.53711
		c-0.89697,1.02539-1.34521,2.30176-1.34521,3.83008v8.37012h-2.36328V86.65182h1.9502l0.27051,2.88965h0.11426
		c0.57861-1.01465,1.27588-1.79785,2.09229-2.34863C65.60594,86.64304,66.50243,86.36765,67.48045,86.36765z"/>
	<path class="st1" d="M85.00438,102.25436l-2.86133-9.15332c-0.18066-0.56055-0.51758-1.83203-1.01074-3.81543h-0.11426
		c-0.37939,1.66113-0.71143,2.94238-0.99658,3.84375l-2.94678,9.125h-2.73291l-4.25635-15.60254H72.562
		c1.00586,3.91992,1.77246,6.9043,2.29932,8.9541c0.52686,2.05078,0.82764,3.43164,0.90381,4.14258h0.11377
		c0.10449-0.54102,0.27295-1.24023,0.50537-2.09961c0.23291-0.8584,0.43457-1.53906,0.60547-2.04297l2.86133-8.9541h2.56201
		l2.79053,8.9541c0.53125,1.63281,0.89209,3.00391,1.08203,4.11426h0.11377c0.0376-0.3418,0.13965-0.86816,0.30615-1.58008
		c0.16553-0.71191,1.15527-4.54102,2.96777-11.48828h2.44873l-4.31348,15.60254H85.00438z"/>
	<path class="st1" d="M104.53563,102.25436l-0.46973-2.2207h-0.11377c-0.77832,0.97754-1.5542,1.63965-2.32764,1.98535
		c-0.77344,0.34668-1.73926,0.52051-2.89697,0.52051c-1.54688,0-2.75928-0.39941-3.63721-1.19629s-1.31641-1.93066-1.31641-3.40234
		c0-3.15039,2.51953-4.80176,7.55908-4.9541l2.64746-0.08496v-0.96875c0-1.22363-0.26318-2.12793-0.79004-2.71191
		c-0.52637-0.58301-1.36914-0.875-2.52686-0.875c-1.30029,0-2.771,0.39844-4.41309,1.19531l-0.72559-1.80762
		c0.76855-0.41699,1.61084-0.74512,2.52686-0.98242c0.91553-0.2373,1.8335-0.35547,2.75439-0.35547
		c1.85986,0,3.23877,0.41309,4.13525,1.23828c0.89697,0.82617,1.34521,2.14941,1.34521,3.97168v10.64844H104.53563z
		 M99.19725,100.58835c1.47119,0,2.62646-0.40234,3.4668-1.20996c0.83984-0.80664,1.25977-1.93555,1.25977-3.3877v-1.40918
		l-2.36328,0.09961c-1.87891,0.06641-3.23389,0.3584-4.06445,0.875c-0.83057,0.51758-1.24561,1.32227-1.24561,2.41309
		c0,0.85449,0.25879,1.50488,0.77588,1.9502C97.54393,100.36569,98.26707,100.58835,99.19725,100.58835z"/>
	<path class="st1" d="M120.74998,102.25436l-0.46973-2.2207h-0.11377c-0.77832,0.97754-1.5542,1.63965-2.32764,1.98535
		c-0.77344,0.34668-1.73926,0.52051-2.89697,0.52051c-1.54688,0-2.75928-0.39941-3.63721-1.19629s-1.31641-1.93066-1.31641-3.40234
		c0-3.15039,2.51953-4.80176,7.55908-4.9541l2.64746-0.08496v-0.96875c0-1.22363-0.26318-2.12793-0.79004-2.71191
		c-0.52637-0.58301-1.36914-0.875-2.52686-0.875c-1.30029,0-2.771,0.39844-4.41309,1.19531l-0.72559-1.80762
		c0.76855-0.41699,1.61084-0.74512,2.52686-0.98242c0.91553-0.2373,1.8335-0.35547,2.75439-0.35547
		c1.85986,0,3.23877,0.41309,4.13525,1.23828c0.89697,0.82617,1.34521,2.14941,1.34521,3.97168v10.64844H120.74998z
		 M115.41161,100.58835c1.47119,0,2.62646-0.40234,3.4668-1.20996c0.83984-0.80664,1.25977-1.93555,1.25977-3.3877v-1.40918
		l-2.36328,0.09961c-1.87891,0.06641-3.23389,0.3584-4.06445,0.875c-0.83057,0.51758-1.24561,1.32227-1.24561,2.41309
		c0,0.85449,0.25879,1.50488,0.77588,1.9502C113.75829,100.36569,114.48143,100.58835,115.41161,100.58835z"/>
	<path class="st1" d="M134.48778,86.36765c0.69238,0,1.31396,0.05664,1.86475,0.1709l-0.32764,2.19238
		c-0.64551-0.14258-1.21484-0.21387-1.70801-0.21387c-1.2627,0-2.3418,0.5127-3.23877,1.53711
		c-0.89697,1.02539-1.34521,2.30176-1.34521,3.83008v8.37012h-2.36328V86.65182h1.9502l0.27051,2.88965h0.11426
		c0.57861-1.01465,1.27588-1.79785,2.09229-2.34863C132.61327,86.64304,133.50975,86.36765,134.48778,86.36765z"/>
	<path class="st1" d="M149.89061,100.16159h-0.12842c-1.09131,1.58496-2.72363,2.37793-4.89697,2.37793
		c-2.04053,0-3.62793-0.69824-4.76172-2.09277c-1.13428-1.39551-1.70117-3.37891-1.70117-5.95117
		c0-2.57129,0.56934-4.56934,1.70801-5.99316c1.13916-1.42285,2.72363-2.13477,4.75488-2.13477
		c2.11621,0,3.73926,0.76855,4.86865,2.30566h0.18506l-0.09961-1.12402l-0.05713-1.09668v-6.34863h2.36328v22.15039h-1.92188
		L149.89061,100.16159z M145.16405,100.56003c1.61328,0,2.7832-0.43848,3.50928-1.31641s1.08887-2.29395,1.08887-4.24902v-0.49902
		c0-2.21094-0.36768-3.78809-1.10303-4.7334c-0.73584-0.94336-1.91016-1.41602-3.52344-1.41602
		c-1.38574,0-2.44629,0.53906-3.18164,1.61523c-0.73584,1.07812-1.10352,2.59863-1.10352,4.56348
		c0,1.99219,0.36523,3.49707,1.09619,4.5127S143.74998,100.56003,145.16405,100.56003z"/>
	<path class="st1" d="M163.72752,102.53952c-2.30615,0-4.12598-0.70312-5.45947-2.10742s-2-3.35449-2-5.85059
		c0-2.51465,0.61914-4.5127,1.85742-5.99316c1.23877-1.48047,2.90186-2.2207,4.98975-2.2207
		c1.95508,0,3.50195,0.64258,4.64111,1.92871c1.13867,1.28613,1.70801,2.98242,1.70801,5.08887v1.49512h-10.74805
		c0.04736,1.83203,0.51025,3.22168,1.38818,4.1709s2.11377,1.42383,3.7085,1.42383c1.67969,0,3.34033-0.35156,4.98242-1.05371
		v2.10742c-0.83545,0.36035-1.62549,0.61914-2.37012,0.77539C165.68016,102.46042,164.78075,102.53952,163.72752,102.53952z
		 M163.0869,88.34616c-1.25293,0-2.25195,0.4082-2.99658,1.22461c-0.74512,0.81641-1.18408,1.94531-1.31689,3.3877h8.15723
		c0-1.49023-0.33252-2.63086-0.99658-3.42383C165.26952,88.74265,164.3203,88.34616,163.0869,88.34616z"/>
	<path class="st1" d="M180.86717,82.42429c0-0.54102,0.13281-0.9375,0.39844-1.18848
		c0.26562-0.25195,0.59814-0.37793,0.99658-0.37793c0.37939,0,0.70703,0.12793,0.98242,0.38477
		c0.2749,0.25586,0.4126,0.65039,0.4126,1.18164s-0.1377,0.92773-0.4126,1.18848c-0.27539,0.26074-0.60303,0.3916-0.98242,0.3916
		c-0.39844,0-0.73096-0.13086-0.99658-0.3916S180.86717,82.95554,180.86717,82.42429z M183.42967,102.25436h-2.36328V86.65182
		h2.36328V102.25436z"/>
	<path class="st1" d="M199.11717,102.25436V92.16159c0-1.27148-0.28906-2.2207-0.86914-2.84766
		c-0.57812-0.62598-1.48438-0.93945-2.71875-0.93945c-1.63086,0-2.82812,0.44141-3.58594,1.32422
		c-0.75977,0.88281-1.13965,2.33887-1.13965,4.37012v8.18555h-2.36328V86.65182h1.92188l0.38379,2.13574h0.11523
		c0.48242-0.76855,1.16211-1.36426,2.03516-1.78711c0.87305-0.42188,1.8457-0.63281,2.91797-0.63281
		c1.87891,0,3.29297,0.45312,4.24219,1.35938s1.42383,2.35547,1.42383,4.34863v10.17871H199.11717z"/>
	<path class="st1" d="M220.49901,102.53952c-2.30664,0-4.12598-0.70312-5.45898-2.10742
		c-1.33398-1.4043-2.00098-3.35449-2.00098-5.85059c0-2.51465,0.62012-4.5127,1.8584-5.99316s2.90137-2.2207,4.98926-2.2207
		c1.95508,0,3.50195,0.64258,4.64062,1.92871s1.70898,2.98242,1.70898,5.08887v1.49512h-10.74805
		c0.04688,1.83203,0.50977,3.22168,1.3877,4.1709s2.11426,1.42383,3.70801,1.42383c1.67969,0,3.34082-0.35156,4.98242-1.05371
		v2.10742c-0.83496,0.36035-1.625,0.61914-2.37012,0.77539S221.55272,102.53952,220.49901,102.53952z M219.85838,88.34616
		c-1.25293,0-2.25195,0.4082-2.99707,1.22461s-1.18359,1.94531-1.31641,3.3877h8.15723c0-1.49023-0.33203-2.63086-0.99707-3.42383
		C222.041,88.74265,221.09178,88.34616,219.85838,88.34616z"/>
	<path class="st1" d="M228.95506,95.52097V93.3569h6.99023v2.16406H228.95506z"/>
	<path class="st1" d="M245.88084,102.53952c-2.25879,0-4.00684-0.69531-5.24512-2.08594s-1.8584-3.35742-1.8584-5.90039
		c0-2.61035,0.62891-4.62695,1.88672-6.05078c1.25684-1.42285,3.04883-2.13477,5.37402-2.13477
		c0.74902,0,1.49902,0.08008,2.24902,0.24219c0.75,0.16113,1.33789,0.35059,1.76562,0.56934l-0.72656,2.00684
		c-0.52148-0.20898-1.09082-0.38184-1.70801-0.51953s-1.16309-0.20605-1.63672-0.20605c-3.16992,0-4.75488,2.02148-4.75488,6.06445
		c0,1.91699,0.38672,3.3877,1.16016,4.41211c0.77344,1.02539,1.91895,1.53809,3.4375,1.53809c1.2998,0,2.63379-0.28027,4-0.83984
		v2.09277C248.78026,102.26901,247.46581,102.53952,245.88084,102.53952z"/>
	<path class="st1" d="M266.99313,94.43893c0,2.54395-0.64062,4.5293-1.92188,5.95801
		c-1.28125,1.42773-3.05176,2.14258-5.31055,2.14258c-1.39453,0-2.63281-0.32812-3.71484-0.98242
		c-1.08202-0.65527-1.91698-1.59473-2.50584-2.81934c-0.58789-1.22363-0.88281-2.65723-0.88281-4.29883
		c0-2.54297,0.63574-4.52441,1.9082-5.94336c1.27148-1.41895,3.03709-2.12793,5.29588-2.12793
		c2.18262,0,3.91699,0.72559,5.20312,2.17773C266.34958,89.99753,266.99313,91.96237,266.99313,94.43893z M255.10643,94.43893
		c0,1.99316,0.39844,3.51172,1.1953,4.55566c0.79785,1.04395,1.96973,1.56543,3.5166,1.56543s2.7207-0.51953,3.52344-1.55859
		c0.80176-1.03906,1.20215-2.55957,1.20215-4.5625c0-1.9834-0.40039-3.49023-1.20215-4.51953
		c-0.80273-1.03027-1.98633-1.54492-3.55176-1.54492c-1.54785,0-2.71484,0.50781-3.50195,1.52344
		C255.49998,90.91354,255.10643,92.42722,255.10643,94.43893z"/>
	<path class="st1" d="M291.02243,102.25436V92.10397c0-1.24316-0.26562-2.1748-0.79688-2.79688
		c-0.53223-0.62109-1.35742-0.93262-2.47754-0.93262c-1.4707,0-2.55762,0.42285-3.25977,1.2666
		c-0.70215,0.8457-1.05371,2.14551-1.05371,3.90137v8.71191h-2.3623V92.10397c0-1.24316-0.2666-2.1748-0.79785-2.79688
		c-0.53125-0.62109-1.36133-0.93262-2.49121-0.93262c-1.48047,0-2.56445,0.44434-3.25293,1.33105
		c-0.6875,0.8877-1.03223,2.3418-1.03223,4.36328v8.18555h-2.3623V86.65182h1.92188l0.38379,2.13574h0.11426
		c0.44531-0.75977,1.07422-1.35254,1.88574-1.7793c0.81152-0.42773,1.7207-0.64062,2.72656-0.64062
		c2.43848,0,4.0332,0.88281,4.7832,2.64746h0.11328c0.46484-0.81641,1.13965-1.46094,2.02148-1.93555
		c0.88281-0.47461,1.88867-0.71191,3.01855-0.71191c1.76465,0,3.08691,0.45312,3.96484,1.35938
		c0.87695,0.90625,1.31641,2.35547,1.31641,4.34863v10.17871H291.02243z"/>
	<path class="st1" d="M318.14157,102.25436V92.10397c0-1.24316-0.26562-2.1748-0.79688-2.79688
		c-0.53223-0.62109-1.35742-0.93262-2.47754-0.93262c-1.4707,0-2.55762,0.42285-3.25977,1.2666
		c-0.70215,0.8457-1.05371,2.14551-1.05371,3.90137v8.71191h-2.3623V92.10397c0-1.24316-0.2666-2.1748-0.79785-2.79688
		c-0.53125-0.62109-1.36133-0.93262-2.49121-0.93262c-1.48047,0-2.56445,0.44434-3.25293,1.33105
		c-0.6875,0.8877-1.03223,2.3418-1.03223,4.36328v8.18555h-2.3623V86.65182h1.92188l0.38379,2.13574h0.11426
		c0.44531-0.75977,1.07422-1.35254,1.88574-1.7793c0.81152-0.42773,1.7207-0.64062,2.72656-0.64062
		c2.43848,0,4.0332,0.88281,4.7832,2.64746h0.11328c0.46484-0.81641,1.13965-1.46094,2.02148-1.93555
		c0.88281-0.47461,1.88867-0.71191,3.01855-0.71191c1.76465,0,3.08691,0.45312,3.96484,1.35938
		c0.87695,0.90625,1.31641,2.35547,1.31641,4.34863v10.17871H318.14157z"/>
	<path class="st1" d="M331.96481,102.53952c-2.30664,0-4.12598-0.70312-5.45898-2.10742
		c-1.33398-1.4043-2.00098-3.35449-2.00098-5.85059c0-2.51465,0.62012-4.5127,1.8584-5.99316s2.90137-2.2207,4.98926-2.2207
		c1.95508,0,3.50195,0.64258,4.64062,1.92871s1.70898,2.98242,1.70898,5.08887v1.49512h-10.74805
		c0.04688,1.83203,0.50977,3.22168,1.3877,4.1709s2.11426,1.42383,3.70801,1.42383c1.67969,0,3.34082-0.35156,4.98242-1.05371
		v2.10742c-0.83496,0.36035-1.625,0.61914-2.37012,0.77539S333.01852,102.53952,331.96481,102.53952z M331.32419,88.34616
		c-1.25293,0-2.25195,0.4082-2.99707,1.22461s-1.18359,1.94531-1.31641,3.3877h8.15723c0-1.49023-0.33203-2.63086-0.99707-3.42383
		C333.50681,88.74265,332.55759,88.34616,331.32419,88.34616z"/>
	<path class="st1" d="M348.84763,86.36765c0.69336,0,1.31445,0.05664,1.86523,0.1709l-0.32715,2.19238
		c-0.64551-0.14258-1.21484-0.21387-1.70898-0.21387c-1.26172,0-2.3418,0.5127-3.23828,1.53711
		c-0.89648,1.02539-1.3457,2.30176-1.3457,3.83008v8.37012h-2.3623V86.65182h1.9502l0.27051,2.88965h0.11328
		c0.5791-1.01465,1.27637-1.79785,2.09277-2.34863C346.9736,86.64304,347.87009,86.36765,348.84763,86.36765z"/>
	<path class="st1" d="M359.86618,102.53952c-2.25879,0-4.00684-0.69531-5.24512-2.08594s-1.8584-3.35742-1.8584-5.90039
		c0-2.61035,0.62891-4.62695,1.88672-6.05078c1.25684-1.42285,3.04883-2.13477,5.37402-2.13477
		c0.74902,0,1.49902,0.08008,2.24902,0.24219c0.75,0.16113,1.33789,0.35059,1.76562,0.56934l-0.72656,2.00684
		c-0.52148-0.20898-1.09082-0.38184-1.70801-0.51953s-1.16309-0.20605-1.63672-0.20605c-3.16992,0-4.75488,2.02148-4.75488,6.06445
		c0,1.91699,0.38672,3.3877,1.16016,4.41211c0.77344,1.02539,1.91895,1.53809,3.4375,1.53809c1.2998,0,2.63379-0.28027,4-0.83984
		v2.09277C362.76559,102.26901,361.45114,102.53952,359.86618,102.53952z"/>
	<path class="st1" d="M374.10251,102.53952c-2.30664,0-4.12598-0.70312-5.45898-2.10742
		c-1.33398-1.4043-2.00098-3.35449-2.00098-5.85059c0-2.51465,0.62012-4.5127,1.8584-5.99316s2.90137-2.2207,4.98926-2.2207
		c1.95508,0,3.50195,0.64258,4.64062,1.92871s1.70898,2.98242,1.70898,5.08887v1.49512h-10.74805
		c0.04688,1.83203,0.50977,3.22168,1.3877,4.1709s2.11426,1.42383,3.70801,1.42383c1.67969,0,3.34082-0.35156,4.98242-1.05371
		v2.10742c-0.83496,0.36035-1.625,0.61914-2.37012,0.77539S375.15622,102.53952,374.10251,102.53952z M373.46188,88.34616
		c-1.25293,0-2.25195,0.4082-2.99707,1.22461s-1.18359,1.94531-1.31641,3.3877h8.15723c0-1.49023-0.33203-2.63086-0.99707-3.42383
		C375.6445,88.74265,374.69528,88.34616,373.46188,88.34616z"/>
</g>
</svg>
