<svg width="160" height="91" viewBox="0 0 160 91" fill="none" xmlns="http://www.w3.org/2000/svg">
<path d="M113.81 0C105.88 0 95.46 2 84.91 5.43C87.57 6.53 90.17 7.72 92.7 8.98C99.5688 7.00283 106.664 5.92055 113.81 5.76C124.323 5.76 134.406 9.93635 141.84 17.3703C149.274 24.8042 153.45 34.8868 153.45 45.4C153.45 55.9132 149.274 65.9958 141.84 73.4297C134.406 80.8637 124.323 85.04 113.81 85.04C88.22 85 44.13 65.45 44.13 45.4C44.13 34.1 58.13 22.95 74.93 15.4C72.32 14.45 69.68 13.61 67.07 12.86C51.16 21 38.37 32.4 38.37 45.4C38.37 71.17 88.65 90.8 113.81 90.8C125.851 90.8 137.398 86.0168 145.913 77.5026C154.427 68.9885 159.21 57.4408 159.21 45.4C159.21 33.3592 154.427 21.8115 145.913 13.2974C137.398 4.7832 125.851 0 113.81 0Z" fill="#4191A5"/>
<path d="M45.4 85C34.8868 85 24.8042 80.8237 17.3703 73.3897C9.93635 65.9558 5.76 55.8732 5.76 45.36C5.76 34.8468 9.93635 24.7642 17.3703 17.3303C24.8042 9.89635 34.8868 5.72 45.4 5.72C70.99 5.72 115.08 25.31 115.08 45.36C115.08 56.66 101.08 67.81 84.28 75.36C86.9 76.31 89.53 77.16 92.14 77.9C108.05 69.76 120.84 58.33 120.84 45.33C120.84 19.63 70.56 0 45.4 0C33.3592 0 21.8115 4.7832 13.2974 13.2974C4.7832 21.8115 0 33.3592 0 45.4C0 57.4408 4.7832 68.9885 13.2974 77.5026C21.8115 86.0168 33.3592 90.8 45.4 90.8C53.33 90.8 63.75 88.8 74.3 85.37C71.64 84.27 69.04 83.08 66.51 81.82C59.6394 83.7836 52.5442 84.8525 45.4 85Z" fill="#4191A5"/>
</svg>
