<?xml version="1.0" encoding="UTF-8"?>
<!DOCTYPE svg PUBLIC "-//W3C//DTD SVG 1.1//EN" "http://www.w3.org/Graphics/SVG/1.1/DTD/svg11.dtd">
<svg xmlns="http://www.w3.org/2000/svg" version="1.1" width="402px" height="230px" style="shape-rendering:geometricPrecision; text-rendering:geometricPrecision; image-rendering:optimizeQuality; fill-rule:evenodd; clip-rule:evenodd" xmlns:xlink="http://www.w3.org/1999/xlink">
<g><path style="opacity:0.942" fill="#4191a4" d="M 98.5,-0.5 C 109.5,-0.5 120.5,-0.5 131.5,-0.5C 183.374,6.84354 230.374,26.0102 272.5,57C 316.5,95.3333 316.5,133.667 272.5,172C 260.349,181.581 247.349,189.914 233.5,197C 225.902,195.97 218.569,193.803 211.5,190.5C 234.998,180.344 255.831,166.344 274,148.5C 294.667,125.833 294.667,103.167 274,80.5C 251.481,58.6912 225.314,42.5245 195.5,32C 166.613,20.2891 136.613,14.6224 105.5,15C 53.3333,23.1667 23.1667,53.3333 15,105.5C 13.0375,143.066 26.8708,173.232 56.5,196C 80.1912,212.006 106.191,217.672 134.5,213C 145.437,211.346 156.27,209.179 167,206.5C 173.888,209.361 180.722,212.361 187.5,215.5C 169.301,222.336 150.635,227.003 131.5,229.5C 120.5,229.5 109.5,229.5 98.5,229.5C 43.8333,218.167 10.8333,185.167 -0.5,130.5C -0.5,119.833 -0.5,109.167 -0.5,98.5C 10.8333,43.8333 43.8333,10.8333 98.5,-0.5 Z"/></g>
<g><path style="opacity:0.942" fill="#4191a4" d="M 269.5,-0.5 C 280.5,-0.5 291.5,-0.5 302.5,-0.5C 357.167,10.8333 390.167,43.8333 401.5,98.5C 401.5,109.167 401.5,119.833 401.5,130.5C 390.167,185.167 357.167,218.167 302.5,229.5C 291.5,229.5 280.5,229.5 269.5,229.5C 217.626,222.156 170.626,202.99 128.5,172C 84.5,133.667 84.5,95.3333 128.5,57C 140.651,47.4194 153.651,39.086 167.5,32C 175.098,33.03 182.431,35.1967 189.5,38.5C 166.002,48.6561 145.169,62.6561 127,80.5C 106.333,103.167 106.333,125.833 127,148.5C 149.519,170.309 175.686,186.475 205.5,197C 234.387,208.711 264.387,214.378 295.5,214C 347.667,205.833 377.833,175.667 386,123.5C 387.963,85.9343 374.129,55.7677 344.5,33C 320.809,16.9942 294.809,11.3275 266.5,16C 255.563,17.654 244.73,19.8207 234,22.5C 227.112,19.6395 220.278,16.6395 213.5,13.5C 231.699,6.66371 250.365,1.99705 269.5,-0.5 Z"/></g>
</svg>
