<svg width="54" height="54" viewBox="0 0 54 54" fill="none" xmlns="http://www.w3.org/2000/svg">
<rect width="54" height="54" fill="white"/>
<path d="M19.6431 14.037C21.0071 11.475 24.4631 12.44 25.3421 14.761C27.3721 20.126 29.4341 25.461 31.4651 30.826C35.1341 23.803 38.8321 16.81 42.5001 9.787C38.4071 6.17 33.0111 4 27.1301 4C14.3371 4.03 3.97006 14.339 4.00006 27.058C4.00006 31.008 5.03006 34.745 6.79006 38C11.0641 30.012 15.3701 22.025 19.6441 14.037H19.6431Z" fill="#143D8D"/>
<path fill-rule="evenodd" clip-rule="evenodd" d="M33.547 39.906C32.197 42.489 28.774 41.498 27.903 39.185C25.861 33.837 23.85 28.459 21.808 23.112C18.206 29.872 14.603 36.63 11 43.42C15.143 47.476 20.818 50 27.092 50C39.762 49.97 50 39.695 50 27.017C50 22.601 48.739 18.485 46.577 15C42.2219 23.2958 37.8785 31.5978 33.547 39.906Z" fill="#143D8D"/>
</svg>
