<?xml version="1.0" encoding="UTF-8" ?>
<!DOCTYPE svg PUBLIC "-//W3C//DTD SVG 1.1//EN" "http://www.w3.org/Graphics/SVG/1.1/DTD/svg11.dtd">
<svg width="225pt" height="225pt" viewBox="0 0 225 225" version="1.1" xmlns="http://www.w3.org/2000/svg">
<g id="#ffffffff">
</g>
<g id="#fec742ff">
<path fill="#fec742" opacity="1.00" d=" M 114.33 0.00 L 118.97 0.00 C 124.55 0.72 130.01 2.92 134.01 6.97 C 147.72 20.87 161.35 34.84 175.09 48.71 C 169.00 43.75 160.82 41.21 153.06 43.03 C 147.24 44.11 142.39 47.79 138.40 51.98 C 124.33 38.00 110.41 23.85 96.54 9.66 C 101.14 4.48 107.34 0.69 114.33 0.00 Z" />
</g>
<g id="#fcb91dff">
<path fill="#fcb91d" opacity="1.00" d=" M 7.22 97.31 C 36.96 68.06 66.80 38.91 96.54 9.66 C 110.41 23.85 124.33 38.00 138.40 51.98 C 108.73 81.10 79.02 110.19 49.35 139.31 C 43.81 144.55 40.93 152.39 41.83 159.97 C 42.20 165.25 44.90 169.95 47.87 174.19 C 34.20 159.53 19.75 145.60 5.97 131.04 C 2.39 127.04 0.57 121.78 0.00 116.51 L 0.00 112.70 C 0.76 106.99 3.04 101.37 7.22 97.31 Z" />
</g>
<g id="#9a4622ff">
<path fill="#9a4622" opacity="1.00" d=" M 177.07 50.65 C 190.56 64.94 204.61 78.69 218.24 92.84 C 222.63 97.38 224.70 103.63 225.00 109.84 L 225.00 110.55 C 224.51 116.58 222.43 122.67 218.06 127.01 C 212.16 132.93 206.14 138.73 200.20 144.60 C 203.24 138.59 205.67 131.79 203.97 125.00 C 203.03 118.48 198.58 113.37 194.00 108.97 C 187.01 101.94 180.23 94.71 173.12 87.81 C 178.88 82.85 183.32 75.83 183.16 68.01 C 183.58 61.63 180.77 55.66 177.07 50.65 Z" />
</g>
<g id="#cc5d28ff">
<path fill="#cc5d28" opacity="1.00" d=" M 83.54 175.59 C 113.43 146.36 143.21 117.02 173.12 87.81 C 180.23 94.71 187.01 101.94 194.00 108.97 C 198.58 113.37 203.03 118.48 203.97 125.00 C 205.67 131.79 203.24 138.59 200.20 144.60 C 175.36 168.97 150.50 193.33 125.65 217.68 C 117.80 225.63 104.42 226.88 95.03 221.00 C 91.36 218.76 88.61 215.36 85.58 212.38 C 73.26 199.96 61.21 187.29 48.76 175.00 C 52.05 177.57 55.52 180.14 59.60 181.27 C 67.85 183.74 77.30 181.54 83.54 175.59 Z" />
</g>
</svg>
