<svg width="48" height="48" viewBox="0 0 48 48" fill="none" xmlns="http://www.w3.org/2000/svg">
<path d="M14.0002 7.00001V4C14.0002 3.44772 14.4479 3 15.0002 3H17.0003C17.5526 3 18.0003 3.44772 18.0003 4V7.00001H14.0002Z" fill="#00ABEE"/>
<path d="M30 7.00001V4C30 3.44772 30.4477 3 31 3H33C33.5523 3 34 3.44772 34 4V7.00001H30Z" fill="#00ABEE"/>
<path opacity="0.3" fill-rule="evenodd" clip-rule="evenodd" d="M6 8.5C6 7.67157 6.67157 7 7.5 7H14V10C14 10.5523 14.4477 11 15 11H17C17.5523 11 18 10.5523 18 10V7H30.0001V10C30.0001 10.5523 30.4478 11 31.0001 11H33.0001C33.5524 11 34.0001 10.5523 34.0001 10V7H40.5001C41.3285 7 42.0001 7.67157 42.0001 8.5V15H6V8.5Z" fill="#00ABEE"/>
<path opacity="0.3" fill-rule="evenodd" clip-rule="evenodd" d="M33 43C27.4772 43 23 38.5228 23 33C23 27.4772 27.4772 23 33 23C38.5228 23 43 27.4772 43 33C43 38.5228 38.5228 43 33 43Z" fill="#00ABEE"/>
<path d="M42 24.9131C40.1721 22.8802 37.6656 21.4699 34.8369 21.0391C34.7555 21.0204 34.6718 21.0088 34.5859 21.0039C34.0669 20.936 33.5376 20.9004 33 20.9004C32.4621 20.9004 31.9324 20.9359 31.4131 21.0039C31.3276 21.0088 31.2442 21.0204 31.1631 21.0391C29.6669 21.2669 28.2622 21.7711 26.999 22.4941C26.9959 21.6684 26.3264 21 25.5 21H22.5C21.6716 21 21 21.6716 21 22.5V25.5C21 26.3264 21.6685 26.9958 22.4941 26.999C21.7695 28.2648 21.2634 29.6723 21.0361 31.1719C21.0195 31.2464 21.01 31.3231 21.0049 31.4014C20.9358 31.9245 20.9004 32.4581 20.9004 33C20.9004 33.5415 20.936 34.075 21.0049 34.5977C21.01 34.6767 21.0203 34.7539 21.0371 34.8291C21.4665 37.6614 22.8789 40.1703 24.9141 42H7.5C6.67157 42 6 41.3284 6 40.5V15H42V24.9131ZM41.6709 41.4346C41.6011 41.522 41.522 41.6011 41.4346 41.6709C41.5144 41.5932 41.5932 41.5145 41.6709 41.4346ZM13.5 30C12.6717 30 12.0001 30.6716 12 31.5V34.5C12 35.3284 12.6716 36 13.5 36H16.5C17.3284 36 18 35.3284 18 34.5V31.5C17.9999 30.6716 17.3283 30 16.5 30H13.5ZM13.5 21C12.6716 21 12 21.6716 12 22.5V25.5C12 26.3284 12.6716 27 13.5 27H16.5C17.3284 27 18 26.3284 18 25.5V22.5C18 21.6716 17.3284 21 16.5 21H13.5Z" fill="#00ABEE"/>
<path fill-rule="evenodd" clip-rule="evenodd" d="M32.4248 27.1461C32.4359 27.0014 32.5566 26.8896 32.7018 26.8896H33.3043C33.447 26.8896 33.5665 26.9978 33.5807 27.1398L34.1112 32.4452L37.8601 34.5874C37.9467 34.6369 38.0001 34.7289 38.0001 34.8286V35.4149C38.0001 35.598 37.8259 35.731 37.6492 35.6828L32.1105 34.1723C31.9819 34.1372 31.8964 34.0158 31.9066 33.883L32.4248 27.1461Z" fill="#00ABEE"/>
</svg>
