<svg width="48" height="48" viewBox="0 0 48 48" fill="none" xmlns="http://www.w3.org/2000/svg">
<path opacity="0.3" d="M29.5 5C30.8807 5 32 6.11929 32 7.5V12H20C17.7909 12 16 13.7909 16 16V32C16.0001 34.209 17.7909 36 20 36H32V40.5C32 41.8807 30.8807 43 29.5 43H13.5C12.1193 43 11 41.8807 11 40.5V7.5C11 6.11929 12.1193 5 13.5 5H29.5Z" fill="#00ABEE"/>
<path d="M29.5 2C32.5376 2 35 4.46243 35 7.5V12H32V7.5C32 6.11929 30.8807 5 29.5 5H27.5V6.7002C27.4999 7.14187 27.1419 7.49989 26.7002 7.5H16.2998C15.8581 7.49989 15.5001 7.14187 15.5 6.7002V5H13.5C12.1193 5 11 6.11929 11 7.5V40.5C11 41.8807 12.1193 43 13.5 43H29.5C30.8807 43 32 41.8807 32 40.5V36H35V40.5C35 43.5376 32.5376 46 29.5 46H13.5C10.4624 46 8 43.5376 8 40.5V7.5C8 4.46243 10.4624 2 13.5 2H29.5Z" fill="#00ABEE"/>
<path opacity="0.3" fill-rule="evenodd" clip-rule="evenodd" d="M21 14.667H39.6667C40.9554 14.667 42 15.7117 42 17.0003V31.0003C42 32.289 40.9554 33.3337 39.6667 33.3337H21C19.7114 33.3337 18.6667 32.289 18.6667 31.0003V17.0003C18.6667 15.7117 19.7114 14.667 21 14.667Z" fill="#00ABEE"/>
<path fill-rule="evenodd" clip-rule="evenodd" d="M37.9167 22.833H22.75C21.7835 22.833 21 23.6165 21 24.583V25.1663H26.3501C26.6595 25.1663 26.9563 25.2893 27.175 25.508L28.3417 26.6747C28.8699 27.2029 29.5863 27.4997 30.3333 27.4997C31.0803 27.4997 31.7967 27.2029 32.325 26.6747L33.4916 25.508C33.7104 25.2893 34.0072 25.1663 34.3166 25.1663H39.6667V24.583C39.6667 23.6165 38.8832 22.833 37.9167 22.833Z" fill="#00ABEE"/>
<path fill-rule="evenodd" clip-rule="evenodd" d="M22.75 17C21.7835 17 21 17.7835 21 18.75V19.3333H39.6667V18.75C39.6667 17.7835 38.8832 17 37.9167 17H22.75Z" fill="#00ABEE"/>
</svg>
