<svg width="48" height="48" viewBox="0 0 48 48" fill="none" xmlns="http://www.w3.org/2000/svg">
<path opacity="0.3" d="M34 34C34 39.5228 29.5228 44 24 44C18.4772 44 14 39.5228 14 34C14 28.4772 18.4772 24 24 24C29.5228 24 34 28.4772 34 34Z" fill="#00ABEE"/>
<path opacity="0.3" d="M39 24C39.5523 24 40 24.4477 40 25V27C40 27.5523 39.5523 28 39 28H34.3906C33.7518 26.8962 32.9442 25.9029 32 25.0576V25C32 24.4477 32.4477 24 33 24H39Z" fill="#00ABEE"/>
<path opacity="0.3" d="M42 6C43.1046 6 44 6.89543 44 8V32C44 33.1046 43.1046 34 42 34H36C36 27.3726 30.6274 22 24 22C17.3726 22 12 27.3726 12 34H6C4.89543 34 4 33.1046 4 32V8C4 6.89543 4.89543 6 6 6H42Z" fill="#00ABEE"/>
<path d="M4 12H44V18H4V12Z" fill="#00ABEE"/>
<path fill-rule="evenodd" clip-rule="evenodd" d="M18.156 33.6389C18.0395 33.6389 17.964 33.5161 18.0165 33.4121L18.5054 32.4442C18.532 32.3916 18.5859 32.3584 18.6449 32.3584H25.409C25.5254 32.3584 25.601 32.4812 25.5485 32.5851L25.0596 33.5531C25.033 33.6057 24.9791 33.6389 24.9201 33.6389H18.156ZM24.7622 34.9191C24.8787 34.9191 24.9542 35.0419 24.9017 35.1459L24.4129 36.1138C24.3863 36.1664 24.3323 36.1996 24.2734 36.1996H18.156C18.0395 36.1996 17.964 36.0768 18.0165 35.9729L18.5054 35.005C18.532 34.9523 18.5859 34.9191 18.6449 34.9191H24.7622Z" fill="#00ABEE"/>
<path fill-rule="evenodd" clip-rule="evenodd" d="M26.5484 31.4739C26.2949 31.1333 25.9644 30.8846 25.557 30.7277C25.1495 30.5708 24.7511 30.4924 24.3618 30.4924C23.8638 30.4924 23.4111 30.582 23.0036 30.7613C22.5961 30.9406 22.2453 31.1871 21.951 31.5008C21.6567 31.8145 21.4304 32.182 21.2719 32.6033C21.1135 33.0246 21.0342 33.4817 21.0342 33.9747C21.0342 34.4946 21.1112 34.9696 21.2651 35.3999C21.4191 35.8301 21.6386 36.1998 21.9238 36.5091C22.2091 36.8183 22.5509 37.0581 22.9493 37.2284C23.3477 37.3987 23.7959 37.4839 24.2939 37.4839C24.81 37.4839 25.2672 37.383 25.6656 37.1813C26.064 36.9797 26.3855 36.713 26.6299 36.3814L28.0017 37.336C27.5761 37.8648 27.0555 38.2749 26.4398 38.5662C25.8241 38.8575 25.1043 39.0032 24.2803 39.0032C23.5288 39.0032 22.8384 38.8799 22.2091 38.6334C21.5798 38.3869 21.0388 38.0418 20.586 37.5981C20.1333 37.1544 19.7802 36.6256 19.5267 36.0116C19.2731 35.3976 19.1464 34.7187 19.1464 33.9747C19.1464 33.2128 19.2799 32.5249 19.547 31.9109C19.8141 31.2969 20.1808 30.7748 20.6472 30.3445C21.1135 29.9143 21.6635 29.5826 22.2973 29.3496C22.9312 29.1165 23.6193 29 24.3618 29C24.6696 29 24.9911 29.0291 25.3261 29.0874C25.6611 29.1457 25.9825 29.2353 26.2904 29.3563C26.5982 29.4773 26.888 29.6274 27.1596 29.8067C27.4313 29.986 27.6622 30.2011 27.8523 30.4521L26.5484 31.4739Z" fill="#00ABEE"/>
</svg>
