<svg width="48" height="48" viewBox="0 0 48 48" fill="none" xmlns="http://www.w3.org/2000/svg">
<path opacity="0.3" fill-rule="evenodd" clip-rule="evenodd" d="M33.9859 12.8207L35.2123 7.56482C35.4615 6.49679 36.4137 5.74121 37.5104 5.74121H41.6401C42.9434 5.74121 44 6.79775 44 8.10105C44 9.40435 42.9434 10.4609 41.6401 10.4609H39.383L36.2892 23.6876L34.7275 33.0582C34.6357 33.6087 34.1112 33.9775 33.5622 33.8777L9.21424 29.4508C8.83963 29.3827 8.5362 29.1078 8.4316 28.7417L4.24697 14.0954C4.06445 13.4566 4.54411 12.8207 5.20849 12.8207H33.9859Z" fill="#00ABEE"/>
<path fill-rule="evenodd" clip-rule="evenodd" d="M16 39C16 40.6569 14.6569 42 13 42C11.3431 42 10 40.6569 10 39C10 37.3431 11.3431 36 13 36C14.6569 36 16 37.3431 16 39ZM34 39C34 40.6569 32.6569 42 31 42C29.3431 42 28 40.6569 28 39C28 37.3431 29.3431 36 31 36C32.6569 36 34 37.3431 34 39Z" fill="#00ABEE"/>
</svg>
