<svg width="48" height="48" viewBox="0 0 48 48" fill="none" xmlns="http://www.w3.org/2000/svg">
<path fill-rule="evenodd" clip-rule="evenodd" d="M4 12H44V18H38.5007C38.5002 18 38.4998 18 38.4993 18H31.8529C29.7695 16.1344 27.0178 15 24 15C20.9823 15 18.2306 16.1344 16.1472 18H4V12ZM24 17C25.5479 17 27.0118 17.3597 28.3126 18H19.6875C20.9883 17.3597 22.4522 17 24 17Z" fill="#00ABEE"/>
<path opacity="0.3" fill-rule="evenodd" clip-rule="evenodd" d="M6 6C4.89543 6 4 6.89543 4 8V32C4 33.1046 4.89543 34 6 34H11.0379C11.0128 33.67 11 33.3365 11 33C11 31.4987 11.2545 30.0569 11.7227 28.7153C10.7046 28.2355 10 27.2 10 26C10 24.3967 11.2577 23.0872 12.8404 23.0042C14.4138 18.3503 18.814 15 24 15C27.5254 15 30.6876 16.5482 32.8456 19.0016L37.9194 18.0538C38.3031 17.9821 38.6969 17.9821 39.0806 18.0538L44 18.9727V8C44 6.89543 43.1046 6 42 6H6ZM30.4689 19.4455L28.6327 19.7885C28.1635 19.8762 27.7582 20.1235 27.4688 20.4679C26.3645 20.1629 25.2013 20 24 20C20.3158 20 16.9895 21.5326 14.6239 23.995C15.8225 19.9505 19.5667 17 24 17C26.4804 17 28.745 17.9236 30.4689 19.4455ZM12.5271 26.8813C12.8817 26.2177 13.2922 25.5885 13.7523 25H13C12.4477 25 12 25.4477 12 26C12 26.3812 12.2133 26.7126 12.5271 26.8813Z" fill="#00ABEE"/>
<path fill-rule="evenodd" clip-rule="evenodd" d="M14.3835 25C15.2195 20.4487 19.207 17 24 17C26.4804 17 28.745 17.9236 30.4689 19.4455L28.6327 19.7885C27.6862 19.9654 27 20.7916 27 21.7545V27L13 27C12.4477 27 12 26.5523 12 26C12 25.4477 12.4477 25 13 25L14.3835 25Z" fill="#00ABEE"/>
<path opacity="0.3" fill-rule="evenodd" clip-rule="evenodd" d="M27 22.4141C26.0463 22.1443 25.04 22 24 22C17.9249 22 13 26.9249 13 33C13 39.0751 17.9249 44 24 44C26.5211 44 28.8441 43.1519 30.6993 41.7254C28.392 40.1697 27 37.5646 27 34.7686V33.7324C26.4022 33.3866 26 32.7403 26 32C26 31.2597 26.4022 30.6134 27 30.2676V22.4141ZM20 34C21.1046 34 22 33.1046 22 32C22 30.8954 21.1046 30 20 30C18.8954 30 18 30.8954 18 32C18 33.1046 18.8954 34 20 34Z" fill="#00ABEE"/>
<mask id="mask0_1_185" style="mask-type:alpha" maskUnits="userSpaceOnUse" x="13" y="22" width="22" height="22">
<path d="M24 44C17.9249 44 13 39.0751 13 33C13 26.9249 17.9249 22 24 22C30.0751 22 35 26.9249 35 33C35 39.0751 30.0751 44 24 44Z" fill="#00ABEE"/>
</mask>
<g mask="url(#mask0_1_185)">
<path fill-rule="evenodd" clip-rule="evenodd" d="M27 29H13V35H27.0032C27.0011 34.923 27 34.8459 27 34.7686V33.7323C26.4022 33.3864 26 32.7401 26 31.9998C26 31.8487 26.0168 31.7015 26.0485 31.5599L27 31.2136V29ZM18.7881 30.4087L21.9515 31.56C21.9832 31.7016 22 31.8487 22 31.9998C22 33.1044 21.1046 33.9998 20 33.9998C18.8954 33.9998 18 33.1044 18 31.9998C18 31.3508 18.3091 30.7741 18.7881 30.4087Z" fill="#00ABEE"/>
</g>
<path opacity="0.3" fill-rule="evenodd" clip-rule="evenodd" d="M29 21.7334L38.2866 19.9986C38.4277 19.9723 38.5723 19.9723 38.7134 19.9986L48 21.7334V34.7475C48 36.9548 46.861 39.0059 44.9872 40.1726L38.8071 44.0208C38.6191 44.1379 38.3809 44.1379 38.1929 44.0208L32.0128 40.1726C30.139 39.0059 29 36.9548 29 34.7475L29 21.7334Z" fill="#00ABEE"/>
<path fill-rule="evenodd" clip-rule="evenodd" d="M35.5312 27.9184C35.5312 27.1162 36.1815 26.4659 36.9837 26.4659H40.0163C40.8184 26.4659 41.4687 27.1162 41.4687 27.9184V30.0157H42.0753C42.3961 30.0157 42.6562 30.2758 42.6562 30.5967V35.3502C42.6562 35.6711 42.3961 35.9312 42.0753 35.9312H34.9247C34.6039 35.9312 34.3438 35.6711 34.3438 35.3502V30.5967C34.3438 30.2758 34.6039 30.0157 34.9247 30.0157H35.5312V27.9184ZM37.5902 27.6493C37.1089 27.6493 36.7188 28.0395 36.7188 28.5208V30.0155H40.2812V28.5208C40.2812 28.0395 39.8911 27.6493 39.4098 27.6493H37.5902Z" fill="#00ABEE"/>
</svg>
