<svg width="48" height="48" viewBox="0 0 48 48" fill="none" xmlns="http://www.w3.org/2000/svg">
<path opacity="0.3" d="M34 34C34 39.5228 29.5228 44 24 44C18.4772 44 14 39.5228 14 34C14 28.4772 18.4772 24 24 24C29.5228 24 34 28.4772 34 34Z" fill="#00ABEE"/>
<path opacity="0.3" fill-rule="evenodd" clip-rule="evenodd" d="M34.3944 28H39C39.5523 28 40 27.5523 40 27V25C40 24.4477 39.5523 24 39 24H33C32.4477 24 32 24.4477 32 25V25.0559C32.9451 25.9017 33.7553 26.8952 34.3944 28Z" fill="#00ABEE"/>
<path opacity="0.3" fill-rule="evenodd" clip-rule="evenodd" d="M6.00002 6C4.89545 6 4.00002 6.89543 4.00002 8V32C4.00002 33.1046 4.89545 34 6.00002 34H12C12.0002 27.3727 17.3727 22.0003 24 22.0003C30.6273 22.0003 35.9999 27.3727 36 34H42C43.1046 34 44 33.1046 44 32V8C44 6.89543 43.1046 6 42 6H6.00002Z" fill="#00ABEE"/>
<path d="M4.00003 12H44V18H4.00003V12Z" fill="#00ABEE"/>
<path d="M24.0543 34.5988C21.9777 34.5988 20.2942 32.915 20.2942 30.838C20.2942 28.7609 21.9777 27.0771 24.0543 27.0771C26.1309 27.0771 27.8143 28.7609 27.8143 30.838C27.8143 32.915 26.1309 34.5988 24.0543 34.5988Z" fill="#00ABEE"/>
<path fill-rule="evenodd" clip-rule="evenodd" d="M31.4929 40.6792C29.7736 42.6995 27.0809 44.0003 24.0541 44.0003C21.0274 44.0003 18.3347 42.6995 16.6154 40.6793C17.1521 38.2059 20.2781 36.308 24.0542 36.308C27.8301 36.308 30.9561 38.2059 31.4929 40.6792Z" fill="#00ABEE"/>
</svg>
