<svg width="48" height="48" viewBox="0 0 48 48" fill="none" xmlns="http://www.w3.org/2000/svg">
<path opacity="0.3" d="M34 34C34 39.5228 29.5228 44 24 44C18.4772 44 14 39.5228 14 34C14 28.4772 18.4772 24 24 24C29.5228 24 34 28.4772 34 34Z" fill="#00ABEE"/>
<path fill-rule="evenodd" clip-rule="evenodd" d="M19.793 29.7923C19.4024 30.1828 19.4024 30.816 19.793 31.2065L22.6216 34.0351L19.7929 36.8638C19.4024 37.2543 19.4024 37.8875 19.7929 38.278C20.1834 38.6685 20.8166 38.6685 21.2071 38.278L24.0358 35.4494L26.864 38.2776C27.2545 38.6681 27.8877 38.6681 28.2782 38.2776C28.6688 37.887 28.6688 37.2539 28.2782 36.8634L25.45 34.0351L28.2782 31.207C28.6687 30.8164 28.6687 30.1833 28.2782 29.7927C27.8877 29.4022 27.2545 29.4022 26.864 29.7927L24.0358 32.6209L21.2072 29.7923C20.8166 29.4018 20.1835 29.4018 19.793 29.7923Z" fill="#00ABEE"/>
<path opacity="0.3" fill-rule="evenodd" clip-rule="evenodd" d="M34.3944 28H39C39.5523 28 40 27.5523 40 27V25C40 24.4477 39.5523 24 39 24H33C32.4477 24 32 24.4477 32 25L32 25.0559C32.9451 25.9017 33.7553 26.8952 34.3944 28Z" fill="#00ABEE"/>
<path opacity="0.3" fill-rule="evenodd" clip-rule="evenodd" d="M6.00003 6C4.89546 6 4.00003 6.89543 4.00003 8V32C4.00003 33.1046 4.89546 34 6.00003 34H12C12.0002 27.3727 17.3727 22.0003 24 22.0003C30.6273 22.0003 35.9999 27.3727 36 34H42C43.1046 34 44 33.1046 44 32V8C44 6.89543 43.1046 6 42 6H6.00003Z" fill="#00ABEE"/>
<path d="M4.00006 12H44.0001V18H4.00006V12Z" fill="#00ABEE"/>
</svg>
