<svg width="48" height="48" viewBox="0 0 48 48" fill="none" xmlns="http://www.w3.org/2000/svg">
<path opacity="0.3" fill-rule="evenodd" clip-rule="evenodd" d="M8.80899 22C8.4373 22 8.19556 21.6088 8.36178 21.2764L9.86178 18.2764C9.94648 18.107 10.1196 18 10.309 18H31.191C31.5627 18 31.8044 18.3912 31.6382 18.7236L30.1382 21.7236C30.0535 21.893 29.8803 22 29.691 22H8.80899ZM29.191 26C29.5627 26 29.8044 26.3912 29.6382 26.7236L28.1382 29.7236C28.0535 29.893 27.8803 30 27.691 30H8.809C8.4373 30 8.19556 29.6088 8.36178 29.2764L9.86178 26.2764C9.94648 26.107 10.1196 26 10.309 26H29.191Z" fill="#00ABEE"/>
<path fill-rule="evenodd" clip-rule="evenodd" d="M34.738 15.2358C33.954 14.1718 32.932 13.3948 31.672 12.9048C30.412 12.4148 29.18 12.1698 27.976 12.1698C26.436 12.1698 25.036 12.4498 23.776 13.0098C22.516 13.5698 21.431 14.3398 20.521 15.3198C19.611 16.2998 18.911 17.4478 18.421 18.7638C17.931 20.0798 17.686 21.5078 17.686 23.0478C17.686 24.6718 17.924 26.1558 18.4 27.4998C18.876 28.8438 19.555 29.9988 20.437 30.9648C21.319 31.9308 22.376 32.6798 23.608 33.2118C24.84 33.7438 26.226 34.0098 27.766 34.0098C29.362 34.0098 30.776 33.6948 32.008 33.0648C33.24 32.4348 34.234 31.6018 34.99 30.5658L39.232 33.5478C37.916 35.1998 36.306 36.4808 34.402 37.3908C32.498 38.3008 30.272 38.7558 27.724 38.7558C25.4 38.7558 23.265 38.3708 21.319 37.6008C19.373 36.8308 17.7 35.7528 16.3 34.3668C14.9 32.9808 13.808 31.3288 13.024 29.4108C12.24 27.4928 11.848 25.3718 11.848 23.0478C11.848 20.6678 12.261 18.5188 13.087 16.6008C13.913 14.6828 15.047 13.0518 16.489 11.7078C17.931 10.3638 19.632 9.32782 21.592 8.59981C23.552 7.87181 25.68 7.50781 27.976 7.50781C28.928 7.50781 29.922 7.59881 30.958 7.78081C31.994 7.96281 32.988 8.24281 33.94 8.62081C34.892 8.99881 35.788 9.46781 36.628 10.0278C37.468 10.5878 38.182 11.2598 38.77 12.0438L34.738 15.2358Z" fill="#00ABEE"/>
</svg>
