<svg width="48" height="48" viewBox="0 0 48 48" fill="none" xmlns="http://www.w3.org/2000/svg">
<g clip-path="url(#clip0_1_261)">
<path opacity="0.3" fill-rule="evenodd" clip-rule="evenodd" d="M1.99994 6.06667C1.99994 5.47756 2.4775 5 3.06661 5H40.9333C41.5224 5 41.9999 5.47756 41.9999 6.06667V31.9333C41.9999 32.5224 41.5224 33 40.9333 33H31.116C31.5583 32.6032 31.8874 32.0713 32.0323 31.4487C32.3787 29.9602 32.3845 28.4128 32.0492 26.9218C31.7139 25.4308 31.0462 24.0347 30.096 22.8379C29.1457 21.641 27.9373 20.6742 26.5612 20.0097C25.185 19.3452 23.6765 19 22.1482 19C20.62 19 19.1115 19.3452 17.7353 20.0097C16.3591 20.6742 15.1508 21.641 14.2005 22.8379C13.2502 24.0347 12.5825 25.4308 12.2473 26.9218C11.912 28.4128 11.9177 29.9602 12.2642 31.4487C12.4091 32.0713 12.7382 32.6032 13.1804 33H3.0666C2.4775 33 1.99994 32.5224 1.99994 31.9333V6.06667Z" fill="#00ABEE"/>
<path d="M1.99994 11.0009H41.9999V17.0009H1.99994L1.99994 11.0009Z" fill="#00ABEE"/>
<path opacity="0.3" d="M32 23.5333C32 23.2388 32.2388 23 32.5333 23H37.4667C37.7612 23 38 23.2388 38 23.5333V26.4667C38 26.7612 37.7612 27 37.4667 27H32.5333C32.2388 27 32 26.7612 32 26.4667V23.5333Z" fill="#00ABEE"/>
<path d="M34 46.5V42.1224C34 41.4535 33.8682 40.7912 33.6122 40.1732C33.3563 39.5553 32.9811 38.9938 32.5081 38.5208C32.0352 38.0478 31.4737 37.6726 30.8557 37.4167C30.2377 37.1607 29.5754 37.029 28.9065 37.029H24.4842V28.7623C24.4842 27.4478 23.4172 26.3828 22.1047 26.3828C20.7903 26.3828 19.7233 27.4478 19.7233 28.7623V39.5985L18.9314 39.7469C18.3755 39.8511 17.8544 40.0926 17.4155 40.4494C16.9766 40.8062 16.6338 41.267 16.4182 41.79C16.2027 42.3129 16.1212 42.8815 16.1812 43.4439C16.2412 44.0064 16.4408 44.5449 16.7618 45.0106L17.0805 45.4738L18 46.5" stroke="#00ABEE" stroke-width="2" stroke-linecap="round" stroke-linejoin="round"/>
<path d="M15.1861 30.7686C14.9421 29.7202 14.938 28.6302 15.1742 27.5799C15.4103 26.5297 15.8807 25.5464 16.55 24.7033C17.2194 23.8603 18.0705 23.1793 19.0399 22.7112C20.0092 22.2431 21.0718 22 22.1482 22C23.2247 22 24.2873 22.2431 25.2566 22.7112C26.226 23.1793 27.0771 23.8603 27.7465 24.7033C28.4158 25.5464 28.8862 26.5297 29.1223 27.5799C29.3585 28.6302 29.3544 29.7202 29.1104 30.7686" stroke="#00ABEE" stroke-width="2" stroke-linecap="round" stroke-linejoin="round"/>
</g>
<defs>
<clipPath id="clip0_1_261">
<rect width="48" height="48" fill="white"/>
</clipPath>
</defs>
</svg>
