<svg width="48" height="48" viewBox="0 0 48 48" fill="none" xmlns="http://www.w3.org/2000/svg">
<path opacity="0.3" fill-rule="evenodd" clip-rule="evenodd" d="M11.7616 2.075C11.4975 1.76025 10.9875 1.88073 10.8922 2.28039L8.24879 13.3625C8.17111 13.6882 8.42919 13.9967 8.76344 13.9777L20.1638 13.3317C20.5747 13.3084 20.783 12.8264 20.5185 12.5111L17.4959 8.90896C19.2437 8.31155 21.097 7.99951 23 7.99951C32.3888 7.99951 40 15.6107 40 24.9995C40 34.3884 32.3888 41.9995 23 41.9995C13.6112 41.9995 6 34.3884 6 24.9995C6 23.4234 6.21344 21.8796 6.62962 20.3959L2.77827 19.3156C2.27119 21.1234 2 23.0298 2 24.9995C2 36.5975 11.402 45.9995 23 45.9995C34.598 45.9995 44 36.5975 44 24.9995C44 13.4015 34.598 3.99951 23 3.99951C20.0821 3.99951 17.3033 4.5946 14.7782 5.67004L11.7616 2.075Z" fill="#00ABEE"/>
<path fill-rule="evenodd" clip-rule="evenodd" d="M14.3053 24.5C13.9336 24.5 13.6919 24.1088 13.8581 23.7764L14.3581 22.7764C14.4428 22.607 14.6159 22.5 14.8053 22.5H24.6873C25.059 22.5 25.3007 22.8912 25.1345 23.2236L24.6345 24.2236C24.5498 24.393 24.3767 24.5 24.1873 24.5H14.3053ZM23.6873 26.5C24.059 26.5 24.3007 26.8912 24.1345 27.2236L23.6345 28.2236C23.5498 28.393 23.3767 28.5 23.1873 28.5H14.3053C13.9336 28.5 13.6919 28.1088 13.8581 27.7764L14.3581 26.7764C14.4428 26.607 14.6159 26.5 14.8053 26.5H23.6873Z" fill="#00ABEE"/>
<path fill-rule="evenodd" clip-rule="evenodd" d="M26.8669 21.1179C26.4749 20.5859 25.9639 20.1974 25.3339 19.9524C24.7039 19.7074 24.0879 19.5849 23.4859 19.5849C22.7159 19.5849 22.0159 19.7249 21.3859 20.0049C20.7559 20.2849 20.2134 20.6699 19.7584 21.1599C19.3034 21.6499 18.9534 22.2239 18.7084 22.8819C18.4634 23.5399 18.3409 24.2539 18.3409 25.0239C18.3409 25.8359 18.4599 26.5779 18.6979 27.2499C18.9359 27.9219 19.2754 28.4994 19.7164 28.9824C20.1574 29.4654 20.6859 29.8399 21.3019 30.1059C21.9179 30.3719 22.6109 30.5049 23.3809 30.5049C24.1789 30.5049 24.8859 30.3474 25.5019 30.0324C26.1179 29.7174 26.6149 29.3009 26.9929 28.7829L29.1139 30.2739C28.4559 31.0999 27.6509 31.7404 26.6989 32.1954C25.7469 32.6504 24.6339 32.8779 23.3599 32.8779C22.1979 32.8779 21.1304 32.6854 20.1574 32.3004C19.1844 31.9154 18.3479 31.3764 17.6479 30.6834C16.9479 29.9904 16.4019 29.1644 16.0099 28.2054C15.6179 27.2464 15.4219 26.1859 15.4219 25.0239C15.4219 23.8339 15.6284 22.7594 16.0414 21.8004C16.4544 20.8414 17.0214 20.0259 17.7424 19.3539C18.4634 18.6819 19.3139 18.1639 20.2939 17.7999C21.2739 17.4359 22.3379 17.2539 23.4859 17.2539C23.9619 17.2539 24.4589 17.2994 24.9769 17.3904C25.4949 17.4814 25.9919 17.6214 26.4679 17.8104C26.9439 17.9994 27.3919 18.2339 27.8119 18.5139C28.2319 18.7939 28.5889 19.1299 28.8829 19.5219L26.8669 21.1179Z" fill="#00ABEE"/>
</svg>
