<svg width="48" height="48" viewBox="0 0 48 48" fill="none" xmlns="http://www.w3.org/2000/svg">
<path opacity="0.3" d="M34 34C34 39.5228 29.5228 44 24 44C18.4772 44 14 39.5228 14 34C14 28.4772 18.4772 24 24 24C29.5228 24 34 28.4772 34 34Z" fill="#00ABEE"/>
<path opacity="0.3" fill-rule="evenodd" clip-rule="evenodd" d="M34.3944 28H39C39.5523 28 40 27.5523 40 27V25C40 24.4477 39.5523 24 39 24H33C32.4477 24 32 24.4477 32 25V25.0559C32.9451 25.9017 33.7553 26.8952 34.3944 28Z" fill="#00ABEE"/>
<path opacity="0.3" fill-rule="evenodd" clip-rule="evenodd" d="M6.00002 6C4.89545 6 4.00002 6.89543 4.00002 8V32C4.00002 33.1046 4.89545 34 6.00002 34H12C12.0002 27.3727 17.3727 22.0003 24 22.0003C30.6273 22.0003 35.9999 27.3727 36 34H42C43.1046 34 44 33.1046 44 32V8C44 6.89543 43.1046 6 42 6H6.00002Z" fill="#00ABEE"/>
<path d="M4.00003 12H44V18H4.00003V12Z" fill="#00ABEE"/>
<path fill-rule="evenodd" clip-rule="evenodd" d="M23 27C22.4477 27 22 27.4477 22 28V34C22 34.5523 22.4477 35 23 35H25C25.5523 35 26 34.5523 26 34V28C26 27.4477 25.5523 27 25 27H23ZM26 39C26 40.1046 25.1046 41 24 41C22.8954 41 22 40.1046 22 39C22 37.8954 22.8954 37 24 37C25.1046 37 26 37.8954 26 39Z" fill="#00ABEE"/>
</svg>
