<svg width="48" height="48" viewBox="0 0 48 48" fill="none" xmlns="http://www.w3.org/2000/svg">
<path opacity="0.3" fill-rule="evenodd" clip-rule="evenodd" d="M32 25.0556C32.9452 25.9015 33.7554 26.8951 34.3946 28H39C39.5523 28 40 27.5523 40 27V25C40 24.4477 39.5523 24 39 24H33C32.4477 24 32 24.4477 32 25V25.0556Z" fill="#00ABEE"/>
<path opacity="0.3" fill-rule="evenodd" clip-rule="evenodd" d="M6 6C4.89543 6 4 6.89543 4 8V32C4 33.1046 4.89543 34 6 34H12C12 27.3726 17.3726 22 24 22C30.6274 22 36 27.3726 36 34H42C43.1046 34 44 33.1046 44 32V8C44 6.89543 43.1046 6 42 6H6Z" fill="#00ABEE"/>
<path d="M4 12H44V18H4V12Z" fill="#00ABEE"/>
<path opacity="0.3" d="M34 34C34 39.5228 29.5228 44 24 44C18.4772 44 14 39.5228 14 34C14 28.4772 18.4772 24 24 24C29.5228 24 34 28.4772 34 34Z" fill="#00ABEE"/>
<path fill-rule="evenodd" clip-rule="evenodd" d="M22.9286 37.3337C22.6607 37.3337 22.3929 37.2225 22.1786 37.0003L20.0357 34.7781C19.6072 34.3337 19.6072 33.667 20.0357 33.2225C20.4643 32.7781 21.1607 32.7781 21.5357 33.2225L22.9286 34.667L26.4643 31.0003C26.8929 30.5559 27.5357 30.5559 27.9643 31.0003C28.3929 31.4448 28.3929 32.1114 27.9643 32.5559L23.6786 37.0003C23.4643 37.2225 23.1964 37.3337 22.9286 37.3337Z" fill="#00ABEE"/>
</svg>
