<svg width="134" height="32" viewBox="0 0 134 32" fill="none" xmlns="http://www.w3.org/2000/svg">
<g clip-path="url(#clip0_416_4684)">
<path d="M100.673 31.9959H97.7535C97.1051 31.9959 96.6691 31.3336 96.9248 30.7383L99.2836 25.2564C99.3339 25.139 99.3353 25.0048 99.2864 24.8861L92.1947 7.82265C91.9404 7.22737 92.3764 6.56641 93.0233 6.56641H95.9229C96.6523 6.56641 97.3105 7.00658 97.59 7.68012L101.874 18.4986C101.936 18.6551 102.157 18.6565 102.221 18.5014L106.712 7.65357C106.997 6.994 107.648 6.56641 108.368 6.56641H111.283C111.931 6.56641 112.369 7.23156 112.11 7.82684L102.328 30.9102C101.962 31.757 101.712 32.042 100.673 31.9973V31.9959Z" fill="white"/>
<path d="M48.1904 31.0973V7.46763C48.1904 6.97156 48.5929 6.56911 49.0889 6.56911H52.1772C52.6732 6.56911 53.0757 6.97156 53.0757 7.46763V9.21016C53.0757 9.403 53.3286 9.46588 53.4236 9.29819C54.5862 7.24684 56.9534 6.49365 59.2297 6.49365C63.9668 6.49365 68.3686 10.5209 68.3686 16.3787C68.3686 22.2337 64.0046 26.1883 59.2675 26.1883C57.6046 26.1883 54.7944 25.716 53.4055 23.8365C53.3006 23.6954 53.0757 23.7709 53.0757 23.9469V31.0973C53.0757 31.5934 52.6732 31.9958 52.1772 31.9958H49.0889C48.5929 31.9958 48.1904 31.5934 48.1904 31.0973ZM58.3731 21.9361C61.3579 21.9361 63.5951 19.8107 63.5951 16.3787C63.5951 12.9468 61.3579 10.7836 58.3731 10.7836C55.7251 10.7836 53.0757 12.9468 53.0757 16.3787C53.0757 19.8107 55.7237 21.9361 58.3731 21.9361Z" fill="white"/>
<path d="M89.4936 25.7313H86.383C85.8842 25.7313 85.4789 25.3261 85.4789 24.8272V23.251C85.4789 23.0623 85.2316 22.9967 85.1338 23.1588C83.9222 25.164 81.7773 26.2358 79.2829 26.2358C74.5137 26.2358 70.084 22.277 70.084 16.3829C70.084 10.4887 74.5137 6.43213 79.2829 6.43213C81.576 6.43213 83.9586 7.18951 85.1282 9.25623C85.2232 9.42392 85.4775 9.35964 85.4775 9.1668V7.47318C85.4775 6.97431 85.8828 6.56907 86.3816 6.56907H89.4922C89.9911 6.56907 90.3963 6.97431 90.3963 7.47318V24.8272C90.3963 25.3261 89.9911 25.7313 89.4922 25.7313H89.4936ZM85.4789 16.3815C85.4789 12.9272 82.8127 10.7486 80.1465 10.7486C77.1422 10.7486 74.8896 12.9258 74.8896 16.3815C74.8896 19.8372 77.1422 21.9766 80.1465 21.9766C82.8127 21.9766 85.4789 19.8372 85.4789 16.3815Z" fill="white"/>
<path d="M34.5717 0.00439453H31.3172C30.8179 0.00439453 30.4131 0.409176 30.4131 0.908499V24.8261C30.4131 25.3254 30.8179 25.7302 31.3172 25.7302H34.5717C35.071 25.7302 35.4758 25.3254 35.4758 24.8261V0.908499C35.4758 0.409176 35.071 0.00439453 34.5717 0.00439453Z" fill="white"/>
<path d="M43.4604 6.57031H40.2059C39.7065 6.57031 39.3018 6.97509 39.3018 7.47442V24.8299C39.3018 25.3292 39.7065 25.734 40.2059 25.734H43.4604C43.9597 25.734 44.3645 25.3292 44.3645 24.8299V7.47442C44.3645 6.97509 43.9597 6.57031 43.4604 6.57031Z" fill="white"/>
<path d="M43.4604 0.00439453H40.2059C39.7065 0.00439453 39.3018 0.409176 39.3018 0.908499V4.16439C39.3018 4.66372 39.7065 5.0685 40.2059 5.0685H43.4604C43.9597 5.0685 44.3645 4.66372 44.3645 4.16439V0.908499C44.3645 0.409176 43.9597 0.00439453 43.4604 0.00439453Z" fill="white"/>
<path opacity="0.7" d="M133.724 6.56641H132.623C132.301 6.60414 132.244 6.61671 131.819 6.70475C129.808 7.11977 128.201 8.19296 127.095 11.2644H132.238C132.577 11.2644 132.881 11.0632 133.013 10.7516L134.372 7.54457C134.569 7.08064 134.228 6.56641 133.724 6.56641Z" fill="white"/>
<path d="M131.747 6.57346C126.76 6.72438 122.134 10.4512 121.299 15.574L121.076 16.8428C120.986 17.357 121.382 17.8294 121.905 17.8294H124.919C125.322 17.8294 125.667 17.5443 125.744 17.1502L126.217 14.723C126.461 13.3522 126.755 12.2147 127.096 11.2659C128.203 8.19582 129.81 7.12263 131.821 6.70621C132.246 6.61818 132.303 6.6042 132.624 6.56787C132.624 6.56787 131.839 6.57206 131.748 6.57486L131.747 6.57346Z" fill="white"/>
<path opacity="0.7" d="M115.253 11.2629H116.354C116.675 11.2252 116.733 11.2126 117.158 11.1246C119.168 10.7096 120.775 9.63638 121.882 6.56494H116.738C116.4 6.56494 116.096 6.76616 115.964 7.07778L114.605 10.2848C114.407 10.7487 114.748 11.2629 115.253 11.2629Z" fill="white"/>
<path d="M117.23 11.2559C122.217 11.105 126.843 7.37817 127.678 2.25537L127.9 0.98655C127.991 0.472314 127.594 0 127.072 0H124.058C123.655 0 123.31 0.285066 123.233 0.679127L122.76 3.10638C122.516 4.47721 122.222 5.61467 121.881 6.56349C120.774 9.63354 119.167 10.7067 117.156 11.1231C116.731 11.2112 116.674 11.2252 116.353 11.2615C116.353 11.2615 117.138 11.2573 117.229 11.2545L117.23 11.2559Z" fill="white"/>
<path d="M13.2797 7.4161C13.4404 7.01505 14.0091 7.01645 14.1698 7.41889C15.4247 10.563 21.1344 24.7911 21.1344 24.7911C21.3216 25.3109 21.8023 25.7288 22.4395 25.7288H25.9344C26.3899 25.7288 26.7127 25.2648 26.5408 24.8386C24.9632 20.9288 18.3382 5.21243 16.4825 0.795312C16.2771 0.313215 15.8034 0.00439453 15.2793 0.00439453H12.1646C11.6406 0.00439453 11.1669 0.314613 10.9642 0.796709C9.21192 4.95811 2.48213 20.9385 0.90589 24.8442C0.73541 25.269 1.05541 25.7288 1.50956 25.7288H4.87165C5.49489 25.7288 6.07759 25.4004 6.31235 24.7911L13.2797 7.4161Z" fill="white"/>
<path d="M29.3873 10.4595C29.0086 9.57913 28.4287 8.38717 27.9089 7.70105C27.6196 7.31957 27.2046 7.21896 26.675 7.32795C19.9592 8.71415 14.9593 11.8387 12.9485 13.8691C9.84633 17.0006 9.87009 20.0134 11.8138 21.7461C11.1529 20.4521 12.1129 18.6467 14.9342 16.7365C20.1855 13.1816 28.8018 11.5257 28.82 11.5229C29.3034 11.4251 29.5829 10.9108 29.3873 10.4581V10.4595Z" fill="white"/>
<path opacity="0.7" d="M11.9333 19.7172C11.549 20.4718 11.5155 21.1607 11.8131 21.7448C12.6208 22.4896 14.8049 23.5991 20.5929 23.4454L19.4764 20.6632C16.8856 20.9413 13.3125 21.0363 11.9333 19.7158V19.7172Z" fill="white"/>
</g>
<defs>
<clipPath id="clip0_416_4684">
<rect width="133.569" height="32" fill="white" transform="translate(0.859375)"/>
</clipPath>
</defs>
</svg>
