<svg xmlns="http://www.w3.org/2000/svg" viewBox="0 0 990.7 393.42"><title>google-pay-38</title><path d="M475.86,493.51V608.79h-36.6V324h97a87.62,87.62,0,0,1,62.83,24.65,82.37,82.37,0,0,1,0,120.55q-25.46,24.28-62.83,24.24l-60.42,0Zm0-134.41v99.43H537.2a49.56,49.56,0,0,0,37.14-83.37c-.33-.34-.62-.67-1-1a47.68,47.68,0,0,0-36.18-15.1Zm233.81,48.51q40.58,0,64,21.66t23.45,59.43V608.79h-35v-27h-1.57q-22.73,33.42-60.47,33.4-32.18,0-53.86-19.09a61,61,0,0,1-21.67-47.72q0-30.26,22.87-48.1t61-17.88c21.71,0,39.64,4,53.66,11.91v-8.38a41.63,41.63,0,0,0-15.1-32.37,51.76,51.76,0,0,0-35.32-13.32q-30.63,0-48.51,25.85L631,445.75q26.51-38.16,78.64-38.14ZM662.32,549.16A29.29,29.29,0,0,0,674.43,573a44.71,44.71,0,0,0,28.43,9.55A58.48,58.48,0,0,0,744,565.47q18.18-17.12,18.17-40.17-17.12-13.63-47.72-13.65-22.29,0-37.18,10.74c-10,7.31-15,16.15-15,26.77ZM998,414,875.87,694.7H838.11l45.31-98.23L803.08,414h39.76l58,140h.79l56.48-140Z" transform="translate(-7.3 -301.28)" fill="#5f6368"/><path d="M328,468.61a194.36,194.36,0,0,0-2.82-33.28H170.89v63h88.35A75.66,75.66,0,0,1,226.58,548V589h52.74C310.2,560.53,328,518.41,328,468.61Z" transform="translate(-7.3 -301.28)" fill="#4285f4"/><path d="M170.89,628.51C215,628.51,252.23,614,279.32,589l-52.74-40.92c-14.69,10-33.57,15.65-55.69,15.65-42.66,0-78.89-28.76-91.84-67.52H24.73v42.16A163.55,163.55,0,0,0,170.89,628.51Z" transform="translate(-7.3 -301.28)" fill="#34a853"/><path d="M79.05,496.21a98,98,0,0,1,0-62.62V391.42H24.73a163.58,163.58,0,0,0,0,147Z" transform="translate(-7.3 -301.28)" fill="#fbbc04"/><path d="M170.89,366.07a88.82,88.82,0,0,1,62.74,24.52l46.73-46.68a157.33,157.33,0,0,0-109.47-42.62A163.63,163.63,0,0,0,24.73,391.42l54.32,42.17C92,394.83,128.23,366.07,170.89,366.07Z" transform="translate(-7.3 -301.28)" fill="#ea4335"/></svg>