<?xml version="1.0" encoding="UTF-8"?>
<svg id="Layer_2" data-name="Layer 2" xmlns="http://www.w3.org/2000/svg" viewBox="0 0 1039 330">
  <defs>
    <style>
      .cls-1 {
        fill: #fabd00;
      }

      .cls-2 {
        fill: #00abee;
      }

      .cls-3 {
        fill: #006693;
      }
    </style>
  </defs>
  <g id="Layer_1-2" data-name="Layer 1">
    <g>
      <path d="M436.99438,9.40373c11.03776,0,20.42932,3.78929,28.0079,11.20306,7.57859,7.41377,11.36837,16.64003,11.36837,27.51395s-3.78978,20.10018-11.36837,27.51395c-7.57859,7.41426-16.97015,11.20355-28.0079,11.20355h-20.26548v37.89342h-22.73576V9.40373h43.00124Zm0,56.18112c9.72021,0,16.80435-7.57859,16.80435-17.4641,0-10.04984-7.08414-17.4641-16.80435-17.4641h-20.26548v34.92821h20.26548Z"/>
      <path d="M543.11028,42.35415h21.2534V124.73166h-21.2534v-9.7207c-6.42586,8.07303-15.32297,12.02714-26.85517,12.02714-11.03874,0-20.42932-4.11892-28.33852-12.5211-7.7434-8.40267-11.69702-18.78214-11.69702-30.9741s3.95362-22.40662,11.69702-30.80879c7.9092-8.40267,17.29978-12.68641,28.33852-12.68641,11.5322,0,20.42932,3.95411,26.85517,12.02714v-9.7207Zm-22.90156,64.41946c6.59067,0,12.02763-2.14212,16.31088-6.42586,4.44807-4.44807,6.59067-10.04984,6.59067-16.80484s-2.14261-12.35628-6.59067-16.64003c-4.28325-4.44856-9.72021-6.59018-16.31088-6.59018-6.58969,0-12.02665,2.14163-16.31088,6.59018-4.28325,4.28374-6.42488,9.88503-6.42488,16.64003s2.14163,12.35677,6.42488,16.80484c4.28423,4.28374,9.72119,6.42586,16.31088,6.42586Z"/>
      <path d="M630.68931,42.35415h22.73576l-29.98471,82.37752c-8.56748,23.72465-22.40711,34.10413-43.49569,32.95091v-19.77055c11.36837,.16482,17.62941-4.61288,21.58303-15.81644l-33.7745-79.74144h23.23021l21.41821,55.35753,18.28769-55.35753Z"/>
      <path d="M770.89071,124.73166l-6.9203-20.75895h-45.96597l-6.91932,20.75895h-24.54873l40.36517-115.32794h28.17272l40.529,115.32794h-24.71257Zm-45.63732-42.01235h31.63287l-15.81644-47.11968-15.81644,47.11968Z"/>
      <path d="M841.43484,27.52661c-11.69702-.82408-17.46361,3.78929-17.46361,14.00395v.82359h17.46361v20.42981h-17.46361v61.94771h-21.2534V62.78396h-11.86184v-20.42981h11.86184v-.82359c0-23.23021,13.01555-35.91661,38.71701-34.43376V27.52661Z"/>
      <path d="M895.52093,62.78396h-18.61732v34.26895c0,8.89662,6.42586,9.06144,18.61732,8.40267v19.2761c-29.16162,3.29534-39.86974-5.10733-39.86974-27.67876V62.78396h-14.33407v-20.42981h14.33407V25.71412l21.25242-6.42537v23.06539h18.61732v20.42981Z"/>
      <path d="M921.41762,92.2752c2.80089,10.37947,10.54429,15.4868,23.23119,15.4868,8.07303,0,14.33309-2.80089,18.45251-8.23785l17.13398,9.88552c-8.07303,11.69751-20.09969,17.62843-35.91612,17.62843-13.67481,0-24.54873-4.11892-32.78658-12.35628-8.23785-8.23785-12.35628-18.61732-12.35628-31.13892,0-12.35628,4.11843-22.73625,12.19147-30.97361,8.07303-8.40267,18.61732-12.52159,31.30324-12.52159,12.02763,0,22.07748,4.11892,29.82088,12.52159,7.90822,8.40218,11.86282,18.61732,11.86282,30.97361,0,2.80089-.32963,5.60178-.82408,8.7323h-62.11302Zm41.6837-16.4757c-2.47126-11.20306-10.70911-16.64003-20.4303-16.64003-11.36739,0-19.11079,6.09573-21.58205,16.64003h42.01235Z"/>
      <path d="M1013.95682,56.52341c3.9546-10.54429,13.83963-15.81644,25.04318-15.81644v23.72465c-6.42586-.82408-12.35727,.49396-17.46459,3.95411-5.10733,3.45966-7.57859,9.06144-7.57859,16.96966v39.37627h-21.2534V42.35415h21.2534v14.16926Z"/>
      <path d="M439.55441,174.65459c15.73326,0,28.84432,5.60178,39.33316,16.63953,10.65279,11.03874,15.89721,24.71355,15.89721,41.02443s-5.24442,29.98471-15.89721,41.02345c-10.48884,11.03874-23.59989,16.64052-39.33316,16.64052h-45.56127v-115.32794h45.56127Zm0,93.58009c9.99699,0,18.02757-3.29436,24.25471-9.88503,6.22812-6.75451,9.34217-15.32199,9.34217-26.0311s-3.11406-19.27659-9.34217-25.86628c-6.22714-6.75549-14.25772-10.04984-24.25471-10.04984h-22.94507v71.83225h22.94507Z"/>
      <path d="M521.34649,257.52557c2.78616,10.37947,10.48884,15.4868,23.10902,15.4868,8.03058,0,14.25772-2.79991,18.35547-8.23687l17.04388,9.88503c-8.03058,11.69702-19.99399,17.62843-35.72725,17.62843-13.6029,0-24.41964-4.11843-32.61417-12.35628s-12.29131-18.61732-12.29131-31.13842c0-12.35727,4.09678-22.73674,12.12736-30.97459,8.03058-8.40168,18.51942-12.5211,31.13863-12.5211,11.96438,0,21.96138,4.11942,29.66406,12.5211,7.86663,8.40267,11.80043,18.61732,11.80043,30.97459,0,2.80089-.3279,5.60178-.81975,8.73132h-61.78638Zm41.4645-16.47472c-2.45826-11.20355-10.65279-16.64052-20.32286-16.64052-11.30761,0-19.01029,6.09622-21.46856,16.64052h41.79142Z"/>
      <path d="M592.17545,289.98252v-120.27045h21.14163v120.27045h-21.14163Z"/>
      <path d="M623.52584,184.70443c0-7.08414,5.90022-13.18036,12.9471-13.18036,7.21181,0,13.11105,6.09622,13.11105,13.18036s-5.89924,13.01555-13.11105,13.01555c-7.04689,0-12.9471-5.93141-12.9471-13.01555Zm2.45826,105.27809v-82.37752h21.14163v82.37752h-21.14163Z"/>
      <path d="M713.41682,207.60501h23.272l-31.13863,82.37752h-24.09174l-31.13863-82.37752h23.272l19.83004,57.66397,19.99496-57.66397Z"/>
      <path d="M754.40215,257.52557c2.78518,10.37947,10.48884,15.4868,23.10805,15.4868,8.03058,0,14.25772-2.79991,18.35547-8.23687l17.04388,9.88503c-8.03058,11.69702-19.99399,17.62843-35.72725,17.62843-13.6029,0-24.41964-4.11843-32.61417-12.35628-8.19453-8.23785-12.29131-18.61732-12.29131-31.13842,0-12.35727,4.09678-22.73674,12.12736-30.97459,8.03058-8.40168,18.51942-12.5211,31.13863-12.5211,11.96438,0,21.96138,4.11942,29.66406,12.5211,7.86663,8.40267,11.80043,18.61732,11.80043,30.97459,0,2.80089-.3279,5.60178-.81975,8.73132h-61.78541Zm41.46352-16.47472c-2.45826-11.20355-10.65279-16.64052-20.32286-16.64052-11.30761,0-19.01029,6.09622-21.46856,16.64052h41.79142Z"/>
      <path d="M846.45374,221.77426c3.9338-10.54429,13.76685-15.81644,24.91149-15.81644v23.72465c-6.39206-.82408-12.29228,.49445-17.37275,3.95362-5.08047,3.46015-7.53873,9.06193-7.53873,16.97015v39.37627h-21.14163v-82.37752h21.14163v14.16926Z"/>
      <path d="M934.06504,207.60501h22.6162l-29.82703,82.37752c-8.52243,23.72465-22.28928,34.10413-43.26696,32.9514v-19.77104c11.30859,.16482,17.53573-4.61288,21.46953-15.81644l-33.59689-79.74144h23.10805l21.30558,55.35753,18.19152-55.35753Z"/>
    </g>
    <g>
      <path class="cls-1" d="M284.27002,0c-.04004,0-.08008,7.78998-.11011,7.78998h-.03979V84.17999c-14.19019-8.5-30.36011-12.83002-48.26025-12.83002-12.51978,0-24.16992,2.10004-34.87988,6.25-11.79004,4.57001-22.45996,11.62-31.93994,21.10004-1.34009,1.34998-2.66016,2.72998-3.86011,4.12994,.03003,.03003,.05005,.05005,.07007,.08002,15.21997,17.23004,22.71997,38.14001,22.71997,62.23004,0-14,4.40015-25.59003,13.01001-34.72003,.12988-.15002,.27002-.28998,.41016-.44,9.19995-9.23999,20.60986-13.90002,34.46973-13.90002,13.79004,0,25.16016,4.66003,34.40015,13.90002,9.23999,9.20001,13.86011,20.94,13.86011,35.16003,0,14.22998-4.62012,25.92999-13.86011,35.16998-9.23999,9.20001-20.61011,13.85999-34.40015,13.85999-13.85986,0-25.26978-4.65997-34.46973-13.85999-.14014-.14001-.27002-.29004-.41016-.42999-8.60986-9.17004-13.01001-20.73004-13.01001-34.73999,0,24.08997-7.5,44.5-22.71997,61.73999-.14014,.15997-.28003,.32996-.42993,.48999,1.30005,1.54999,2.75,3.07001,4.21997,4.53998,9.47998,9.48999,20.1499,16.44,31.93994,20.90002,10.70996,4.08002,22.36011,6.08997,34.87988,6.08997,26.22021,0,48.63013-8.87,66.74023-26.98999,17.67993-17.66998,26.88989-39.38,27.32983-64.89996,.07007-.62,.07007-1.24005,.07007-1.87V71.25c0-31.79004-18.73999-58.27002-45.72998-71.25Z"/>
      <path class="cls-2" d="M142.1499,165.09998c0,14.22998-4.66992,25.91998-13.54004,35.12-9.19995,9.23999-20.60986,13.90002-34.46973,13.90002-.73022,0-1.46021-.01001-2.18018-.04004-12.81006-.46997-23.46997-5.10999-32.21997-13.85999-9.23999-9.20001-13.86011-20.94-13.86011-35.15997,0-14.23004,4.62012-25.92999,13.86011-35.16998,8.75-8.71002,19.40991-13.35004,32.21997-13.82001,.71997-.03003,1.44995-.04004,2.18018-.04004,13.85986,0,25.26978,4.66003,34.46973,13.86005,8.87012,9.23999,13.54004,20.97998,13.54004,35.20996,0-24.08997,7.38013-44.53998,22.6001-61.77997,.14014-.16003,.28003-.33002,.42993-.49005-1.30005-1.54999-2.75-3.06995-4.21997-4.53998-18.10986-18.12-40.53003-26.98999-66.81982-26.98999-.73022,0-1.4502,.01001-2.18018,.02997-25.28003,.47003-46.94995,9.34003-64.56982,26.96002C9.71997,115.95996,.51001,137.66998,.07007,163.19c-.07007,.62-.07007,1.23999-.07007,1.87v93.89001c0,31.78998,18.73999,58.06995,45.72998,71.04999,.04004,0,.08008-7.59003,.11011-7.59003h.03979v-76.39001c13.61011,8.15002,29.04004,12.47003,46.08008,12.81,.71997,.01001,1.44995,.02002,2.18018,.02002,26.28979,0,48.70996-9.23999,66.81982-27.34998,1.34009-1.35004,2.66016-2.73004,3.86011-4.13-.03003-.03003-.05005-.04999-.07007-.08002-15.21997-17.22998-22.6001-38.09998-22.6001-62.19Z"/>
      <path class="cls-3" d="M187.96997,165.14001c0,24.08997-7.5,44.5-22.71997,61.73999-.14014,.15997-.28003,.32996-.42993,.48999-.03003-.03003-.05005-.04999-.07007-.08002-15.21997-17.22998-22.6001-38.09998-22.6001-62.19s7.38013-44.53998,22.6001-61.77997c.14014-.16003,.28003-.33002,.42993-.49005,.03003,.03003,.05005,.05005,.07007,.08002,15.21997,17.23004,22.71997,38.14001,22.71997,62.23004Z"/>
    </g>
  </g>
</svg>