<svg width="48" height="48" viewBox="0 0 48 48" fill="none" xmlns="http://www.w3.org/2000/svg">
<rect opacity="0.3" x="12.4" y="13" width="20" height="8" fill="#00ABEE"/>
<path fill-rule="evenodd" clip-rule="evenodd" d="M11.8 10C10.8059 10 10 10.8059 10 11.8V44.2C10 45.1941 10.8059 46 11.8 46H33.4C34.3941 46 35.2 45.1941 35.2 44.2V11.8C35.2 10.8059 34.3941 10 33.4 10H11.8ZM17.2 26.2004C17.2 27.1945 16.3941 28.0004 15.4 28.0004C14.4059 28.0004 13.6 27.1945 13.6 26.2004C13.6 25.2063 14.4059 24.4004 15.4 24.4004C16.3941 24.4004 17.2 25.2063 17.2 26.2004ZM15.4 35.1996C16.3941 35.1996 17.2 34.3937 17.2 33.3996C17.2 32.4055 16.3941 31.5996 15.4 31.5996C14.4059 31.5996 13.6 32.4055 13.6 33.3996C13.6 34.3937 14.4059 35.1996 15.4 35.1996ZM24.4 26.2004C24.4 27.1945 23.5942 28.0004 22.6 28.0004C21.6059 28.0004 20.8 27.1945 20.8 26.2004C20.8 25.2063 21.6059 24.4004 22.6 24.4004C23.5942 24.4004 24.4 25.2063 24.4 26.2004ZM22.6 35.1996C23.5942 35.1996 24.4 34.3937 24.4 33.3996C24.4 32.4055 23.5942 31.5996 22.6 31.5996C21.6059 31.5996 20.8 32.4055 20.8 33.3996C20.8 34.3937 21.6059 35.1996 22.6 35.1996ZM31.6 26.2004C31.6 27.1945 30.7941 28.0004 29.8 28.0004C28.8059 28.0004 28 27.1945 28 26.2004C28 25.2063 28.8059 24.4004 29.8 24.4004C30.7941 24.4004 31.6 25.2063 31.6 26.2004ZM29.8 35.1996C30.7941 35.1996 31.6 34.3937 31.6 33.3996C31.6 32.4055 30.7941 31.5996 29.8 31.5996C28.8059 31.5996 28 32.4055 28 33.3996C28 34.3937 28.8059 35.1996 29.8 35.1996ZM31.6 40.6C31.6 41.5941 30.7941 42.4 29.8 42.4C28.8059 42.4 28 41.5941 28 40.6C28 39.6059 28.8059 38.8 29.8 38.8C30.7941 38.8 31.6 39.6059 31.6 40.6ZM13.6 40.6C13.6 39.6059 14.4059 38.8 15.4 38.8H22.6C23.5941 38.8 24.4 39.6059 24.4 40.6C24.4 41.5941 23.5941 42.4 22.6 42.4H15.4C14.4059 42.4 13.6 41.5941 13.6 40.6ZM31.6 13.5996H13.6V20.7996H31.6V13.5996Z" fill="#00ABEE"/>
<rect width="1.8" height="28.8" rx="0.899999" transform="matrix(1 8.74228e-08 8.74228e-08 -1 37 42.4004)" fill="#00ABEE"/>
<path opacity="0.3" fill-rule="evenodd" clip-rule="evenodd" d="M26.9714 13L26.9714 2L29.2572 2C29.8883 2 30.4 2.51167 30.4 3.14286L30.4 11.8571C30.4 12.4883 29.8884 13 29.2572 13L26.9714 13ZM23.5429 13L23.5429 2L15.5429 2C14.9117 2 14.4 2.51168 14.4 3.14286L14.4 11.8571C14.4 12.4883 14.9117 13 15.5429 13L23.5429 13Z" fill="#00ABEE"/>
</svg>
