<svg width="48" height="48" viewBox="0 0 48 48" fill="none" xmlns="http://www.w3.org/2000/svg">
<path opacity="0.3" fill-rule="evenodd" clip-rule="evenodd" d="M10 7.5C10 6.11929 11.1193 5 12.5 5H28.5C29.8807 5 31 6.11929 31 7.5V15H20.5C19.3954 15 18.5 15.8954 18.5 17V31C18.5 32.1046 19.3954 33 20.5 33H31V40.5C31 41.8807 29.8807 43 28.5 43H12.5C11.1193 43 10 41.8807 10 40.5V7.5Z" fill="#00ABEE"/>
<path fill-rule="evenodd" clip-rule="evenodd" d="M28.5 2H12.5C9.46243 2 7 4.46243 7 7.5V40.5C7 43.5376 9.46243 46 12.5 46H28.5C31.5376 46 34 43.5376 34 40.5V33H31V40.5C31 41.8807 29.8807 43 28.5 43H12.5C11.1193 43 10 41.8807 10 40.5V7.5C10 6.11929 11.1193 5 12.5 5H14.5V7C14.5 7.27614 14.7239 7.5 15 7.5H26C26.2761 7.5 26.5 7.27614 26.5 7V5H28.5C29.8807 5 31 6.11929 31 7.5V15H34V7.5C34 4.46243 31.5376 2 28.5 2Z" fill="#00ABEE"/>
<rect opacity="0.3" x="20.5" y="17" width="20.5" height="14" rx="1.05" fill="#00ABEE"/>
<rect x="20.5" y="20.001" width="20.5" height="3" fill="#00ABEE"/>
<rect opacity="0.3" x="34.85" y="26" width="4.1" height="2" rx="0.525" fill="#00ABEE"/>
</svg>
