<svg width="48" height="48" viewBox="0 0 48 48" fill="none" xmlns="http://www.w3.org/2000/svg">
<path fill-rule="evenodd" clip-rule="evenodd" d="M4 24C4 27.3137 6.68629 30 10 30C13.3137 30 16 27.3137 16 24C16 20.6863 13.3137 18 10 18C6.68629 18 4 20.6863 4 24ZM13 24.0002C13 25.6571 11.6569 27.0002 10 27.0002C8.34315 27.0002 7 25.6571 7 24.0002C7 22.3434 8.34315 21.0002 10 21.0002C11.6569 21.0002 13 22.3434 13 24.0002Z" fill="#00ABEE"/>
<path fill-rule="evenodd" clip-rule="evenodd" d="M38 18C34.6863 18 32 20.6863 32 24C32 27.3137 34.6863 30 38 30C41.3137 30 44 27.3137 44 24C44 20.6863 41.3137 18 38 18ZM38 27C36.3432 27 35 25.6569 35 24C35 22.3431 36.3432 21 38 21C39.6569 21 41 22.3431 41 24C41 25.6569 39.6569 27 38 27Z" fill="#00ABEE"/>
<path fill-rule="evenodd" clip-rule="evenodd" d="M18 10C18 13.3137 20.6863 16 24 16C27.3137 16 30 13.3137 30 10C30 6.68629 27.3137 4 24 4C20.6863 4 18 6.68629 18 10ZM27 10.0002C27 11.6571 25.6569 13.0002 24 13.0002C22.3431 13.0002 21 11.6571 21 10.0002C21 8.34337 22.3431 7.00022 24 7.00022C25.6569 7.00022 27 8.34337 27 10.0002Z" fill="#00ABEE"/>
<path fill-rule="evenodd" clip-rule="evenodd" d="M18 38C18 41.3137 20.6863 44 24 44C27.3137 44 30 41.3137 30 38C30 34.6863 27.3137 32 24 32C20.6863 32 18 34.6863 18 38ZM27 38.0002C27 39.6571 25.6569 41.0002 24 41.0002C22.3431 41.0002 21 39.6571 21 38.0002C21 36.3434 22.3431 35.0002 24 35.0002C25.6569 35.0002 27 36.3434 27 38.0002Z" fill="#00ABEE"/>
<path opacity="0.3" fill-rule="evenodd" clip-rule="evenodd" d="M22 16C22 15.4477 22.4477 15 23 15H25C25.5523 15 26 15.4477 26 16V18C26 18.113 25.9813 18.2216 25.9467 18.3229C27.6945 18.922 29.078 20.3055 29.6771 22.0533C29.7784 22.0187 29.887 22 30 22H32C32.5523 22 33 22.4477 33 23V25C33 25.5523 32.5523 26 32 26H30C29.887 26 29.7784 25.9813 29.6771 25.9467C29.078 27.6945 27.6945 29.078 25.9467 29.6771C25.9813 29.7784 26 29.887 26 30V32C26 32.5523 25.5523 33 25 33H23C22.4477 33 22 32.5523 22 32V30C22 29.887 22.0187 29.7784 22.0533 29.6771C20.3055 29.078 18.922 27.6945 18.3229 25.9467C18.2216 25.9813 18.113 26 18 26H16C15.4477 26 15 25.5523 15 25V23C15 22.4477 15.4477 22 16 22H18C18.113 22 18.2216 22.0187 18.3229 22.0533C18.922 20.3055 20.3055 18.922 22.0533 18.3229C22.0187 18.2216 22 18.113 22 18V16ZM24 27C22.3432 27 21 25.6569 21 24C21 22.3431 22.3432 21 24 21C25.6569 21 27 22.3431 27 24C27 25.6569 25.6569 27 24 27Z" fill="#00ABEE"/>
</svg>
