<?xml version="1.0" encoding="utf-8"?>
<!-- Generator: Adobe Illustrator 26.1.0, SVG Export Plug-In . SVG Version: 6.00 Build 0)  -->
<svg version="1.1" id="Layer_1" xmlns="http://www.w3.org/2000/svg" xmlns:xlink="http://www.w3.org/1999/xlink" x="0px" y="0px"
	 viewBox="0 0 48 48" style="enable-background:new 0 0 48 48;" xml:space="preserve">
<style type="text/css">
	.st0{fill:none;}
	.st1{opacity:0.3;fill:#00ABEE;enable-background:new    ;}
	.st2{fill:#00ABEE;}
</style>
<g id="a">
</g>
<g id="b">
	<g id="c">
		<g id="d" transform="translate(760.000000, 188.000000)">
			<polygon id="e" class="st0" points="-760,-188 -712,-188 -712,-140 -760,-140 			"/>
			<path id="f" class="st1" d="M-716-158v8c0,2.2-1.8,4-4,4h-24c-4.4,0-8-3.6-8-8s3.6-8,8-8h24C-717.8-162-716-160.2-716-158z
				 M-746-150c2.2,0,4-1.8,4-4s-1.8-4-4-4s-4,1.8-4,4S-748.2-150-746-150z"/>
			<path id="g" class="st1" d="M-728.9-176.6l5.7,5.7c1.6,1.6,1.6,4.1,0,5.7l-17,17c-3.1,3.1-8.2,3.1-11.3,0
				c-3.1-3.1-3.1-8.2,0-11.3l17-17C-733-178.2-730.5-178.2-728.9-176.6z M-746-150c2.2,0,4-1.8,4-4s-1.8-4-4-4s-4,1.8-4,4
				S-748.2-150-746-150z"/>
			<path id="h" class="st2" d="M-750-182h8c2.2,0,4,1.8,4,4v24c0,4.4-3.6,8-8,8s-8-3.6-8-8v-24C-754-180.2-752.2-182-750-182z
				 M-746-150c2.2,0,4-1.8,4-4s-1.8-4-4-4s-4,1.8-4,4S-748.2-150-746-150z"/>
		</g>
	</g>
</g>
</svg>
