<?xml version="1.0" encoding="utf-8"?>
<!-- Generator: Adobe Illustrator 26.1.0, SVG Export Plug-In . SVG Version: 6.00 Build 0)  -->
<svg version="1.1" id="Layer_1" xmlns="http://www.w3.org/2000/svg" xmlns:xlink="http://www.w3.org/1999/xlink" x="0px" y="0px"
	 viewBox="0 0 48 48" style="enable-background:new 0 0 48 48;" xml:space="preserve">
<style type="text/css">
	.st0{fill:none;}
	.st1{opacity:0.3;fill:#00ABEE;enable-background:new    ;}
	.st2{fill:#00ABEE;}
</style>
<g id="a">
</g>
<g id="b">
	<g id="c">
		<g id="d" transform="translate(622.000000, 188.000000)">
			<rect id="e" x="-622" y="-188" class="st0" width="48" height="48"/>
			<circle id="f" class="st1" cx="-598" cy="-170" r="16"/>
			<path id="g" class="st1" d="M-592.9-166h-10.1l5,12.9C-598-153.1-592.9-166-592.9-166z M-600.9-149.3l-8.1-20.7h21.9l-8.2,20.7
				l-2.8-1.1C-598-150.4-600.9-149.3-600.9-149.3z"/>
			<path id="h" class="st1" d="M-602-144h8c0,2.2-1.8,4-4,4l0,0C-600.2-140-602-141.8-602-144z"/>
			<path id="i" class="st2" d="M-604-148c-1.1,0-2-0.9-2-2s0.9-2,2-2c-1.1,0-2-0.9-2-2s0.9-2,2-2h12c1.1,0,2,0.9,2,2s-0.9,2-2,2
				c1.1,0,2,0.9,2,2s-0.9,2-2,2c1.1,0,2,0.9,2,2s-0.9,2-2,2h-12c-1.1,0-2-0.9-2-2S-605.1-148-604-148z"/>
		</g>
	</g>
</g>
</svg>
