<?xml version="1.0" encoding="utf-8"?>
<!-- Generator: Adobe Illustrator 27.1.0, SVG Export Plug-In . SVG Version: 6.00 Build 0)  -->
<svg version="1.1" id="Layer_1" xmlns="http://www.w3.org/2000/svg" xmlns:xlink="http://www.w3.org/1999/xlink" x="0px" y="0px"
	 viewBox="0 0 146 258" style="enable-background:new 0 0 146 258;" xml:space="preserve">
<style type="text/css">
	.st0{fill:#43616B;}
	.st1{fill:#59818E;}
	.st2{fill:#EBF0F1;}
</style>
<g>
	<g id="_x23_43616bff">
		<path class="st0" d="M17.82,0h110.21c4.16,1.46,8.38,3.23,11.5,6.47c3.2,3.09,4.91,7.29,6.47,11.36v59.25
			c-2.07001,2.92-4.89,5.61-5.48,9.28c-0.51001,3.53-0.25,7.1-0.29001,10.65c0.05,27.68999-0.00999,55.37,0.03,83.06001
			C139.92,184.94,143.33,188.67999,146,192.33v46.99001c-1.19,4.23-2.84,8.5-5.97,11.7c-3.13,3.47-7.52,5.33998-11.78999,6.98h-9.48
			c-2.15-4.08-3.67001-9.55-8.58-11.09c-5.57-1.60001-11.46-0.87001-17.18-0.94c-16.01,0.03999-32.02,0.11-48.03-0.08
			c-4.14,0.12-8.84,0-12.21,2.82001c-2.67,2.50999-3.9,6.07999-5.47,9.28999H17.9c-4.13-1.48999-8.33-3.25-11.43-6.47
			c-3.2-3.09-4.91-7.28999-6.47-11.36v-48.11c2.66-3.53999,5.86-7.25,5.5-12c0.01-30.38,0.01-60.75999,0-91.14
			c0.27-4.66-2.94-8.31-5.5-11.83V18.68c1.19-4.24,2.83-8.51,5.98-11.7C9.11,3.5,13.52,1.61,17.82,0 M24.32,24.41
			c-4.55,0.77-5.91,7.89-2.02,10.34c1.98,1.19,4.4,1.17,6.64,1.31c29.71-0.11,59.42-0.07,89.13-0.02c1.74-0.11,3.57-0.11,5.18-0.88
			c3.41-2.21,3.88-8.42-0.15-10.24c-4.18-1.51-8.75-0.87-13.1-0.96c-23.33,0.1-46.67,0.01-70,0.04
			C34.78,24.08,29.5,23.5,24.32,24.41 M24.42,54.5c-4.62,1.68-7.04,6.71-6.63,11.44c0.06,49.05,0,98.09999,0.03,147.14999
			c-0.54,6.14,4.98,11.56,11.09,11.08c29.05,0.06,58.1-0.02,87.14999,0.04001c3.25,0.04999,6.82-0.49001,9.08-3.08
			c2.55-2.27,3.07001-5.84001,3.07001-9.07001c-0.05-49.05,0-98.1-0.02-147.14999c0.45999-5.7-4.32-11.09-10.09-11.02
			c-28.36-0.21-56.73,0.02-85.09-0.11C30.14,53.8,27.19,53.63,24.42,54.5z"/>
	</g>
	<g id="_x23_59818eff">
		<path class="st1" d="M24.32,24.41C29.5,23.5,34.78,24.08,40,24c23.33-0.03,46.67,0.06,70-0.04c4.35,0.09,8.92-0.55,13.1,0.96
			c4.03,1.82,3.56001,8.03,0.15,10.24c-1.61,0.77-3.44,0.77-5.18,0.88c-29.71-0.05-59.42-0.09-89.13,0.02
			c-2.24-0.14-4.66-0.12-6.64-1.31C18.41,32.3,19.77,25.18,24.32,24.41z"/>
		<path class="st1" d="M32.76,248.71001c3.37-2.82001,8.07-2.70001,12.21-2.82001c16.01,0.19,32.02,0.12,48.03,0.08
			c5.72,0.06999,11.61-0.66,17.18,0.94c4.91,1.53999,6.43,7.00999,8.58,11.09H27.29C28.86,254.78999,30.09,251.22,32.76,248.71001z"
			/>
	</g>
	<g id="_x23_ebf0f1ff">
		<path class="st2" d="M24.42,54.5c2.77-0.87,5.72-0.7,8.59-0.72c28.36,0.13,56.73-0.1,85.09,0.11c5.77-0.07,10.55,5.32,10.09,11.02
			c0.02,49.05-0.03,98.09999,0.02,147.14999c0,3.23-0.52,6.8-3.07001,9.07001c-2.26,2.59-5.83,3.12999-9.08,3.08
			C87.01,224.14999,57.96,224.23,28.91,224.17c-6.11,0.48-11.63-4.94-11.09-11.08c-0.03-49.05,0.03-98.1-0.03-147.14999
			C17.38,61.21,19.8,56.18,24.42,54.5z"/>
	</g>
</g>
</svg>
