<?xml version="1.0" encoding="utf-8"?>
<!-- Generator: Adobe Illustrator 27.1.0, SVG Export Plug-In . SVG Version: 6.00 Build 0)  -->
<svg version="1.1" id="Layer_1" xmlns="http://www.w3.org/2000/svg" xmlns:xlink="http://www.w3.org/1999/xlink" x="0px" y="0px"
	 viewBox="0 0 146 258" style="enable-background:new 0 0 146 258;" xml:space="preserve">
<style type="text/css">
	.st0{fill:#43616B;}
	.st1{fill:#59818E;}
	.st2{fill:#EBF0F1;}
	.st3{fill:#7A9AA5;}
	.st4{fill:#FF7787;}
	.st5{fill:#FFC971;}
	.st6{fill:#8FC28C;}
</style>
<g>
	<g id="_x23_43616bff">
		<path class="st0" d="M17.9,0h110.03c3.98,1.36,8.01,2.99,11.09,5.97c3.50999,3.16,5.39,7.6,6.98,11.94v59.08
			c-2.66,3.56001-5.98,7.24001-5.74001,12.02c-0.03,30.35-0.01999,60.71,0,91.06001c-0.29999,4.84,3.03,8.62999,5.74001,12.23999
			V239.27c-1.21001,4.48999-3.03999,8.98999-6.46001,12.25999c-3.09999,3.19-7.28,4.92999-11.37,6.47h-9.33
			c-1.6-3.23-3.09-6.62-5.52-9.33c-3.11-2.58-7.43-2.62-11.27-2.78999C83.02,246.05,63.99,246.09,44.96,245.87
			c-4.14,0.15001-8.82,0.08-12.21,2.83c-2.52,2.64-3.97,6.06-5.53,9.3h-9.23c-3.73-1.34-7.51-2.8-10.49-5.5
			c-3.81-3.17999-5.85-7.85001-7.5-12.41V192.19c2.6-3.61,5.84-7.34,5.5-12.11c0.02-30.39,0.01-60.78,0-91.17
			c0.24-4.69-3-8.34-5.5-11.93V18.73c1.21-4.49,3.04-8.99,6.46-12.26C9.58,3.26,13.78,1.51,17.9,0 M24.33,24.43
			c-4.58,0.74-5.9,7.86-2.05,10.33c2.34,1.26,5.09,1.2,7.67,1.33C55.3,35.9,80.65,36.05,106,36c5.26-0.09,10.58,0.53,15.8-0.38
			c5.03-0.91,5.8-9.61,0.62-10.95C117.06,23.33,111.46,24.1,106,24c-25.35-0.05-50.7,0.1-76.05-0.09
			C28.07,23.97,26.17,24.01,24.33,24.43 M22.4,58.55c-3.83,0.83-7,3.66-8.84,7.04C11.84,69.12,11.99,73.18,11.91,77.01
			c0.18,11.34,0.08,22.68,0.01,34.02c-0.01,4.56,0.62,9.61,4.21,12.84c3.22,3.6,8.28,4.21,12.84,4.2
			C58,127.93,87.03,127.99,116.06,128.05c4.5,0.06999,9.25-1.18,12.2-4.79c3.8-3.7,3.84001-9.34,3.84001-14.27
			c-0.22-11.68-0.03-23.37-0.05-35.05c0.06-4.49001-1.2-9.23-4.78001-12.2c-3.17-3.26-7.93-3.8-12.24-3.82
			C86,58.06,56.97,58.01,27.94,57.95C26.08,58.02,24.21,58.14,22.4,58.55 M20.34,140.49001c-2.22,0.45-3.74,2.47-4.08,4.62999
			c-0.62,3.71001-0.76,7.67,0.48,11.27c0.87,2.57001,3.73,3.49001,6.19,3.53999c6.04,0.27,12.1,0.12001,18.14,0.11
			c3-0.06,7-0.32999,8.21-3.64c1.25-4.09999,1.27-8.7-0.01-12.78999c-1.59-4.09-6.7-3.55-10.25-3.69
			C32.8,140.16,26.49,139.41,20.34,140.49001 M60.34,140.49001c-2.22,0.45-3.74,2.47-4.08,4.62999
			c-0.62,3.71001-0.76,7.67,0.48,11.27c0.87,2.57001,3.73,3.49001,6.2,3.53999c6.04,0.27,12.09,0.11,18.13,0.11
			c3-0.06,7-0.31999,8.21-3.64c1.26-4.09999,1.27-8.7-0.01-12.78999c-1.59-4.08-6.7-3.55-10.25-3.68001
			C72.8,140.14999,66.49,139.39999,60.34,140.49001 M100.34,140.49001c-2.96999,0.58-4.23,3.72-4.35999,6.43999
			C95.77,150.49001,95.46,154.47,97.42,157.63c2.25,2.86,6.35,2.23,9.56001,2.45c6.21999-0.24001,12.52,0.52,18.68-0.56
			c2.95999-0.59001,4.23999-3.73001,4.36-6.44c0.20999-3.57001,0.51999-7.54001-1.44-10.71001c-2.25-2.86-6.35-2.23-9.56001-2.45
			C112.8,140.14999,106.5,139.41,100.34,140.49001 M20.34,168.49001c-2.96,0.58-4.23,3.72-4.36,6.43999
			c-0.21,3.56001-0.52,7.54001,1.44,10.70001c2.25,2.86,6.35,2.23,9.56,2.45c6.22-0.24001,12.53,0.52,18.68-0.56
			c2.97-0.59001,4.23-3.73001,4.36-6.44c0.21-3.57001,0.52-7.55-1.44-10.72c-2.26-2.85001-6.35-2.22-9.56-2.44
			C32.8,168.16,26.49,167.39999,20.34,168.49001 M60.34,168.48c-2.97,0.58-4.23,3.73001-4.36,6.45
			c-0.21,3.56001-0.52,7.54001,1.44,10.70001c2.25,2.86,6.35,2.23,9.56001,2.45c6.21999-0.24001,12.53,0.52,18.68-0.57001
			c2.96-0.59,4.24-3.72,4.35999-6.42999C90.23,177.50999,90.54,173.53,88.58,170.37c-2.25-2.86-6.35-2.23-9.56001-2.45
			C72.8,168.16,66.5,167.39999,60.34,168.48 M100.34,168.48c-2.96999,0.59001-4.24,3.73001-4.35999,6.44
			c-0.21001,3.57001-0.52,7.55,1.43999,10.72c2.25,2.85001,6.35,2.22,9.56001,2.44c6.21999-0.24001,12.53,0.52,18.68-0.57001
			c3.37999-0.67999,4.39-4.43999,4.45-7.42c0.06-3.42999,0.39-7.42999-1.96001-10.23999
			C125.41,167.39999,121.37,168.14999,118,167.92C112.12,168.14999,106.16,167.42,100.34,168.48 M20.34,194.48
			c-2.96,0.59001-4.23,3.73001-4.36,6.44c-0.21,3.57001-0.52,7.55,1.44,10.71001c2.25,2.86,6.35,2.23,9.56,2.45
			c6.22-0.24001,12.52,0.52,18.68-0.57001c3.37-0.67999,4.39-4.43999,4.45-7.42c0.06-3.42999,0.39-7.44-1.97-10.23999
			c-2.73-2.45001-6.77-1.70001-10.15-1.93001C32.12,194.14999,26.15,193.42,20.34,194.48 M60.34,194.49001
			c-2.97,0.58-4.23,3.72-4.36,6.42999c-0.22,3.57001-0.52,7.54001,1.44,10.71001c2.25,2.86,6.35,2.23,9.56001,2.45
			C73.2,213.84,79.51,214.59,85.67,213.52c3.39-0.67,4.37-4.46001,4.44-7.43001c0.06-3.42999,0.39-7.44-1.96-10.23999
			c-2.75-2.44-6.78-1.70001-10.15-1.93001C72.12,194.14999,66.16,193.42,60.34,194.49001 M100.34,194.49001
			c-2.96999,0.58-4.23,3.72-4.35999,6.43999C95.77,204.49001,95.46,208.47,97.42,211.63c2.25,2.86,6.35,2.23,9.56001,2.45
			c6.21999-0.24001,12.52,0.52,18.68-0.56c3.37-0.69,4.39-4.45,4.45-7.43001c0.06-3.42999,0.38-7.44-1.97-10.23999
			c-2.73-2.45001-6.77-1.70001-10.14-1.93001C112.12,194.14999,106.15,193.42,100.34,194.49001 M20.32,220.41
			c-4.57,1.33-4.59,6.76999-4.43,10.64c-0.2,3.33,0.77,7.50999,4.4,8.56999c5.85,0.89,11.82,0.18001,17.71,0.43001
			c3.73-0.14,8.66,0.73999,10.98-3c1.68-3.39,1.09-7.41,0.95-11.06c-0.12-3.5-3.39-6.27-6.85-5.96001
			C35.5,220.12,27.84,219.48,20.32,220.41 M60.32,220.39c-2.77,0.86-4.45,3.71001-4.33,6.53c0.08,3.71001-0.91,8.21001,1.9,11.19
			c2.02,2.28999,5.34,1.81,8.07,1.92999C71.97,239.91,77.99,240.21001,84,239.91c3.52-0.05,6.23-3.40001,6.01-6.83
			c-0.08-3.71001,0.91-8.21001-1.9-11.18001c-2.31-2.53-6.05-1.76999-9.1-1.93999C72.79,220.23,66.49,219.47,60.32,220.39
			 M100.33,220.46001C97.81,221.03999,96.27,223.52,96.09,225.98c-0.31,3.66-0.67,7.65001,0.96001,11.06
			c1.71999,3.18001,5.81,2.92001,8.91,3.02c6-0.11,12.03,0.23,18.03-0.20999c2.8-0.06001,5.4-2.13,5.77-4.96001
			c0.51001-3.92999,0.89-8.24001-0.81-11.92999c-1.96999-3.5-6.55-2.87001-9.93-3.03001
			C112.79,220.17999,106.49,219.42,100.33,220.46001z"/>
	</g>
	<g id="_x23_59818eff">
		<path class="st1" d="M24.33,24.43c1.84-0.42,3.74-0.46,5.62-0.52C55.3,24.1,80.65,23.95,106,24c5.46,0.1,11.06-0.67,16.42,0.67
			c5.18,1.34,4.41,10.04-0.62,10.95c-5.22,0.91-10.54,0.29-15.8,0.38c-25.35,0.05-50.7-0.1-76.05,0.09
			c-2.58-0.13-5.33-0.07-7.67-1.33C18.43,32.29,19.75,25.17,24.33,24.43z"/>
		<path class="st1" d="M22.4,58.55c1.81-0.41,3.68-0.53,5.54-0.6c29.03,0.06,58.06,0.11,87.09-0.03c4.31,0.02,9.07,0.56,12.24,3.82
			c3.58001,2.97,4.84,7.71,4.78001,12.2c0.02,11.68-0.17,23.37,0.05,35.05c0,4.93-0.04001,10.57-3.84001,14.27
			c-2.95,3.61-7.7,4.85999-12.2,4.79c-29.03-0.06001-58.06-0.12-87.09,0.02c-4.56,0.00999-9.62-0.60001-12.84-4.2
			c-3.59-3.23-4.22-8.28001-4.21-12.84c0.07-11.34,0.17-22.68-0.01-34.02c0.08-3.83-0.07-7.89,1.65-11.42001
			C15.4,62.21,18.57,59.38,22.4,58.55 M24.36,60.46c-3.27,0.87-6.09,3.32-7.41,6.43c-1.26,3.21-0.92,6.74-0.99,10.12
			c0.17,12.68-0.14,25.36,0.13,38.03c0.08,6.13,5.7,11.34,11.83,10.95c29.38,0.06001,58.76-0.05,88.14,0.05
			c3.54,0.08,7.38-0.37,10.05-2.93c3.3-2.64,4.06999-7.05,3.92999-11.04C129.89,98.36,130.17,84.65,129.91,70.95
			C129.81,64.84,124.2,59.63,118.09,60.01c-29.38-0.06-58.77,0.05-88.16-0.05C28.07,60,26.18,60,24.36,60.46z"/>
		<path class="st1" d="M32.75,248.7c3.39-2.75,8.07-2.67999,12.21-2.83c19.03,0.22,38.06,0.18001,57.09,0.01001
			c3.84,0.17,8.16,0.20999,11.27,2.78999c2.43,2.71001,3.92,6.10001,5.52,9.33H27.22C28.78,254.75999,30.23,251.34,32.75,248.7z"/>
	</g>
	<g id="_x23_ebf0f1ff">
		<path class="st2" d="M24.36,60.46c1.82-0.46,3.71-0.46,5.57-0.5c29.39,0.1,58.78-0.01,88.16,0.05
			c6.11-0.38,11.72,4.83,11.82001,10.94c0.25999,13.7-0.02,27.41,0.12999,41.12c0.14,3.99-0.62999,8.4-3.92999,11.04
			c-2.67,2.56-6.51,3.01-10.05,2.93c-29.38-0.1-58.76,0.01-88.14-0.05c-6.13,0.39-11.75-4.82-11.83-10.95
			c-0.27-12.67,0.04-25.35-0.13-38.03c0.07-3.38-0.27-6.91,0.99-10.12C18.27,63.78,21.09,61.33,24.36,60.46z"/>
	</g>
	<g id="_x23_7a9aa5ff">
		<path class="st3" d="M20.34,140.49001c6.15-1.08,12.46-0.33,18.68-0.57001c3.55,0.14,8.66-0.39999,10.25,3.69
			c1.28,4.09,1.26,8.69,0.01,12.78999c-1.21,3.31001-5.21,3.58-8.21,3.64c-6.04,0.01001-12.1,0.16-18.14-0.11
			c-2.46-0.04999-5.32-0.96999-6.19-3.53999c-1.24-3.60001-1.1-7.56-0.48-11.27C16.6,142.96001,18.12,140.94,20.34,140.49001z"/>
		<path class="st3" d="M60.34,140.49001c6.15-1.09001,12.46-0.34001,18.68-0.56001c3.55,0.13,8.66-0.39999,10.25,3.68001
			c1.28001,4.09,1.27,8.69,0.01,12.78999c-1.21,3.32001-5.21,3.58-8.21,3.64c-6.04,0-12.09,0.16-18.13-0.11
			c-2.47-0.04999-5.33-0.96999-6.2-3.53999c-1.24-3.60001-1.1-7.56-0.48-11.27C56.6,142.96001,58.12,140.94,60.34,140.49001z"/>
		<path class="st3" d="M100.34,140.49001c6.16-1.08,12.46001-0.34001,18.68-0.57001c3.21001,0.22,7.31001-0.41,9.56001,2.45
			c1.95999,3.17,1.64999,7.14,1.44,10.71001c-0.12001,2.70999-1.40001,5.84999-4.36,6.44c-6.16,1.08-12.46001,0.31999-18.68,0.56
			c-3.21001-0.22-7.31001,0.41-9.56001-2.45c-1.96-3.16-1.65-7.14-1.43999-10.70001
			C96.11,144.21001,97.37,141.07001,100.34,140.49001z"/>
		<path class="st3" d="M20.34,168.49001c6.15-1.09001,12.46-0.33,18.68-0.57001c3.21,0.22,7.3-0.41,9.56,2.44
			c1.96,3.17,1.65,7.14999,1.44,10.72c-0.13,2.70999-1.39,5.84999-4.36,6.44c-6.15,1.08-12.46,0.31999-18.68,0.56
			c-3.21-0.22-7.31,0.41-9.56-2.45c-1.96-3.16-1.65-7.14-1.44-10.70001C16.11,172.21001,17.38,169.07001,20.34,168.49001z"/>
		<path class="st3" d="M60.34,168.48c6.16-1.08,12.46-0.31999,18.68-0.56c3.21001,0.22,7.31001-0.41,9.56001,2.45
			c1.96,3.16,1.65,7.14,1.43999,10.71001c-0.12,2.70999-1.39999,5.84-4.35999,6.42999C79.51,188.60001,73.2,187.84,66.98,188.08
			c-3.21-0.22-7.31001,0.41-9.56001-2.45c-1.96-3.16-1.65-7.14-1.44-10.70001C56.11,172.21001,57.37,169.06,60.34,168.48z"/>
		<path class="st3" d="M100.34,168.48c5.82001-1.06,11.78001-0.33,17.66-0.56c3.37,0.23,7.41-0.52,10.14999,1.93001
			c2.35001,2.81,2.02,6.81,1.96001,10.23999c-0.06,2.98001-1.07001,6.74001-4.45,7.42c-6.15,1.09001-12.46001,0.33-18.68,0.57001
			c-3.21001-0.22-7.31001,0.41-9.56001-2.44c-1.96-3.17-1.65-7.14999-1.43999-10.72C96.1,172.21001,97.37,169.07001,100.34,168.48z"
			/>
		<path class="st3" d="M20.34,194.48c5.81-1.06,11.78-0.33,17.65-0.56c3.38,0.23,7.42-0.52,10.15,1.93001
			c2.36,2.79999,2.03,6.81,1.97,10.23999c-0.06,2.98001-1.08,6.74001-4.45,7.42c-6.16,1.09001-12.46,0.33-18.68,0.57001
			c-3.21-0.22-7.31,0.41-9.56-2.45c-1.96-3.16-1.65-7.14-1.44-10.71001C16.11,198.21001,17.38,195.07001,20.34,194.48z"/>
		<path class="st3" d="M60.34,194.49001C66.16,193.42,72.12,194.14999,78,193.92c3.37,0.23,7.4-0.50999,10.15,1.93001
			c2.35,2.79999,2.02,6.81,1.96,10.23999c-0.07,2.97-1.05,6.76001-4.44,7.43001C79.51,214.59,73.2,213.84,66.98,214.08
			c-3.21-0.22-7.31001,0.41-9.56001-2.45c-1.96-3.17-1.66-7.14-1.44-10.71001C56.11,198.21001,57.37,195.07001,60.34,194.49001z"/>
		<path class="st3" d="M100.34,194.49001C106.15,193.42,112.12,194.14999,118,193.92c3.37,0.23,7.41-0.52,10.14,1.93001
			c2.35001,2.79999,2.03,6.81,1.97,10.23999c-0.06,2.98001-1.08,6.74001-4.45,7.43001c-6.16,1.08-12.46001,0.31999-18.68,0.56
			c-3.21001-0.22-7.31001,0.41-9.56001-2.45c-1.96-3.16-1.65-7.14-1.43999-10.70001
			C96.11,198.21001,97.37,195.07001,100.34,194.49001z"/>
	</g>
	<g id="_x23_ff7787ff">
		<path class="st4" d="M20.32,220.41c7.52-0.93001,15.18-0.29001,22.76-0.38c3.46-0.31,6.73,2.46001,6.85,5.96001
			c0.14,3.64999,0.73,7.67-0.95,11.06c-2.32,3.73999-7.25,2.86-10.98,3c-5.89-0.25-11.86,0.45999-17.71-0.43001
			c-3.63-1.06-4.6-5.23999-4.4-8.56999C15.73,227.17999,15.75,221.74001,20.32,220.41z"/>
	</g>
	<g id="_x23_ffc971ff">
		<path class="st5" d="M60.32,220.39c6.17-0.92,12.47-0.16,18.69-0.42999c3.05,0.17,6.79-0.59001,9.1,1.93999
			c2.81,2.97,1.82,7.47,1.9,11.18001c0.22,3.42999-2.49001,6.78-6.01,6.83c-6.01,0.3-12.03,0-18.04,0.12999
			c-2.73-0.12-6.05,0.36-8.07-1.92999c-2.81-2.98-1.82-7.48-1.9-11.19C55.87,224.10001,57.55,221.25,60.32,220.39z"/>
	</g>
	<g id="_x23_8fc28cff">
		<path class="st6" d="M100.33,220.46001c6.16-1.04001,12.46-0.28001,18.68999-0.53001c3.38,0.16,7.96001-0.46999,9.93,3.03001
			c1.7,3.68999,1.32001,8,0.81,11.92999c-0.37,2.83-2.96999,4.89999-5.77,4.96001c-6,0.43999-12.03,0.09999-18.03,0.20999
			c-3.1-0.09999-7.19,0.16-8.91-3.02C95.42,233.63,95.78,229.64,96.09,225.98C96.27,223.52,97.81,221.03999,100.33,220.46001z"/>
	</g>
</g>
</svg>
